<?xml version="1.0" standalone="no"?>
<!DOCTYPE svg PUBLIC "-//W3C//DTD SVG 1.1//EN" "http://www.w3.org/Graphics/SVG/1.1/DTD/svg11.dtd" >
<svg>
<metadata>
Created by FontForge 20120731 at Fri Aug  8 16:26:19 2014
 By World Wide Web Server
This font is for personal use only, commercial use is allowed ONLY under authorization from the designer. The designer is NOT responsible or liable, directly or indirectly, for any consequence caused or alleged to be caused by this font.
</metadata>
<defs>
<font id="Melor-Thin" horiz-adv-x="514" >
  <font-face 
    font-family="Melor"
    font-weight="250"
    font-stretch="normal"
    units-per-em="1000"
    panose-1="2 0 5 6 3 0 0 2 0 4"
    ascent="770"
    descent="-230"
    x-height="488"
    cap-height="649"
    bbox="-74 -227 1350 912"
    underline-thickness="50"
    underline-position="-50"
    stemh="36"
    stemv="40"
    unicode-range="U+0020-FB06"
  />
<missing-glyph horiz-adv-x="459" 
d="M75 604l-10 34c26 8 91 20 161 20c113 0 178 -35 178 -152c0 -89 -54 -112 -103 -139c-43 -24 -83 -47 -83 -122v-67h-40v68c0 100 53 126 102 152c41 22 81 43 81 108c0 83 -38 116 -135 116c-59 0 -123 -11 -151 -18zM164 35c0 27 14 36 34 36c22 0 34 -9 34 -36
c0 -25 -12 -35 -34 -35c-20 0 -34 9 -34 35z" />
    <glyph glyph-name="fi" unicode="fi" horiz-adv-x="513" 
d="M156 0h-40v453l-70 5v32h70l-1 86c0 75 35 122 125 122h77l-9 -34h-68c-61 0 -84 -30 -84 -85v-89h281v-490h-40v454h-241v-454zM390 651c0 21 9 28 25 28c18 0 28 -7 28 -28c0 -18 -10 -27 -28 -27c-16 0 -25 7 -25 27z" />
    <glyph glyph-name="fl" unicode="fl" horiz-adv-x="500" 
d="M156 0h-40v453l-70 5v32h70l-1 86c0 75 35 122 125 122h182l8 2v-700h-40v664h-150c-61 0 -84 -30 -84 -85v-89h153l-7 -36h-146v-454z" />
    <glyph glyph-name=".notdef" horiz-adv-x="459" 
d="M75 604l-10 34c26 8 91 20 161 20c113 0 178 -35 178 -152c0 -89 -54 -112 -103 -139c-43 -24 -83 -47 -83 -122v-67h-40v68c0 100 53 126 102 152c41 22 81 43 81 108c0 83 -38 116 -135 116c-59 0 -123 -11 -151 -18zM164 35c0 27 14 36 34 36c22 0 34 -9 34 -36
c0 -25 -12 -35 -34 -35c-20 0 -34 9 -34 35z" />
    <glyph glyph-name="q" unicode="q" horiz-adv-x="523" 
d="M453 474v-701h-40v285c-40 -35 -101 -68 -178 -68c-123 0 -185 64 -185 245v20c0 164 98 245 222 245c83 0 145 -13 181 -26zM413 99v347c-29 13 -87 18 -141 18c-105 0 -179 -67 -179 -209v-20c0 -152 36 -209 146 -209c70 0 143 40 174 73z" />
    <glyph glyph-name="d" unicode="d" horiz-adv-x="523" 
d="M453 690v-690h-33l-4 58c-40 -35 -104 -68 -181 -68c-123 0 -185 64 -185 245v20c0 164 98 245 222 245c58 0 105 -6 141 -18v218zM413 99v347c-29 13 -87 18 -141 18c-105 0 -179 -67 -179 -209v-20c0 -152 36 -209 146 -209c70 0 143 40 174 73z" />
    <glyph glyph-name="p" unicode="p" horiz-adv-x="523" 
d="M70 -227v717h33l5 -58c40 35 103 68 180 68c123 0 185 -64 185 -245v-20c0 -164 -98 -245 -222 -245c-58 0 -105 6 -141 18v-235h-40zM110 391v-347c29 -13 87 -18 141 -18c105 0 179 67 179 209v20c0 152 -36 209 -146 209c-70 0 -143 -40 -174 -73z" />
    <glyph glyph-name="o" unicode="o" horiz-adv-x="527" 
d="M263 -10c-151 0 -213 72 -213 255c0 181 62 255 213 255s214 -74 214 -255c0 -183 -63 -255 -214 -255zM263 26c126 0 171 51 171 219c0 163 -45 219 -171 219c-125 0 -170 -56 -170 -219c0 -168 45 -219 170 -219z" />
    <glyph glyph-name="e" unicode="e" horiz-adv-x="490" 
d="M406 48l11 -31c-22 -10 -82 -27 -154 -27c-180 0 -213 116 -213 251c0 176 50 259 216 259c150 0 177 -95 177 -207c0 -22 -2 -44 -5 -52h-346c4 -171 57 -215 171 -215c64 0 118 12 143 22zM405 275c0 126 -21 189 -139 189c-117 0 -162 -33 -174 -189h313z" />
    <glyph glyph-name="l" unicode="l" horiz-adv-x="180" 
d="M70 690l40 10v-700h-40v690z" />
    <glyph glyph-name="g" unicode="g" horiz-adv-x="523" 
d="M453 474v-533c0 -102 -66 -168 -193 -168h-136l7 34h112c102 0 170 31 170 132v119c-40 -35 -101 -68 -178 -68c-123 0 -185 64 -185 245v20c0 164 98 245 222 245c83 0 145 -13 181 -26zM413 99v347c-29 13 -87 18 -141 18c-105 0 -179 -67 -179 -209v-20
c0 -152 36 -209 146 -209c70 0 143 40 174 73z" />
    <glyph glyph-name="i" unicode="i" horiz-adv-x="193" 
d="M77 490h40v-490h-40v490zM70 651c0 21 9 28 25 28c18 0 28 -7 28 -28c0 -18 -10 -27 -28 -27c-16 0 -25 7 -25 27z" />
    <glyph glyph-name="c" unicode="c" horiz-adv-x="436" 
d="M385 49l12 -32c-25 -10 -81 -27 -143 -27c-128 0 -204 59 -204 252c0 194 73 258 210 258c74 0 120 -23 141 -35l-11 -30c-25 11 -68 29 -126 29c-124 0 -171 -56 -171 -222c0 -167 49 -216 170 -216c51 0 104 15 122 23z" />
    <glyph glyph-name="j" unicode="j" horiz-adv-x="197" 
d="M81 490h40v-566c0 -87 -49 -151 -140 -151h-21l6 34h5c81 0 110 53 110 109v574zM74 651c0 21 9 28 25 28c18 0 28 -7 28 -28c0 -18 -10 -27 -28 -27c-16 0 -25 7 -25 27z" />
    <glyph glyph-name="a" unicode="a" horiz-adv-x="485" 
d="M97 431l-8 34c21 10 90 35 174 35c95 0 152 -44 152 -161v-339h-33l-4 59c-21 -16 -92 -69 -185 -69c-96 0 -145 71 -145 154c0 89 76 143 253 143h74v49c0 73 -26 128 -115 128c-69 0 -142 -24 -163 -33zM375 99v154h-57c-183 0 -227 -48 -227 -107
c0 -66 34 -120 102 -120c77 0 152 48 182 73z" />
    <glyph glyph-name="n" unicode="n" 
d="M70 490h32l6 -52c17 14 98 62 186 62c98 0 150 -45 150 -160v-340h-40v340c0 84 -28 124 -112 124c-83 0 -164 -47 -182 -61v-403h-40v490z" />
    <glyph glyph-name="m" unicode="m" horiz-adv-x="846" 
d="M70 490h32l6 -52c17 14 98 62 186 62c66 0 112 -21 134 -70c22 18 105 70 198 70c98 0 150 -45 150 -160v-340h-40v340c0 84 -28 124 -112 124c-85 0 -166 -48 -186 -63c4 -18 6 -38 6 -61v-340h-40v340c0 84 -28 124 -112 124c-83 0 -164 -47 -182 -61v-403h-40v490z
" />
    <glyph glyph-name="f" unicode="f" horiz-adv-x="320" 
d="M156 0h-40v453l-70 5v32h70v86c0 75 34 122 124 122h77l-9 -34h-68c-61 0 -84 -30 -84 -85v-89h153l-7 -36h-146v-454z" />
    <glyph glyph-name="t" unicode="t" horiz-adv-x="334" 
d="M158 643v-153h144l-7 -34h-137v-330c0 -64 17 -90 83 -90h58v-36h-64c-73 0 -117 31 -117 126v330h-72v34h72l7 150z" />
    <glyph glyph-name="u" unicode="u" 
d="M444 0h-33l-5 59c-21 -16 -91 -69 -198 -69c-86 0 -138 46 -138 155v345h40v-338c0 -87 31 -126 112 -126s156 48 182 72v392h40v-490z" />
    <glyph glyph-name="h" unicode="h" 
d="M70 690l40 10v-262c20 16 99 62 184 62c98 0 150 -45 150 -160v-340h-40v340c0 84 -28 124 -112 124c-83 0 -164 -48 -182 -62v-402h-40v690z" />
    <glyph glyph-name="space" unicode=" " horiz-adv-x="230" 
 />
    <glyph glyph-name="r" unicode="r" horiz-adv-x="302" 
d="M290 500v-37c-74 -3 -146 -40 -180 -70v-393h-40v490h33l5 -60c30 25 106 70 182 70z" />
    <glyph glyph-name="s" unicode="s" horiz-adv-x="430" 
d="M343 118c0 76 -72 94 -149 120c-70 23 -139 46 -139 135s83 127 174 127c68 0 121 -10 137 -15l-9 -32c-27 5 -84 11 -127 11c-81 0 -132 -30 -132 -91c0 -71 59 -83 147 -112c72 -24 141 -57 141 -143c0 -70 -58 -128 -173 -128c-66 0 -131 17 -157 26l8 31
c22 -5 85 -21 146 -21c80 0 133 30 133 92z" />
    <glyph glyph-name="k" unicode="k" horiz-adv-x="426" 
d="M373 0l-263 263v-263h-40v690l40 10v-425l245 215h54l-250 -221l267 -269h-53z" />
    <glyph glyph-name="z" unicode="z" horiz-adv-x="438" 
d="M63 490h337v-35l-303 -419h314v-36h-368v33l306 421h-286v36z" />
    <glyph glyph-name="x" unicode="x" horiz-adv-x="438" 
d="M371 488l43 -11l-160 -227l169 -250h-47l-157 234h-2l-155 -234h-47l169 250l-160 227l43 11l152 -226h2z" />
    <glyph glyph-name="b" unicode="b" horiz-adv-x="523" 
d="M70 16v674l40 10v-268c40 35 101 68 178 68c123 0 185 -64 185 -245v-20c0 -164 -98 -245 -222 -245c-83 0 -145 13 -181 26zM110 391v-347c29 -13 87 -18 141 -18c105 0 179 67 179 209v20c0 152 -36 209 -146 209c-70 0 -143 -40 -174 -73z" />
    <glyph glyph-name="y" unicode="y" horiz-adv-x="492" 
d="M472 490l-217 -549c-45 -114 -60 -168 -195 -168v35c97 0 124 34 165 161l11 34l-27 12l-189 475h46l179 -458h3l179 458h45z" />
    <glyph glyph-name="v" unicode="v" horiz-adv-x="488" 
d="M215 0l-197 490h46l113 -285c23 -58 48 -119 66 -177h2c19 58 43 119 66 177l114 285h45l-197 -490h-58z" />
    <glyph glyph-name="w" unicode="w" horiz-adv-x="713" 
d="M695 490l-149 -490h-59l-86 263c-16 51 -36 118 -44 169h-2c-8 -51 -28 -117 -44 -168l-85 -264h-59l-149 490h46l131 -462h2l141 461h37l141 -461h2l131 462h46z" />
    <glyph glyph-name="A" unicode="A" horiz-adv-x="586" 
d="M326 648l236 -648h-49l-66 186h-308l-67 -186h-48l239 648h63zM293 615l-141 -391h281l-138 391h-2z" />
    <glyph glyph-name="B" unicode="B" horiz-adv-x="557" 
d="M279 0h-209v648h211c135 0 204 -47 204 -164c0 -99 -69 -140 -119 -148v-1c56 -10 139 -45 139 -154c0 -110 -48 -181 -226 -181zM112 37h167c136 0 182 46 182 144s-83 134 -175 134h-63c-31 0 -87 1 -111 1v-279zM277 611h-165v-261c24 0 80 1 111 1h63
c93 0 155 40 155 133c0 94 -44 127 -164 127z" />
    <glyph glyph-name="C" unicode="C" horiz-adv-x="539" 
d="M484 43l10 -36c-39 -7 -112 -17 -181 -17c-167 0 -260 74 -260 324v20c0 247 88 324 260 324c85 0 146 -16 179 -28l-11 -34c-41 11 -104 25 -164 25c-149 0 -219 -51 -219 -287v-20c0 -238 77 -287 219 -287c57 0 127 10 167 16z" />
    <glyph glyph-name="D" unicode="D" horiz-adv-x="600" 
d="M70 648h170c212 0 307 -56 307 -303v-30c0 -244 -100 -315 -311 -315h-166v648zM213 611h-103v-574h103c208 0 289 40 289 278v30c0 239 -81 266 -289 266z" />
    <glyph glyph-name="E" unicode="E" horiz-adv-x="483" 
d="M421 648v-37h-309v-260h288v-35h-288v-278h321v-38h-363v648h351z" />
    <glyph glyph-name="F" unicode="F" horiz-adv-x="465" 
d="M421 648v-37h-310v-267h279v-36h-279v-308h-41v648h351z" />
    <glyph glyph-name="G" unicode="G" horiz-adv-x="580" 
d="M357 314v35h156v-339c-35 -8 -114 -20 -201 -20c-164 0 -259 74 -259 324v20c0 253 94 324 259 324c90 0 164 -16 198 -28l-10 -35c-38 10 -107 26 -184 26c-148 0 -218 -51 -218 -287v-20c0 -238 76 -287 218 -287c49 0 137 9 156 13v274h-115z" />
    <glyph glyph-name="H" unicode="H" horiz-adv-x="588" 
d="M476 648h42v-648h-42v315h-364v-315h-42v648h42v-295h364v295z" />
    <glyph glyph-name="I" unicode="I" horiz-adv-x="182" 
d="M70 649h42v-649h-42v649z" />
    <glyph glyph-name="J" unicode="J" horiz-adv-x="320" 
d="M250 648v-464c0 -137 -84 -185 -192 -185h-20l-8 36h18c92 0 161 37 161 137v476h41z" />
    <glyph glyph-name="K" unicode="K" horiz-adv-x="512" 
d="M112 648v-310l317 310h54l-321 -313l340 -335h-57l-333 326v-326h-42v648h42z" />
    <glyph glyph-name="L" unicode="L" horiz-adv-x="452" 
d="M422 0h-352v648h42v-610h310v-38z" />
    <glyph glyph-name="M" unicode="M" horiz-adv-x="731" 
d="M619 619l-224 -618h-59l-224 618h-1v-619h-41v648h74l189 -520c12 -32 27 -71 31 -104h2c4 33 18 71 30 103l191 521h74v-648h-41v619h-1z" />
    <glyph glyph-name="N" unicode="N" horiz-adv-x="615" 
d="M470 0l-356 616h-2v-616h-42v648h71l360 -617h2v617h42v-648h-75z" />
    <glyph glyph-name="O" unicode="O" horiz-adv-x="637" 
d="M53 324c0 238 85 334 267 334c178 0 264 -92 264 -334c0 -237 -82 -334 -264 -334s-267 97 -267 334zM97 324c0 -222 65 -297 223 -297c156 0 220 75 220 297c0 219 -64 297 -220 297c-158 0 -223 -78 -223 -297z" />
    <glyph glyph-name="P" unicode="P" horiz-adv-x="557" 
d="M70 648h222c157 0 212 -66 212 -198s-61 -206 -212 -206h-180v-244h-42v648zM292 611h-180v-333c49 2 129 3 180 3c121 1 168 49 168 169c0 121 -42 161 -168 161z" />
    <glyph glyph-name="Q" unicode="Q" horiz-adv-x="642" 
d="M53 324c0 238 85 334 267 334c178 0 264 -92 264 -334c0 -167 -36 -249 -117 -297c38 3 91 12 149 12v-39c-94 0 -218 -10 -296 -10c-182 0 -267 97 -267 334zM97 324c0 -222 65 -297 223 -297c156 0 220 75 220 297c0 219 -64 297 -220 297c-158 0 -223 -78 -223 -297z
" />
    <glyph glyph-name="R" unicode="R" horiz-adv-x="560" 
d="M70 648h210c154 0 211 -63 211 -182c0 -121 -69 -159 -131 -170v-2c62 -11 95 -45 118 -126l47 -168h-43l-47 169c-23 81 -91 112 -169 112h-154v-281h-42v648zM280 611h-168v-294c31 1 118 2 146 2c144 0 189 38 189 147c0 103 -38 145 -167 145z" />
    <glyph glyph-name="S" unicode="S" horiz-adv-x="524" 
d="M437 165c0 196 -379 104 -379 321c0 125 106 172 215 172c97 0 156 -11 179 -17l-10 -35c-33 8 -97 15 -168 15c-95 0 -173 -36 -173 -135c0 -174 381 -97 381 -321c0 -122 -89 -175 -226 -175c-89 0 -167 14 -202 26l10 34c42 -10 119 -23 188 -23c117 0 185 46 185 138
z" />
    <glyph glyph-name="T" unicode="T" horiz-adv-x="524" 
d="M499 648v-37h-216v-611h-42v611h-216v37h474z" />
    <glyph glyph-name="U" unicode="U" horiz-adv-x="600" 
d="M70 171v477h42v-468c0 -119 72 -153 187 -153s189 34 189 153v468h42v-477c0 -124 -83 -181 -231 -181c-147 0 -229 57 -229 181z" />
    <glyph glyph-name="V" unicode="V" horiz-adv-x="564" 
d="M251 0l-231 648h48l212 -615h2l215 615h47l-230 -648h-63z" />
    <glyph glyph-name="W" unicode="W" horiz-adv-x="838" 
d="M818 648l-183 -648h-63l-112 412c-16 60 -38 124 -41 182h-1c-2 -59 -24 -122 -40 -182l-112 -412h-63l-183 648h48l164 -615h2l167 615h36l167 -615h2l164 615h48z" />
    <glyph glyph-name="X" unicode="X" horiz-adv-x="539" 
d="M467 0l-195 314h-5l-195 -314h-52l212 332l-205 316h47l193 -299h5l193 299h47l-205 -316l212 -332h-52z" />
    <glyph glyph-name="Y" unicode="Y" horiz-adv-x="532" 
d="M245 0v232l-225 416h48l197 -379h2l197 379h48l-225 -416v-232h-42z" />
    <glyph glyph-name="Z" unicode="Z" horiz-adv-x="500" 
d="M53 611v37h396v-37l-361 -574h369v-37h-422v35l363 576h-345z" />
    <glyph glyph-name="zero" unicode="0" horiz-adv-x="563" 
d="M513 326c0 -245 -63 -336 -232 -336c-167 0 -231 91 -231 336c0 244 64 332 231 332c170 0 232 -88 232 -332zM468 328c0 229 -51 294 -187 294c-133 0 -186 -65 -186 -294c0 -231 53 -302 186 -302c136 0 187 71 187 302z" />
    <glyph glyph-name="one" unicode="1" horiz-adv-x="386" 
d="M62 0v36h122v579c-32 -11 -79 -24 -116 -32l-8 33c46 10 85 21 130 35h36v-615h120v-36h-284z" />
    <glyph glyph-name="two" unicode="2" horiz-adv-x="505" 
d="M82 603l-2 35c28 9 75 20 148 20c162 0 202 -66 202 -181c0 -134 -175 -316 -317 -440h331v-37h-389v35c146 138 329 302 329 442c0 106 -38 145 -160 145c-61 0 -107 -11 -142 -19z" />
    <glyph glyph-name="three" unicode="3" horiz-adv-x="497" 
d="M69 603l-3 35c30 9 79 20 162 20c107 0 176 -36 176 -149c0 -85 -45 -142 -116 -161c74 -7 139 -64 139 -153c0 -109 -39 -195 -306 -195h-66l6 37h51c175 0 270 24 270 158c0 76 -48 110 -116 124c-36 7 -79 7 -120 7v34c42 0 82 1 115 12c60 19 99 61 99 137
c0 88 -46 113 -139 113c-68 0 -126 -10 -152 -19z" />
    <glyph glyph-name="four" unicode="4" horiz-adv-x="561" 
d="M40 202l327 452h65v-453h79l-7 -36h-72v-165h-42v165h-350v37zM88 201h302v422z" />
    <glyph glyph-name="five" unicode="5" horiz-adv-x="506" 
d="M97 648h323l-11 -36h-274l-5 -229h82c198 0 240 -56 240 -181c0 -148 -102 -202 -299 -202h-83l6 36h66c189 0 264 44 264 166c0 114 -31 144 -222 144h-97z" />
    <glyph glyph-name="six" unicode="6" horiz-adv-x="522" 
d="M418 652l-6 -35c-220 -4 -295 -45 -310 -264c54 19 123 32 181 32c134 0 189 -65 189 -188c0 -127 -62 -207 -207 -207c-161 0 -205 99 -205 256v62c0 282 102 341 358 344zM102 316v-71c0 -165 51 -219 163 -219c106 0 161 36 161 171c0 111 -36 151 -144 151
c-66 0 -134 -15 -180 -32z" />
    <glyph glyph-name="seven" unicode="7" horiz-adv-x="489" 
d="M439 648l-6 -46c-99 -190 -184 -404 -240 -606l-45 11c58 191 147 407 243 604h-357l1 37h404z" />
    <glyph glyph-name="eight" unicode="8" horiz-adv-x="530" 
d="M266 658c120 0 193 -50 193 -160c0 -71 -46 -123 -104 -148c66 -21 125 -69 125 -175c0 -114 -73 -185 -215 -185c-143 0 -215 71 -215 185c0 106 60 154 124 174c-61 26 -103 74 -103 149c0 113 77 160 195 160zM265 26c101 0 169 45 169 149c0 119 -77 152 -148 152
h-42c-70 0 -148 -33 -148 -152c0 -104 66 -149 169 -149zM244 361h42c57 0 129 55 129 137c0 98 -60 124 -149 124c-95 0 -151 -29 -151 -124c0 -82 72 -137 129 -137z" />
    <glyph glyph-name="nine" unicode="9" horiz-adv-x="522" 
d="M104 -4l6 35c220 4 295 45 310 264c-54 -19 -123 -32 -181 -32c-134 0 -189 65 -189 188c0 127 62 207 207 207c161 0 205 -99 205 -256v-62c0 -282 -102 -341 -358 -344zM420 332v71c0 165 -51 219 -163 219c-106 0 -161 -36 -161 -171c0 -111 36 -151 144 -151
c66 0 134 15 180 32z" />
    <glyph glyph-name="exclam" unicode="!" horiz-adv-x="208" 
d="M79 658h48l-4 -479h-40zM70 35c0 27 14 36 34 36c22 0 34 -9 34 -36c0 -25 -12 -35 -34 -35c-20 0 -34 9 -34 35z" />
    <glyph glyph-name="question" unicode="?" horiz-adv-x="459" 
d="M75 604l-10 34c26 8 91 20 161 20c113 0 178 -35 178 -152c0 -89 -54 -112 -103 -139c-43 -24 -83 -47 -83 -122v-67h-40v68c0 100 53 126 102 152c41 22 81 43 81 108c0 83 -38 116 -135 116c-59 0 -123 -11 -151 -18zM164 35c0 27 14 36 34 36c22 0 34 -9 34 -36
c0 -25 -12 -35 -34 -35c-20 0 -34 9 -34 35z" />
    <glyph glyph-name="comma" unicode="," horiz-adv-x="225" 
d="M100 70h50l-80 -220h-29z" />
    <glyph glyph-name="hyphen" unicode="-" horiz-adv-x="367" 
d="M66 252v35h235v-35h-235z" />
    <glyph glyph-name="period" unicode="." horiz-adv-x="236" 
d="M80 35c0 29 16 40 39 40c24 0 37 -11 37 -40c0 -28 -13 -40 -37 -40c-23 0 -39 11 -39 40z" />
    <glyph glyph-name="slash" unicode="/" horiz-adv-x="355" 
d="M30 -72l252 807h43l-253 -807h-42z" />
    <glyph glyph-name="backslash" unicode="\" horiz-adv-x="355" 
d="M73 735l252 -807h-42l-253 807h43z" />
    <glyph glyph-name="semicolon" unicode=";" horiz-adv-x="225" 
d="M100 70h50l-80 -220h-29zM80 387c0 29 16 40 39 40c24 0 37 -11 37 -40c0 -28 -13 -40 -37 -40c-23 0 -39 11 -39 40z" />
    <glyph glyph-name="colon" unicode=":" horiz-adv-x="236" 
d="M80 35c0 29 16 40 39 40c24 0 37 -11 37 -40c0 -28 -13 -40 -37 -40c-23 0 -39 11 -39 40zM80 387c0 29 16 40 39 40c24 0 37 -11 37 -40c0 -28 -13 -40 -37 -40c-23 0 -39 11 -39 40z" />
    <glyph glyph-name="endash" unicode="&#x2013;" horiz-adv-x="507" 
d="M66 252v35h375v-35h-375z" />
    <glyph glyph-name="emdash" unicode="&#x2014;" horiz-adv-x="837" 
d="M66 252v35h705v-35h-705z" />
    <glyph glyph-name="minus" unicode="&#x2212;" horiz-adv-x="618" 
d="M70 322h478v-35h-478v35z" />
    <glyph glyph-name="plus" unicode="+" horiz-adv-x="610" 
d="M286 542h38v-220h220v-35h-220v-220h-38v220h-220v35h220v220z" />
    <glyph glyph-name="bar" unicode="|" horiz-adv-x="195" 
d="M80 0v770h35v-770h-35z" />
    <glyph glyph-name="brokenbar" unicode="&#xa6;" horiz-adv-x="195" 
d="M115 497h-35v273h35v-273zM80 298h35v-298h-35v298z" />
    <glyph glyph-name="quotesingle" unicode="'" horiz-adv-x="185" 
d="M70 673h45v-40l-10 -190h-25l-10 190v40z" />
    <glyph glyph-name="quotedbl" unicode="&#x22;" horiz-adv-x="290" 
d="M70 673h45v-40l-10 -190h-25l-10 190v40zM175 673h45v-40l-10 -190h-25l-10 190v40z" />
    <glyph glyph-name="bracketleft" unicode="[" horiz-adv-x="286" 
d="M254 738v-32h-144v-834h144v-32h-184v898h184z" />
    <glyph glyph-name="bracketright" unicode="]" horiz-adv-x="286" 
d="M32 706v32h184v-898h-184v32h144v834h-144z" />
    <glyph glyph-name="asciicircum" unicode="^" horiz-adv-x="482" 
d="M223 648h43l166 -300h-42l-146 273l-151 -273h-43z" />
    <glyph glyph-name="less" unicode="&#x3c;" horiz-adv-x="505" 
d="M50 296v34l385 213v-47l-336 -183l336 -184v-47z" />
    <glyph glyph-name="equal" unicode="=" horiz-adv-x="602" 
d="M66 196v35h470v-35h-470zM66 367v35h470v-35h-470z" />
    <glyph glyph-name="greater" unicode="&#x3e;" horiz-adv-x="505" 
d="M455 330v-34l-385 -214v47l336 184l-336 183v47z" />
    <glyph glyph-name="underscore" unicode="_" horiz-adv-x="608" 
d="M40 -105v35h528v-35h-528z" />
    <glyph glyph-name="multiply" unicode="&#xd7;" horiz-adv-x="565" 
d="M97 520l185 -186l186 186l27 -27l-186 -186l186 -185l-27 -27l-186 185l-185 -185l-27 27l185 185l-185 186z" />
    <glyph glyph-name="parenleft" unicode="(" horiz-adv-x="273" 
d="M70 284c0 303 150 471 150 471l18 -14c-43 -68 -120 -201 -122 -458c-2 -250 79 -387 122 -456l-18 -14s-150 168 -150 471z" />
    <glyph glyph-name="parenright" unicode=")" horiz-adv-x="273" 
d="M203 284c0 -303 -150 -471 -150 -471l-18 14c43 69 124 206 122 456c-2 257 -79 390 -122 458l18 14s150 -168 150 -471z" />
    <glyph glyph-name="dollar" unicode="$" horiz-adv-x="543" 
d="M259 -101v105c-85 0 -161 14 -193 25l10 33c40 -10 114 -23 181 -23h2v277c-94 28 -189 58 -189 165c0 113 91 160 189 164v105h35v-104c83 -2 133 -12 154 -17l-9 -33c-30 7 -83 14 -145 15v-267c91 -29 183 -65 183 -172s-72 -158 -183 -167v-106h-35zM111 481
c0 -73 69 -100 148 -126v255c-83 -4 -148 -41 -148 -129zM434 172c0 79 -65 110 -140 134v-265c89 9 140 53 140 131z" />
    <glyph glyph-name="asterisk" unicode="*" horiz-adv-x="423" 
d="M49 437l142 64l-142 65l21 36l128 -80l-7 151h39l-6 -151l127 80l23 -36l-143 -65l141 -64l-21 -36l-127 79l6 -150h-39l7 150l-128 -79z" />
    <glyph glyph-name="ampersand" unicode="&#x26;" horiz-adv-x="734" 
d="M438 632l-7 -33c-30 11 -82 23 -149 23c-74 0 -135 -31 -135 -117c0 -85 63 -123 129 -123h28v-35h-28c-75 0 -162 -44 -162 -142c0 -126 107 -179 234 -179c129 0 240 66 240 176c0 79 -28 120 -68 165c47 36 122 77 180 100l14 -31c-41 -16 -105 -49 -141 -77
c26 -31 59 -80 59 -157c0 -115 -107 -212 -284 -212c-190 0 -278 87 -278 215c0 99 66 146 145 161c-64 15 -111 58 -111 139c0 93 71 153 178 153c78 0 129 -15 156 -26z" />
    <glyph glyph-name="percent" unicode="%" horiz-adv-x="996" 
d="M344 -72l252 807h43l-253 -807h-42zM418 514c0 -148 -71 -204 -174 -204c-102 0 -174 56 -174 204c0 150 72 204 174 204c103 0 174 -54 174 -204zM378 516c0 131 -58 170 -134 170c-75 0 -133 -39 -133 -170s58 -174 133 -174c76 0 134 43 134 174zM926 194
c0 -148 -71 -204 -174 -204c-102 0 -174 56 -174 204c0 150 72 204 174 204c103 0 174 -54 174 -204zM886 196c0 131 -58 170 -134 170c-75 0 -133 -39 -133 -170s58 -174 133 -174c76 0 134 43 134 174z" />
    <glyph glyph-name="perthousand" unicode="&#x2030;" horiz-adv-x="1420" 
d="M344 -72l252 807h43l-253 -807h-42zM418 514c0 -148 -71 -204 -174 -204c-102 0 -174 56 -174 204c0 150 72 204 174 204c103 0 174 -54 174 -204zM378 516c0 131 -58 170 -134 170c-75 0 -133 -39 -133 -170s58 -174 133 -174c76 0 134 43 134 174zM926 194
c0 -148 -71 -204 -174 -204c-102 0 -174 56 -174 204c0 150 72 204 174 204c103 0 174 -54 174 -204zM886 196c0 131 -58 170 -134 170c-75 0 -133 -39 -133 -170s58 -174 133 -174c76 0 134 43 134 174zM1350 194c0 -148 -71 -204 -174 -204c-102 0 -174 56 -174 204
c0 150 72 204 174 204c103 0 174 -54 174 -204zM1310 196c0 131 -58 170 -134 170c-75 0 -133 -39 -133 -170s58 -174 133 -174c76 0 134 43 134 174z" />
    <glyph glyph-name="numbersign" unicode="#" horiz-adv-x="627" 
d="M366 -11l31 200h-217l-31 -200h-40l31 200h-104v32h110l38 243h-119v32h124l29 174h41l-29 -174h216l29 174h41l-29 -174h104v-32h-110l-39 -243h120v-32h-125c-10 -62 -21 -136 -31 -200h-40zM225 464l-40 -243h217l39 243h-216z" />
    <glyph glyph-name="braceleft" unicode="{" horiz-adv-x="366" 
d="M283 -127h51v-33h-59c-50 0 -103 33 -103 107v207c0 60 -43 111 -112 120v38c68 8 112 55 112 118v202c0 75 51 106 102 106h60v-33h-50c-49 0 -74 -23 -74 -101v-191c0 -57 -44 -104 -104 -121c74 -19 104 -67 104 -132v-190c0 -79 33 -97 73 -97z" />
    <glyph glyph-name="braceright" unicode="}" horiz-adv-x="366" 
d="M32 -127h51c40 0 73 18 73 97v190c0 65 30 113 104 132c-60 17 -104 64 -104 121v191c0 78 -25 101 -74 101h-50v33h60c51 0 102 -31 102 -106v-202c0 -63 44 -110 112 -118v-38c-69 -9 -112 -60 -112 -120v-207c0 -74 -53 -107 -103 -107h-59v33z" />
    <glyph glyph-name="notequal" unicode="&#x2260;" horiz-adv-x="610" 
d="M70 367v35h253l89 176h43l-89 -176h174v-35h-191l-69 -136h260v-35h-277l-89 -177h-43l89 177h-150v35h167l69 136h-236z" />
    <glyph glyph-name="plusminus" unicode="&#xb1;" horiz-adv-x="610" 
d="M286 613h38v-220h220v-35h-220v-220h-38v220h-220v35h220v220zM66 35h478v-35h-478v35z" />
    <glyph glyph-name="greaterequal" unicode="&#x2265;" horiz-adv-x="532" 
d="M66 35h400v-35h-400v35zM451 330v-34l-385 -214v47l336 184l-336 183v47z" />
    <glyph glyph-name="lessequal" unicode="&#x2264;" horiz-adv-x="532" 
d="M66 35h400v-35h-400v35zM81 296v34l385 213v-47l-336 -183l336 -184v-47z" />
    <glyph glyph-name="infinity" unicode="&#x221e;" horiz-adv-x="810" 
d="M428 300c36 -54 97 -122 175 -122c76 0 124 47 124 121c0 76 -51 121 -123 121c-74 0 -140 -65 -176 -120zM404 335c44 57 112 121 199 121c96 0 167 -57 167 -153c0 -100 -78 -161 -169 -161c-88 0 -154 62 -197 122c-44 -60 -111 -122 -200 -122
c-91 0 -164 56 -164 154c0 99 78 160 172 160c84 0 150 -63 192 -121zM382 300c-39 60 -97 120 -175 120c-72 0 -124 -46 -124 -119c0 -75 48 -123 123 -123c73 0 139 66 176 122z" />
    <glyph glyph-name="section" unicode="&#xa7;" horiz-adv-x="475" 
d="M405 276c0 -55 -36 -103 -107 -121c56 -24 103 -59 103 -129s-58 -128 -173 -128c-66 0 -131 17 -157 26l8 31c22 -5 85 -21 146 -21c80 0 133 30 133 92c0 76 -72 94 -149 120c-70 23 -139 50 -139 133c0 71 53 111 121 124c-62 22 -117 51 -117 126
c0 89 83 129 174 129c68 0 117 -10 133 -15l-9 -32c-27 5 -80 11 -123 11c-81 0 -132 -32 -132 -93c0 -68 61 -81 147 -110c72 -24 141 -57 141 -143zM362 276c0 51 -31 76 -78 95c-59 24 -171 -10 -171 -92c0 -56 39 -74 101 -95c67 -23 148 19 148 92z" />
    <glyph glyph-name="sterling" unicode="&#xa3;" horiz-adv-x="500" 
d="M86 294v35h79c-23 32 -70 92 -70 165c0 101 67 164 192 164c61 0 109 -12 138 -22v-34c-28 10 -87 21 -138 21c-97 0 -148 -45 -148 -129c0 -68 49 -131 75 -165h162l5 -35h-162c0 -109 -64 -216 -103 -257h334v-37h-384v36c58 69 111 164 111 258h-91z" />
    <glyph glyph-name="cent" unicode="&#xa2;" horiz-adv-x="436" 
d="M232 600h38v-100c68 -2 111 -24 131 -35l-11 -30c-24 10 -65 28 -120 29v-438c49 1 98 15 115 23l12 -32c-23 -9 -72 -24 -127 -26v-102h-38v102c-113 7 -182 69 -182 251c0 180 65 248 182 257v101zM93 242c0 -152 40 -206 139 -215v435c-100 -9 -139 -69 -139 -220z
" />
    <glyph glyph-name="bullet" unicode="&#x2022;" horiz-adv-x="387" 
d="M100 293c0 70 37 97 93 97c55 0 94 -27 94 -97c0 -72 -39 -98 -94 -98c-56 0 -93 26 -93 98z" />
    <glyph glyph-name="paragraph" unicode="&#xb6;" horiz-adv-x="575" 
d="M255 -100v355c-107 0 -195 76 -195 195s87 198 195 198h250v-748h-40v711h-170v-711h-40z" />
    <glyph glyph-name="germandbls" unicode="&#xdf;" horiz-adv-x="642" 
d="M549 118c0 139 -263 92 -263 253c0 103 140 99 140 199c0 73 -56 94 -132 94h-54c-61 0 -84 -30 -84 -85v-579h-40v453l-70 5v32h70l-1 86c0 75 35 122 125 122h52c115 0 177 -56 177 -128c0 -115 -141 -117 -141 -199c0 -130 264 -89 264 -253c0 -70 -58 -128 -173 -128
c-66 0 -131 17 -157 26l8 31c22 -5 85 -21 146 -21c80 0 133 33 133 92z" />
    <glyph glyph-name="quoteright" unicode="&#x2019;" horiz-adv-x="176" 
d="M95 671h46l-75 -250h-26z" />
    <glyph glyph-name="quoteleft" unicode="&#x2018;" horiz-adv-x="176" 
d="M35 671h46l55 -250h-26z" />
    <glyph glyph-name="quotedblleft" unicode="&#x201c;" horiz-adv-x="296" 
d="M35 671h46l55 -250h-26zM155 671h46l55 -250h-26z" />
    <glyph glyph-name="quotedblright" unicode="&#x201d;" horiz-adv-x="296" 
d="M215 671h46l-75 -250h-26zM95 671h46l-75 -250h-26z" />
    <glyph glyph-name="divide" unicode="&#xf7;" horiz-adv-x="610" 
d="M66 322h478v-35h-478v35zM268 114c0 29 16 40 39 40c24 0 37 -11 37 -40c0 -28 -13 -40 -37 -40c-23 0 -39 11 -39 40zM268 500c0 29 16 40 39 40c24 0 37 -11 37 -40c0 -28 -13 -40 -37 -40c-23 0 -39 11 -39 40z" />
    <glyph glyph-name="daggerdbl" unicode="&#x2021;" horiz-adv-x="553" 
d="M66 80v36h190v338h-190v36h190v220h40v-220h191v-36h-191v-338h191v-36h-191v-306h-40v306h-190z" />
    <glyph glyph-name="dagger" unicode="&#x2020;" horiz-adv-x="553" 
d="M256 -226v680h-190v36h190v220h40v-220h191v-36h-191v-680h-40z" />
    <glyph glyph-name="florin" unicode="&#x192;" horiz-adv-x="434" 
d="M215 454l-94 -529c-15 -87 -75 -151 -165 -151h-21l12 34h5c80 0 118 53 128 109l95 536l-70 5l6 32h70l14 86c13 75 57 122 147 122h77l-15 -34h-68c-61 0 -90 -30 -99 -85l-16 -89h153l-13 -36h-146z" />
    <glyph glyph-name="at" unicode="@" horiz-adv-x="1014" 
d="M717 506l-69 -395h47c154 0 205 99 205 261c0 219 -106 312 -323 312c-275 0 -455 -199 -455 -477c0 -269 160 -327 404 -327h48l4 -35h-52c-287 0 -446 82 -446 362c0 305 198 512 497 512c255 0 362 -126 362 -347c0 -176 -72 -296 -243 -296h-92l18 100
c-36 -52 -107 -109 -181 -109c-112 0 -164 59 -130 222l4 19c32 150 123 222 241 222c76 0 131 -12 161 -24zM630 224l46 256c-24 9 -76 14 -125 14c-96 0 -167 -59 -194 -186l-4 -19c-29 -137 -3 -186 97 -186c74 0 147 81 180 121z" />
    <glyph glyph-name="thorn" unicode="&#xfe;" horiz-adv-x="519" 
d="M66 -227v875h38v-216c40 35 103 68 180 68c123 0 185 -64 185 -245v-20c0 -164 -98 -245 -222 -245c-58 0 -105 6 -141 18v-235h-40zM106 391v-347c29 -13 87 -18 141 -18c105 0 179 67 179 209v20c0 152 -36 209 -146 209c-70 0 -143 -40 -174 -73z" />
    <glyph glyph-name="Thorn" unicode="&#xde;" horiz-adv-x="557" 
d="M70 648h42v-102h180c157 0 212 -66 212 -198s-61 -206 -212 -206h-180v-142h-42v648zM292 509h-180v-333c49 2 129 3 180 3c121 1 168 49 168 169c0 121 -42 161 -168 161z" />
    <glyph glyph-name="yen" unicode="&#xa5;" horiz-adv-x="532" 
d="M101 252v35h114l-195 361h48l187 -361h21l188 361h48l-196 -361h111v-35h-140v-86h140v-35h-140v-131h-42v131h-144v35h144v86h-144z" />
    <glyph glyph-name="mu" unicode="&#xb5;" horiz-adv-x="506" 
d="M66 -226v716h40v-338c0 -87 31 -126 112 -126s156 48 182 72v392h40v-490h-33l-5 59c-21 -16 -91 -69 -198 -69c-41 0 -76 10 -98 43v-259h-40z" />
    <glyph glyph-name="mu" unicode="&#x3bc;" horiz-adv-x="506" 
d="M66 -226v716h40v-338c0 -87 31 -126 112 -126s156 48 182 72v392h40v-490h-33l-5 59c-21 -16 -91 -69 -198 -69c-41 0 -76 10 -98 43v-259h-40z" />
    <glyph glyph-name="summation" unicode="&#x2211;" horiz-adv-x="617" 
d="M75 -74v35l268 347l-268 315v35h482v-37h-433l271 -313l-269 -345h431v-37h-482z" />
    <glyph glyph-name="product" unicode="&#x220f;" horiz-adv-x="739" 
d="M140 -74v746h-120v37h699v-37h-119v-746h-40v746h-380v-746h-40z" />
    <glyph glyph-name="integral" unicode="&#x222b;" horiz-adv-x="362" 
d="M179 737v-828c0 -81 -56 -115 -113 -115h-76v37h76c38 0 73 24 73 85v828c0 81 55 115 112 115h86v-37h-86c-38 0 -72 -24 -72 -85z" />
    <glyph glyph-name="partialdiff" unicode="&#x2202;" horiz-adv-x="542" 
d="M120 680l-6 35c306 -3 358 -115 358 -407v-62c0 -157 -44 -256 -205 -256c-145 0 -207 80 -207 207c0 123 52 209 189 209c58 0 127 -14 181 -33c-5 219 -60 303 -310 307zM430 245v91c-46 17 -114 32 -180 32c-102 0 -144 -57 -144 -171c0 -132 67 -171 161 -171
c112 0 163 54 163 219z" />
    <glyph glyph-name="pi" unicode="&#x3c0;" horiz-adv-x="633" 
d="M62 453v37h509v-37h-88v-295c0 -83 20 -117 84 -124v-39c-106 6 -124 70 -124 159v299h-253v-453h-40v453h-88z" />
    <glyph glyph-name="logicalnot" unicode="&#xac;" horiz-adv-x="690" 
d="M580 89v202h-520v37h560v-239h-40z" />
    <glyph glyph-name="exclamdown" unicode="&#xa1;" horiz-adv-x="208" 
d="M129 -94h-48l4 479h40zM138 529c0 -27 -14 -36 -34 -36c-22 0 -34 9 -34 36c0 25 12 35 34 35c20 0 34 -9 34 -35z" />
    <glyph glyph-name="questiondown" unicode="&#xbf;" horiz-adv-x="459" 
d="M394 -41l10 -34c-26 -8 -91 -20 -161 -20c-113 0 -178 35 -178 152c0 89 54 112 103 139c43 24 83 47 83 122v67h40v-68c0 -100 -53 -126 -102 -152c-41 -22 -81 -43 -81 -108c0 -83 38 -116 135 -116c59 0 123 11 151 18zM305 528c0 -27 -14 -36 -34 -36
c-22 0 -34 9 -34 36c0 25 12 35 34 35c20 0 34 -9 34 -35z" />
    <glyph glyph-name="fraction" unicode="&#x2044;" horiz-adv-x="355" 
d="M30 -72l252 807h43l-253 -807h-42z" />
    <glyph glyph-name="guilsinglleft" unicode="&#x2039;" horiz-adv-x="301" 
d="M118 243l133 -189h-46l-135 189l135 190h46z" />
    <glyph glyph-name="guilsinglright" unicode="&#x203a;" horiz-adv-x="301" 
d="M50 54l133 189l-133 190h46l135 -190l-135 -189h-46z" />
    <glyph glyph-name="Euro" unicode="&#x20ac;" horiz-adv-x="572" 
d="M65 391v35h56c21 174 109 232 245 232c85 0 127 -14 154 -26l-11 -34c-35 11 -79 23 -139 23c-110 0 -186 -29 -205 -195h175l-6 -35h-171c-1 -18 -2 -37 -2 -57v-20c0 -19 0 -36 1 -52h178l-6 -35h-169c20 -170 100 -200 205 -200c57 0 102 10 142 16l10 -36
c-39 -7 -87 -17 -156 -17c-133 0 -225 56 -246 237h-55v35h52c-1 16 -1 34 -1 52v20c0 20 1 39 2 57h-53z" />
    <glyph glyph-name="quotesinglbase" unicode="&#x201a;" horiz-adv-x="176" 
d="M95 100h46l-75 -250h-26z" />
    <glyph glyph-name="quotedblbase" unicode="&#x201e;" horiz-adv-x="296" 
d="M215 100h46l-75 -250h-26zM95 100h46l-75 -250h-26z" />
    <glyph glyph-name="lozenge" unicode="&#x25ca;" horiz-adv-x="598" 
d="M287 698h24l239 -372l-239 -372h-24l-239 372zM299 654l-203 -328l203 -327l202 327z" />
    <glyph glyph-name="radical" unicode="&#x221a;" horiz-adv-x="572" 
d="M287 0l-130 339h-102v35h130l109 -298h2l197 604h39l-224 -680h-21z" />
    <glyph glyph-name="ellipsis" unicode="&#x2026;" horiz-adv-x="648" 
d="M80 35c0 29 16 40 39 40c24 0 37 -11 37 -40c0 -28 -13 -40 -37 -40c-23 0 -39 11 -39 40zM286 35c0 29 16 40 39 40c24 0 37 -11 37 -40c0 -28 -13 -40 -37 -40c-23 0 -39 11 -39 40zM492 35c0 29 16 40 39 40c24 0 37 -11 37 -40c0 -28 -13 -40 -37 -40
c-23 0 -39 11 -39 40z" />
    <glyph glyph-name="guillemotleft" unicode="&#xab;" horiz-adv-x="450" 
d="M267 243l133 -189h-46l-135 189l135 190h46zM118 243l133 -189h-46l-135 189l135 190h46z" />
    <glyph glyph-name="guillemotright" unicode="&#xbb;" horiz-adv-x="450" 
d="M50 54l133 189l-133 190h46l135 -190l-135 -189h-46zM199 54l133 189l-133 190h46l135 -190l-135 -189h-46z" />
    <glyph glyph-name="Delta" unicode="&#x394;" horiz-adv-x="613" 
d="M559 0h-505l224 658h57zM504 37l-199 597l-195 -597h394z" />
    <glyph glyph-name="Delta" unicode="&#x2206;" horiz-adv-x="613" 
d="M559 0h-505l224 658h57zM504 37l-199 597l-195 -597h394z" />
    <glyph glyph-name="periodcentered" unicode="&#xb7;" horiz-adv-x="236" 
d="M80 306c0 29 16 40 39 40c24 0 37 -11 37 -40c0 -28 -13 -40 -37 -40c-23 0 -39 11 -39 40z" />
    <glyph glyph-name="registered" unicode="&#xae;" horiz-adv-x="888" 
d="M298 590h150c109 0 149 -44 149 -128c0 -76 -43 -105 -90 -113c42 -10 69 -41 82 -87l34 -120h-45l-32 119c-13 49 -50 71 -98 71h-106v-190h-44v448zM448 555h-106v-189l91 1c91 0 119 25 119 95c0 66 -23 93 -104 93zM80 355c0 244 138 365 364 365
c227 0 364 -121 364 -365c0 -269 -165 -365 -364 -365c-223 0 -364 119 -364 365zM124 355c0 -228 120 -329 320 -329c178 0 320 80 320 329c0 222 -113 329 -320 329c-203 0 -320 -107 -320 -329z" />
    <glyph glyph-name="copyright" unicode="&#xa9;" horiz-adv-x="888" 
d="M565 181l9 -33c-29 -5 -82 -13 -130 -13c-116 0 -181 51 -181 222v12c0 169 62 222 181 222c59 0 104 -12 129 -21l-11 -32c-30 8 -76 19 -115 19c-90 0 -139 -26 -139 -188v-12c0 -161 53 -187 139 -187c37 0 88 7 118 11zM80 355c0 244 138 365 364 365
c227 0 364 -121 364 -365c0 -269 -165 -365 -364 -365c-223 0 -364 119 -364 365zM124 355c0 -228 120 -329 320 -329c178 0 320 80 320 329c0 222 -113 329 -320 329c-203 0 -320 -107 -320 -329z" />
    <glyph glyph-name="Omega" unicode="&#x3a9;" horiz-adv-x="721" 
d="M70 0v37h149c-61 52 -128 156 -128 301c0 197 79 320 276 320c220 0 274 -150 274 -320c0 -150 -67 -249 -128 -301h138v-37h-188v39c81 63 134 167 134 299c0 159 -46 284 -230 284c-185 0 -231 -125 -231 -284c0 -134 52 -238 132 -299v-39h-198z" />
    <glyph glyph-name="Omega" unicode="&#x2126;" horiz-adv-x="721" 
d="M70 0v37h149c-61 52 -128 156 -128 301c0 197 79 320 276 320c220 0 274 -150 274 -320c0 -150 -67 -249 -128 -301h138v-37h-188v39c81 63 134 167 134 299c0 159 -46 284 -230 284c-185 0 -231 -125 -231 -284c0 -134 52 -238 132 -299v-39h-198z" />
    <glyph glyph-name="degree" unicode="&#xb0;" horiz-adv-x="361" 
d="M50 525c0 87 45 133 131 133c85 0 130 -46 130 -133c0 -85 -46 -134 -130 -134s-131 49 -131 134zM85 525c0 -68 31 -102 96 -102c62 0 97 34 97 102c0 64 -30 105 -97 105c-68 0 -96 -41 -96 -105z" />
    <glyph glyph-name="oe" unicode="&#x153;" horiz-adv-x="1017" 
d="M791 48l11 -31c-22 -10 -82 -27 -154 -27c-110 0 -166 46 -192 116c-31 -83 -94 -116 -193 -116c-145 0 -213 72 -213 255c0 181 68 255 213 255c97 0 161 -34 192 -114c27 78 86 114 196 114c150 0 177 -95 177 -207c0 -22 -3 -44 -6 -52h-345c4 -171 57 -215 171 -215
c64 0 118 12 143 22zM263 26c126 0 171 51 171 219c0 163 -45 219 -171 219c-125 0 -170 -56 -170 -219c0 -168 45 -219 170 -219zM790 275c0 126 -21 189 -139 189c-117 0 -162 -33 -174 -189h313z" />
    <glyph glyph-name="ae" unicode="&#xe6;" horiz-adv-x="813" 
d="M729 48l11 -31c-22 -10 -82 -27 -154 -27c-98 0 -153 36 -182 92c-22 -27 -104 -92 -211 -92c-96 0 -145 71 -145 154c0 89 76 136 253 136h74v51c0 97 -38 133 -118 133c-68 0 -140 -24 -160 -33l-8 34c22 11 89 35 173 35c68 0 121 -21 142 -88c31 61 89 88 185 88
c150 0 177 -96 177 -202c0 -22 -3 -44 -6 -52h-345c4 -171 57 -220 171 -220c64 0 118 12 143 22zM193 26c86 0 168 57 197 88c-13 38 -17 81 -17 127v5h-55c-183 0 -227 -40 -227 -99c0 -66 34 -121 102 -121zM728 280c0 121 -21 184 -139 184c-117 0 -162 -28 -174 -184
h313z" />
    <glyph glyph-name="a.alt" horiz-adv-x="513" 
d="M443 474v-474h-40v58c-40 -35 -95 -68 -172 -68c-123 0 -181 64 -181 245v20c0 164 94 245 218 245c83 0 139 -13 175 -26zM403 99v347c-29 13 -81 18 -135 18c-105 0 -175 -67 -175 -209v-20c0 -152 32 -209 142 -209c70 0 137 40 168 73z" />
    <glyph glyph-name="AE" unicode="&#xc6;" horiz-adv-x="932" 
d="M871 648v-37h-309v-260h288v-35h-288v-278h321v-38h-363v184h-313l-135 -184h-52l481 648h370zM520 610l-287 -386h287v386z" />
    <glyph glyph-name="OE" unicode="&#x152;" horiz-adv-x="810" 
d="M748 648v-37h-309v-260h288v-35h-288v-278h321v-38h-333c-27 0 -55 -10 -107 -10c-182 0 -267 97 -267 334c0 238 85 334 267 334c42 0 80 -10 107 -10h321zM397 35v578c-23 6 -48 8 -77 8c-158 0 -223 -78 -223 -297c0 -222 65 -297 223 -297c29 0 54 3 77 8z" />
    <glyph glyph-name="grave" unicode="`" horiz-adv-x="311" 
d="M123 700l118 -135h-35l-136 135h53z" />
    <glyph glyph-name="acute" unicode="&#xb4;" horiz-adv-x="311" 
d="M70 565l118 135h53l-136 -135h-35z" />
    <glyph glyph-name="agrave" unicode="&#xe0;" horiz-adv-x="485" 
d="M97 431l-8 34c21 10 90 35 174 35c95 0 152 -44 152 -161v-339h-33l-4 59c-21 -16 -92 -69 -185 -69c-96 0 -145 71 -145 154c0 89 76 143 253 143h74v49c0 73 -26 128 -115 128c-69 0 -142 -24 -163 -33zM375 99v154h-57c-183 0 -227 -48 -227 -107
c0 -66 34 -120 102 -120c77 0 152 48 182 73zM210 700l118 -135h-35l-136 135h53z" />
    <glyph glyph-name="aacute" unicode="&#xe1;" horiz-adv-x="485" 
d="M97 431l-8 34c21 10 90 35 174 35c95 0 152 -44 152 -161v-339h-33l-4 59c-21 -16 -92 -69 -185 -69c-96 0 -145 71 -145 154c0 89 76 143 253 143h74v49c0 73 -26 128 -115 128c-69 0 -142 -24 -163 -33zM375 99v154h-57c-183 0 -227 -48 -227 -107
c0 -66 34 -120 102 -120c77 0 152 48 182 73zM157 565l118 135h53l-136 -135h-35z" />
    <glyph glyph-name="eacute" unicode="&#xe9;" horiz-adv-x="490" 
d="M406 48l11 -31c-22 -10 -82 -27 -154 -27c-180 0 -213 116 -213 251c0 176 50 259 216 259c150 0 177 -95 177 -207c0 -22 -2 -44 -5 -52h-346c4 -171 57 -215 171 -215c64 0 118 12 143 22zM405 275c0 126 -21 189 -139 189c-117 0 -162 -33 -174 -189h313zM219 565
l118 135h53l-136 -135h-35z" />
    <glyph glyph-name="egrave" unicode="&#xe8;" horiz-adv-x="490" 
d="M406 48l11 -31c-22 -10 -82 -27 -154 -27c-180 0 -213 116 -213 251c0 176 50 259 216 259c150 0 177 -95 177 -207c0 -22 -2 -44 -5 -52h-346c4 -171 57 -215 171 -215c64 0 118 12 143 22zM405 275c0 126 -21 189 -139 189c-117 0 -162 -33 -174 -189h313zM160 700
l118 -135h-35l-136 135h53z" />
    <glyph glyph-name="dotlessi" unicode="&#x131;" horiz-adv-x="193" 
d="M77 490h40v-490h-40v490z" />
    <glyph glyph-name="iacute" unicode="&#xed;" horiz-adv-x="193" 
d="M77 490h40v-490h-40v490zM81 565l118 135h53l-136 -135h-35z" />
    <glyph glyph-name="igrave" unicode="&#xec;" horiz-adv-x="193" 
d="M77 490h40v-490h-40v490zM-6 700l118 -135h-35l-136 135h53z" />
    <glyph glyph-name="uacute" unicode="&#xfa;" 
d="M444 0h-33l-5 59c-21 -16 -91 -69 -198 -69c-86 0 -138 46 -138 155v345h40v-338c0 -87 31 -126 112 -126s156 48 182 72v392h40v-490zM221 565l118 135h53l-136 -135h-35z" />
    <glyph glyph-name="ugrave" unicode="&#xf9;" 
d="M444 0h-33l-5 59c-21 -16 -91 -69 -198 -69c-86 0 -138 46 -138 155v345h40v-338c0 -87 31 -126 112 -126s156 48 182 72v392h40v-490zM174 700l118 -135h-35l-136 135h53z" />
    <glyph glyph-name="oacute" unicode="&#xf3;" horiz-adv-x="527" 
d="M263 -10c-151 0 -213 72 -213 255c0 181 62 255 213 255s214 -74 214 -255c0 -183 -63 -255 -214 -255zM263 26c126 0 171 51 171 219c0 163 -45 219 -171 219c-125 0 -170 -56 -170 -219c0 -168 45 -219 170 -219zM238 565l118 135h53l-136 -135h-35z" />
    <glyph glyph-name="ograve" unicode="&#xf2;" horiz-adv-x="527" 
d="M263 -10c-151 0 -213 72 -213 255c0 181 62 255 213 255s214 -74 214 -255c0 -183 -63 -255 -214 -255zM263 26c126 0 171 51 171 219c0 163 -45 219 -171 219c-125 0 -170 -56 -170 -219c0 -168 45 -219 170 -219zM171 700l118 -135h-35l-136 135h53z" />
    <glyph glyph-name="Eacute" unicode="&#xc9;" horiz-adv-x="483" 
d="M421 648v-37h-309v-260h288v-35h-288v-278h321v-38h-363v648h351zM196 723l118 135h53l-136 -135h-35z" />
    <glyph glyph-name="Agrave" unicode="&#xc0;" horiz-adv-x="586" 
d="M326 648l236 -648h-49l-66 186h-308l-67 -186h-48l239 648h63zM293 615l-141 -391h281l-138 391h-2zM190 858l118 -135h-35l-136 135h53z" />
    <glyph glyph-name="Yacute" unicode="&#xdd;" horiz-adv-x="532" 
d="M245 0v232l-225 416h48l197 -379h2l197 379h48l-225 -416v-232h-42zM230 723l118 135h53l-136 -135h-35z" />
    <glyph glyph-name="yacute" unicode="&#xfd;" horiz-adv-x="492" 
d="M472 490l-217 -549c-45 -114 -60 -168 -195 -168v35c97 0 124 34 165 161l11 34l-27 12l-189 475h46l179 -458h3l179 458h45zM210 565l118 135h53l-136 -135h-35z" />
    <glyph glyph-name="Aacute" unicode="&#xc1;" horiz-adv-x="586" 
d="M326 648l236 -648h-49l-66 186h-308l-67 -186h-48l239 648h63zM293 615l-141 -391h281l-138 391h-2zM277 723l118 135h53l-136 -135h-35z" />
    <glyph glyph-name="Egrave" unicode="&#xc8;" horiz-adv-x="483" 
d="M421 648v-37h-309v-260h288v-35h-288v-278h321v-38h-363v648h351zM179 858l118 -135h-35l-136 135h53z" />
    <glyph glyph-name="Iacute" unicode="&#xcd;" horiz-adv-x="182" 
d="M70 649h42v-649h-42v649zM76 723l118 135h53l-136 -135h-35z" />
    <glyph glyph-name="Igrave" unicode="&#xcc;" horiz-adv-x="182" 
d="M70 649h42v-649h-42v649zM-21 858l118 -135h-35l-136 135h53z" />
    <glyph glyph-name="Oacute" unicode="&#xd3;" horiz-adv-x="637" 
d="M53 324c0 238 85 334 267 334c178 0 264 -92 264 -334c0 -237 -82 -334 -264 -334s-267 97 -267 334zM97 324c0 -222 65 -297 223 -297c156 0 220 75 220 297c0 219 -64 297 -220 297c-158 0 -223 -78 -223 -297zM283 723l118 135h53l-136 -135h-35z" />
    <glyph glyph-name="Ograve" unicode="&#xd2;" horiz-adv-x="637" 
d="M53 324c0 238 85 334 267 334c178 0 264 -92 264 -334c0 -237 -82 -334 -264 -334s-267 97 -267 334zM97 324c0 -222 65 -297 223 -297c156 0 220 75 220 297c0 219 -64 297 -220 297c-158 0 -223 -78 -223 -297zM236 858l118 -135h-35l-136 135h53z" />
    <glyph glyph-name="Uacute" unicode="&#xda;" horiz-adv-x="600" 
d="M70 171v477h42v-468c0 -119 72 -153 187 -153s189 34 189 153v468h42v-477c0 -124 -83 -181 -231 -181c-147 0 -229 57 -229 181zM254 723l118 135h53l-136 -135h-35z" />
    <glyph glyph-name="Ugrave" unicode="&#xd9;" horiz-adv-x="600" 
d="M70 171v477h42v-468c0 -119 72 -153 187 -153s189 34 189 153v468h42v-477c0 -124 -83 -181 -231 -181c-147 0 -229 57 -229 181zM227 858l118 -135h-35l-136 135h53z" />
    <glyph glyph-name="circumflex" unicode="&#x2c6;" horiz-adv-x="429" 
d="M236 700l123 -135h-44l-101 108l-100 -108h-44l123 135h43z" />
    <glyph glyph-name="acircumflex" unicode="&#xe2;" horiz-adv-x="485" 
d="M97 431l-8 34c21 10 90 35 174 35c95 0 152 -44 152 -161v-339h-33l-4 59c-21 -16 -92 -69 -185 -69c-96 0 -145 71 -145 154c0 89 76 143 253 143h74v49c0 73 -26 128 -115 128c-69 0 -142 -24 -163 -33zM375 99v154h-57c-183 0 -227 -48 -227 -107
c0 -66 34 -120 102 -120c77 0 152 48 182 73zM264 700l123 -135h-44l-101 108l-100 -108h-44l123 135h43z" />
    <glyph glyph-name="ecircumflex" unicode="&#xea;" horiz-adv-x="490" 
d="M406 48l11 -31c-22 -10 -82 -27 -154 -27c-180 0 -213 116 -213 251c0 176 50 259 216 259c150 0 177 -95 177 -207c0 -22 -2 -44 -5 -52h-346c4 -171 57 -215 171 -215c64 0 118 12 143 22zM405 275c0 126 -21 189 -139 189c-117 0 -162 -33 -174 -189h313zM276 700
l123 -135h-44l-101 108l-100 -108h-44l123 135h43z" />
    <glyph glyph-name="icircumflex" unicode="&#xee;" horiz-adv-x="193" 
d="M77 490h40v-490h-40v490zM118 700l123 -135h-44l-101 108l-100 -108h-44l123 135h43z" />
    <glyph glyph-name="ocircumflex" unicode="&#xf4;" horiz-adv-x="527" 
d="M263 -10c-151 0 -213 72 -213 255c0 181 62 255 213 255s214 -74 214 -255c0 -183 -63 -255 -214 -255zM263 26c126 0 171 51 171 219c0 163 -45 219 -171 219c-125 0 -170 -56 -170 -219c0 -168 45 -219 170 -219zM285 700l123 -135h-44l-101 108l-100 -108h-44l123 135
h43z" />
    <glyph glyph-name="ucircumflex" unicode="&#xfb;" 
d="M444 0h-33l-5 59c-21 -16 -91 -69 -198 -69c-86 0 -138 46 -138 155v345h40v-338c0 -87 31 -126 112 -126s156 48 182 72v392h40v-490zM278 700l123 -135h-44l-101 108l-100 -108h-44l123 135h43z" />
    <glyph glyph-name="Ecircumflex" unicode="&#xca;" horiz-adv-x="483" 
d="M421 648v-37h-309v-260h288v-35h-288v-278h321v-38h-363v648h351zM263 858l123 -135h-44l-101 108l-100 -108h-44l123 135h43z" />
    <glyph glyph-name="Acircumflex" unicode="&#xc2;" horiz-adv-x="586" 
d="M326 648l236 -648h-49l-66 186h-308l-67 -186h-48l239 648h63zM293 615l-141 -391h281l-138 391h-2zM314 858l123 -135h-44l-101 108l-100 -108h-44l123 135h43z" />
    <glyph glyph-name="Icircumflex" unicode="&#xce;" horiz-adv-x="182" 
d="M70 649h42v-649h-42v649zM113 858l123 -135h-44l-101 108l-100 -108h-44l123 135h43z" />
    <glyph glyph-name="macron" unicode="&#xaf;" horiz-adv-x="419" 
d="M80 593v32h259v-32h-259z" />
    <glyph glyph-name="caron" unicode="&#x2c7;" horiz-adv-x="429" 
d="M359 700l-125 -135h-39l-125 135h44l100 -111l101 111h44z" />
    <glyph glyph-name="dotaccent" unicode="&#x2d9;" horiz-adv-x="193" 
d="M70 612c0 21 9 28 25 28c18 0 28 -7 28 -28c0 -18 -10 -27 -28 -27c-16 0 -25 7 -25 27z" />
    <glyph glyph-name="dieresis" unicode="&#xa8;" horiz-adv-x="388" 
d="M73 626c0 22 9 30 26 30c19 0 29 -8 29 -30c0 -18 -10 -28 -29 -28c-17 0 -26 8 -26 28zM260 626c0 22 9 30 26 30c19 0 29 -8 29 -30c0 -18 -10 -28 -29 -28c-17 0 -26 8 -26 28z" />
    <glyph glyph-name="adieresis" unicode="&#xe4;" horiz-adv-x="485" 
d="M97 431l-8 34c21 10 90 35 174 35c95 0 152 -44 152 -161v-339h-33l-4 59c-21 -16 -92 -69 -185 -69c-96 0 -145 71 -145 154c0 89 76 143 253 143h74v49c0 73 -26 128 -115 128c-69 0 -142 -24 -163 -33zM375 99v154h-57c-183 0 -227 -48 -227 -107
c0 -66 34 -120 102 -120c77 0 152 48 182 73zM129 626c0 22 9 30 26 30c19 0 29 -8 29 -30c0 -18 -10 -28 -29 -28c-17 0 -26 8 -26 28zM316 626c0 22 9 30 26 30c19 0 29 -8 29 -30c0 -18 -10 -28 -29 -28c-17 0 -26 8 -26 28z" />
    <glyph glyph-name="edieresis" unicode="&#xeb;" horiz-adv-x="490" 
d="M406 48l11 -31c-22 -10 -82 -27 -154 -27c-180 0 -213 116 -213 251c0 176 50 259 216 259c150 0 177 -95 177 -207c0 -22 -2 -44 -5 -52h-346c4 -171 57 -215 171 -215c64 0 118 12 143 22zM405 275c0 126 -21 189 -139 189c-117 0 -162 -33 -174 -189h313zM134 626
c0 22 9 30 26 30c19 0 29 -8 29 -30c0 -18 -10 -28 -29 -28c-17 0 -26 8 -26 28zM321 626c0 22 9 30 26 30c19 0 29 -8 29 -30c0 -18 -10 -28 -29 -28c-17 0 -26 8 -26 28z" />
    <glyph glyph-name="idieresis" unicode="&#xef;" horiz-adv-x="193" 
d="M77 490h40v-490h-40v490zM-24 626c0 22 9 30 26 30c19 0 29 -8 29 -30c0 -18 -10 -28 -29 -28c-17 0 -26 8 -26 28zM163 626c0 22 9 30 26 30c19 0 29 -8 29 -30c0 -18 -10 -28 -29 -28c-17 0 -26 8 -26 28z" />
    <glyph glyph-name="Odieresis" unicode="&#xd6;" horiz-adv-x="637" 
d="M53 324c0 238 85 334 267 334c178 0 264 -92 264 -334c0 -237 -82 -334 -264 -334s-267 97 -267 334zM97 324c0 -222 65 -297 223 -297c156 0 220 75 220 297c0 219 -64 297 -220 297c-158 0 -223 -78 -223 -297zM197 784c0 22 9 30 26 30c19 0 29 -8 29 -30
c0 -18 -10 -28 -29 -28c-17 0 -26 8 -26 28zM384 784c0 22 9 30 26 30c19 0 29 -8 29 -30c0 -18 -10 -28 -29 -28c-17 0 -26 8 -26 28z" />
    <glyph glyph-name="Adieresis" unicode="&#xc4;" horiz-adv-x="586" 
d="M326 648l236 -648h-49l-66 186h-308l-67 -186h-48l239 648h63zM293 615l-141 -391h281l-138 391h-2zM172 784c0 22 9 30 26 30c19 0 29 -8 29 -30c0 -18 -10 -28 -29 -28c-17 0 -26 8 -26 28zM359 784c0 22 9 30 26 30c19 0 29 -8 29 -30c0 -18 -10 -28 -29 -28
c-17 0 -26 8 -26 28z" />
    <glyph glyph-name="Udieresis" unicode="&#xdc;" horiz-adv-x="600" 
d="M70 171v477h42v-468c0 -119 72 -153 187 -153s189 34 189 153v468h42v-477c0 -124 -83 -181 -231 -181c-147 0 -229 57 -229 181zM179 784c0 22 9 30 26 30c19 0 29 -8 29 -30c0 -18 -10 -28 -29 -28c-17 0 -26 8 -26 28zM366 784c0 22 9 30 26 30c19 0 29 -8 29 -30
c0 -18 -10 -28 -29 -28c-17 0 -26 8 -26 28z" />
    <glyph glyph-name="odieresis" unicode="&#xf6;" horiz-adv-x="527" 
d="M263 -10c-151 0 -213 72 -213 255c0 181 62 255 213 255s214 -74 214 -255c0 -183 -63 -255 -214 -255zM263 26c126 0 171 51 171 219c0 163 -45 219 -171 219c-125 0 -170 -56 -170 -219c0 -168 45 -219 170 -219zM142 626c0 22 9 30 26 30c19 0 29 -8 29 -30
c0 -18 -10 -28 -29 -28c-17 0 -26 8 -26 28zM329 626c0 22 9 30 26 30c19 0 29 -8 29 -30c0 -18 -10 -28 -29 -28c-17 0 -26 8 -26 28z" />
    <glyph glyph-name="udieresis" unicode="&#xfc;" 
d="M444 0h-33l-5 59c-21 -16 -91 -69 -198 -69c-86 0 -138 46 -138 155v345h40v-338c0 -87 31 -126 112 -126s156 48 182 72v392h40v-490zM136 626c0 22 9 30 26 30c19 0 29 -8 29 -30c0 -18 -10 -28 -29 -28c-17 0 -26 8 -26 28zM323 626c0 22 9 30 26 30
c19 0 29 -8 29 -30c0 -18 -10 -28 -29 -28c-17 0 -26 8 -26 28z" />
    <glyph glyph-name="Edieresis" unicode="&#xcb;" horiz-adv-x="483" 
d="M421 648v-37h-309v-260h288v-35h-288v-278h321v-38h-363v648h351zM120 784c0 22 9 30 26 30c19 0 29 -8 29 -30c0 -18 -10 -28 -29 -28c-17 0 -26 8 -26 28zM307 784c0 22 9 30 26 30c19 0 29 -8 29 -30c0 -18 -10 -28 -29 -28c-17 0 -26 8 -26 28z" />
    <glyph glyph-name="Idieresis" unicode="&#xcf;" horiz-adv-x="182" 
d="M70 649h42v-649h-42v649zM-30 784c0 22 9 30 26 30c19 0 29 -8 29 -30c0 -18 -10 -28 -29 -28c-17 0 -26 8 -26 28zM157 784c0 22 9 30 26 30c19 0 29 -8 29 -30c0 -18 -10 -28 -29 -28c-17 0 -26 8 -26 28z" />
    <glyph glyph-name="ydieresis" unicode="&#xff;" horiz-adv-x="492" 
d="M472 490l-217 -549c-45 -114 -60 -168 -195 -168v35c97 0 124 34 165 161l11 34l-27 12l-189 475h46l179 -458h3l179 458h45zM125 626c0 22 9 30 26 30c19 0 29 -8 29 -30c0 -18 -10 -28 -29 -28c-17 0 -26 8 -26 28zM312 626c0 22 9 30 26 30c19 0 29 -8 29 -30
c0 -18 -10 -28 -29 -28c-17 0 -26 8 -26 28z" />
    <glyph glyph-name="Ydieresis" unicode="&#x178;" horiz-adv-x="532" 
d="M245 0v232l-225 416h48l197 -379h2l197 379h48l-225 -416v-232h-42zM145 784c0 22 9 30 26 30c19 0 29 -8 29 -30c0 -18 -10 -28 -29 -28c-17 0 -26 8 -26 28zM332 784c0 22 9 30 26 30c19 0 29 -8 29 -30c0 -18 -10 -28 -29 -28c-17 0 -26 8 -26 28z" />
    <glyph glyph-name="Ocircumflex" unicode="&#xd4;" horiz-adv-x="637" 
d="M53 324c0 238 85 334 267 334c178 0 264 -92 264 -334c0 -237 -82 -334 -264 -334s-267 97 -267 334zM97 324c0 -222 65 -297 223 -297c156 0 220 75 220 297c0 219 -64 297 -220 297c-158 0 -223 -78 -223 -297zM340 858l123 -135h-44l-101 108l-100 -108h-44l123 135
h43z" />
    <glyph glyph-name="Ucircumflex" unicode="&#xdb;" horiz-adv-x="600" 
d="M70 171v477h42v-468c0 -119 72 -153 187 -153s189 34 189 153v468h42v-477c0 -124 -83 -181 -231 -181c-147 0 -229 57 -229 181zM321 858l123 -135h-44l-101 108l-100 -108h-44l123 135h43z" />
    <glyph glyph-name="Zcaron" unicode="&#x17d;" horiz-adv-x="500" 
d="M53 611v37h396v-37l-361 -574h369v-37h-422v35l363 576h-345zM394 858l-125 -135h-39l-125 135h44l100 -111l101 111h44z" />
    <glyph glyph-name="zcaron" unicode="&#x17e;" horiz-adv-x="438" 
d="M63 490h337v-35l-303 -419h314v-36h-368v33l306 421h-286v36zM363 700l-125 -135h-39l-125 135h44l100 -111l101 111h44z" />
    <glyph glyph-name="Scaron" unicode="&#x160;" horiz-adv-x="524" 
d="M437 165c0 196 -379 104 -379 321c0 125 106 172 215 172c97 0 156 -11 179 -17l-10 -35c-33 8 -97 15 -168 15c-95 0 -173 -36 -173 -135c0 -174 381 -97 381 -321c0 -122 -89 -175 -226 -175c-89 0 -167 14 -202 26l10 34c42 -10 119 -23 188 -23c117 0 185 46 185 138
zM406 858l-125 -135h-39l-125 135h44l100 -111l101 111h44z" />
    <glyph glyph-name="scaron" unicode="&#x161;" horiz-adv-x="430" 
d="M343 118c0 76 -72 94 -149 120c-70 23 -139 46 -139 135s83 127 174 127c68 0 121 -10 137 -15l-9 -32c-27 5 -84 11 -127 11c-81 0 -132 -30 -132 -91c0 -71 59 -83 147 -112c72 -24 141 -57 141 -143c0 -70 -58 -128 -173 -128c-66 0 -131 17 -157 26l8 31
c22 -5 85 -21 146 -21c80 0 133 30 133 92zM359 700l-125 -135h-39l-125 135h44l100 -111l101 111h44z" />
    <glyph glyph-name="dotlessj" unicode="&#x237;" horiz-adv-x="197" 
d="M81 490h40v-566c0 -87 -49 -151 -140 -151h-21l6 34h5c81 0 110 53 110 109v574z" />
    <glyph glyph-name="oslash" unicode="&#xf8;" horiz-adv-x="527" 
d="M132 -72l25 79c-75 31 -107 106 -107 238c0 181 62 255 213 255c17 0 32 -1 47 -3l25 80h43l-28 -88c89 -27 127 -103 127 -244c0 -183 -63 -255 -214 -255c-25 0 -48 2 -68 6l-21 -68h-42zM263 26c126 0 171 51 171 219c0 124 -26 186 -95 209l-133 -424
c17 -3 36 -4 57 -4zM93 245c0 -116 21 -176 75 -202l131 419c-11 1 -23 2 -36 2c-125 0 -170 -56 -170 -219z" />
    <glyph glyph-name="Oslash" unicode="&#xd8;" horiz-adv-x="637" 
d="M171 -72l26 83c-98 39 -144 138 -144 313c0 238 85 334 267 334c28 0 53 -3 77 -7l22 69h43l-25 -80c99 -38 147 -135 147 -316c0 -237 -82 -334 -264 -334c-31 0 -60 3 -85 9l-22 -71h-42zM540 324c0 161 -35 246 -115 279l-179 -569c22 -5 46 -7 74 -7
c156 0 220 75 220 297zM97 324c0 -160 33 -243 111 -278l178 569c-20 4 -42 6 -66 6c-158 0 -223 -78 -223 -297z" />
    <glyph glyph-name="tilde" unicode="&#x2dc;" horiz-adv-x="442" 
d="M85 587l-15 23c18 14 62 49 103 49c39 0 72 -41 104 -41c26 0 68 29 80 38l14 -22c-17 -17 -65 -51 -98 -51c-46 0 -74 41 -108 41c-28 0 -67 -28 -80 -37z" />
    <glyph glyph-name="atilde" unicode="&#xe3;" horiz-adv-x="485" 
d="M97 431l-8 34c21 10 90 35 174 35c95 0 152 -44 152 -161v-339h-33l-4 59c-21 -16 -92 -69 -185 -69c-96 0 -145 71 -145 154c0 89 76 143 253 143h74v49c0 73 -26 128 -115 128c-69 0 -142 -24 -163 -33zM375 99v154h-57c-183 0 -227 -48 -227 -107
c0 -66 34 -120 102 -120c77 0 152 48 182 73zM106 587l-15 23c18 14 62 49 103 49c39 0 72 -41 104 -41c26 0 68 29 80 38l14 -22c-17 -17 -65 -51 -98 -51c-46 0 -74 41 -108 41c-28 0 -67 -28 -80 -37z" />
    <glyph glyph-name="ntilde" unicode="&#xf1;" 
d="M70 490h32l6 -52c17 14 98 62 186 62c98 0 150 -45 150 -160v-340h-40v340c0 84 -28 124 -112 124c-83 0 -164 -47 -182 -61v-403h-40v490zM117 587l-15 23c18 14 62 49 103 49c39 0 72 -41 104 -41c26 0 68 29 80 38l14 -22c-17 -17 -65 -51 -98 -51
c-46 0 -74 41 -108 41c-28 0 -67 -28 -80 -37z" />
    <glyph glyph-name="Ntilde" unicode="&#xd1;" horiz-adv-x="615" 
d="M470 0l-356 616h-2v-616h-42v648h71l360 -617h2v617h42v-648h-75zM171 745l-15 23c18 14 62 49 103 49c39 0 72 -41 104 -41c26 0 68 29 80 38l14 -22c-17 -17 -65 -51 -98 -51c-46 0 -74 41 -108 41c-28 0 -67 -28 -80 -37z" />
    <glyph glyph-name="Atilde" unicode="&#xc3;" horiz-adv-x="586" 
d="M326 648l236 -648h-49l-66 186h-308l-67 -186h-48l239 648h63zM293 615l-141 -391h281l-138 391h-2zM157 745l-15 23c18 14 62 49 103 49c39 0 72 -41 104 -41c26 0 68 29 80 38l14 -22c-17 -17 -65 -51 -98 -51c-46 0 -74 41 -108 41c-28 0 -67 -28 -80 -37z" />
    <glyph glyph-name="Otilde" unicode="&#xd5;" horiz-adv-x="637" 
d="M53 324c0 238 85 334 267 334c178 0 264 -92 264 -334c0 -237 -82 -334 -264 -334s-267 97 -267 334zM97 324c0 -222 65 -297 223 -297c156 0 220 75 220 297c0 219 -64 297 -220 297c-158 0 -223 -78 -223 -297zM182 745l-15 23c18 14 62 49 103 49c39 0 72 -41 104 -41
c26 0 68 29 80 38l14 -22c-17 -17 -65 -51 -98 -51c-46 0 -74 41 -108 41c-28 0 -67 -28 -80 -37z" />
    <glyph glyph-name="otilde" unicode="&#xf5;" horiz-adv-x="527" 
d="M263 -10c-151 0 -213 72 -213 255c0 181 62 255 213 255s214 -74 214 -255c0 -183 -63 -255 -214 -255zM263 26c126 0 171 51 171 219c0 163 -45 219 -171 219c-125 0 -170 -56 -170 -219c0 -168 45 -219 170 -219zM127 587l-15 23c18 14 62 49 103 49
c39 0 72 -41 104 -41c26 0 68 29 80 38l14 -22c-17 -17 -65 -51 -98 -51c-46 0 -74 41 -108 41c-28 0 -67 -28 -80 -37z" />
    <glyph glyph-name="hungarumlaut" unicode="&#x2dd;" horiz-adv-x="421" 
d="M70 565l118 135h53l-140 -135h-31zM180 565l118 135h53l-140 -135h-31z" />
    <glyph glyph-name="breve" unicode="&#x2d8;" horiz-adv-x="365" 
d="M70 672h36c0 -41 24 -77 76 -77c53 0 76 36 77 77h36c0 -59 -36 -108 -113 -108c-75 0 -112 49 -112 108z" />
    <glyph glyph-name="ring" unicode="&#x2da;" horiz-adv-x="324" 
d="M76 661c0 61 34 93 88 93c57 0 91 -32 91 -93c0 -56 -34 -91 -91 -91c-54 0 -88 35 -88 91zM111 661c0 -42 20 -62 53 -62c35 0 56 20 56 62c0 46 -21 66 -56 66c-33 0 -53 -20 -53 -66z" />
    <glyph glyph-name="aring" unicode="&#xe5;" horiz-adv-x="485" 
d="M97 431l-8 34c21 10 90 35 174 35c95 0 152 -44 152 -161v-339h-33l-4 59c-21 -16 -92 -69 -185 -69c-96 0 -145 71 -145 154c0 89 76 143 253 143h74v49c0 73 -26 128 -115 128c-69 0 -142 -24 -163 -33zM375 99v154h-57c-183 0 -227 -48 -227 -107
c0 -66 34 -120 102 -120c77 0 152 48 182 73zM153 661c0 61 34 93 88 93c57 0 91 -32 91 -93c0 -56 -34 -91 -91 -91c-54 0 -88 35 -88 91zM188 661c0 -42 20 -62 53 -62c35 0 56 20 56 62c0 46 -21 66 -56 66c-33 0 -53 -20 -53 -66z" />
    <glyph glyph-name="cedilla" unicode="&#xb8;" horiz-adv-x="271" 
d="M70 -221l78 150h53l-100 -150h-31z" />
    <glyph glyph-name="ccedilla" unicode="&#xe7;" horiz-adv-x="436" 
d="M385 49l12 -32c-25 -10 -81 -27 -143 -27c-128 0 -204 59 -204 252c0 194 73 258 210 258c74 0 120 -23 141 -35l-11 -30c-25 11 -68 29 -126 29c-124 0 -171 -56 -171 -222c0 -167 49 -216 170 -216c51 0 104 15 122 23zM152 -221l78 150h53l-100 -150h-31z" />
    <glyph glyph-name="Ccedilla" unicode="&#xc7;" horiz-adv-x="539" 
d="M484 43l10 -36c-39 -7 -112 -17 -181 -17c-167 0 -260 74 -260 324v20c0 247 88 324 260 324c85 0 146 -16 179 -28l-11 -34c-41 11 -104 25 -164 25c-149 0 -219 -51 -219 -287v-20c0 -238 77 -287 219 -287c57 0 127 10 167 16zM216 -221l78 150h53l-100 -150h-31z" />
    <glyph glyph-name="Aring" unicode="&#xc5;" horiz-adv-x="586" 
d="M326 648l236 -648h-49l-66 186h-308l-67 -186h-48l239 648h63zM293 615l-141 -391h281l-138 391h-2zM203 819c0 61 34 93 88 93c57 0 91 -32 91 -93c0 -56 -34 -91 -91 -91c-54 0 -88 35 -88 91zM238 819c0 -42 20 -62 53 -62c35 0 56 20 56 62c0 46 -21 66 -56 66
c-33 0 -53 -20 -53 -66z" />
    <glyph glyph-name="ogonek" unicode="&#x2db;" horiz-adv-x="285" 
d="M173 0h33c-11 -8 -102 -50 -102 -116c0 -52 48 -73 88 -73h23v-30h-23c-63 0 -122 31 -122 98s63 108 103 121z" />
    <glyph glyph-name="uogonek" unicode="&#x173;" 
d="M411 0l-5 59c-21 -16 -91 -69 -198 -69c-86 0 -138 46 -138 155v345h40v-338c0 -87 31 -126 112 -126s156 48 182 72v392h40v-490c-11 -8 -102 -50 -102 -116c0 -52 48 -73 88 -73h23v-30h-23c-63 0 -122 31 -122 98s63 108 103 121z" />
    <glyph glyph-name="iogonek" unicode="&#x12f;" horiz-adv-x="193" 
d="M77 0v490h40v-490c-11 -8 -102 -50 -102 -116c0 -52 48 -73 88 -73h23v-30h-23c-63 0 -122 31 -122 98s67 108 96 121zM70 651c0 21 9 28 25 28c18 0 28 -7 28 -28c0 -18 -10 -27 -28 -27c-16 0 -25 7 -25 27z" />
    <glyph glyph-name="aogonek" unicode="&#x105;" horiz-adv-x="485" 
d="M97 431l-8 34c21 10 90 35 174 35c95 0 152 -44 152 -161v-339c-11 -8 -102 -50 -102 -116c0 -52 48 -73 88 -73h23v-30h-23c-63 0 -122 31 -122 98s63 108 103 121l-4 59c-21 -16 -92 -69 -185 -69c-96 0 -145 71 -145 154c0 89 76 143 253 143h74v49
c0 73 -26 128 -115 128c-69 0 -142 -24 -163 -33zM375 99v154h-57c-183 0 -227 -48 -227 -107c0 -66 34 -120 102 -120c77 0 152 48 182 73z" />
    <glyph glyph-name="Amacron" unicode="&#x100;" horiz-adv-x="586" 
d="M326 648l236 -648h-49l-66 186h-308l-67 -186h-48l239 648h63zM293 615l-141 -391h281l-138 391h-2zM163 751v32h259v-32h-259z" />
    <glyph glyph-name="amacron" unicode="&#x101;" horiz-adv-x="485" 
d="M97 431l-8 34c21 10 90 35 174 35c95 0 152 -44 152 -161v-339h-33l-4 59c-21 -16 -92 -69 -185 -69c-96 0 -145 71 -145 154c0 89 76 143 253 143h74v49c0 73 -26 128 -115 128c-69 0 -142 -24 -163 -33zM375 99v154h-57c-183 0 -227 -48 -227 -107
c0 -66 34 -120 102 -120c77 0 152 48 182 73zM114 593v32h259v-32h-259z" />
    <glyph glyph-name="Abreve" unicode="&#x102;" horiz-adv-x="586" 
d="M326 648l236 -648h-49l-66 186h-308l-67 -186h-48l239 648h63zM293 615l-141 -391h281l-138 391h-2zM183 830h36c0 -41 24 -77 76 -77c53 0 76 36 77 77h36c0 -59 -36 -108 -113 -108c-75 0 -112 49 -112 108z" />
    <glyph glyph-name="abreve" unicode="&#x103;" horiz-adv-x="485" 
d="M97 431l-8 34c21 10 90 35 174 35c95 0 152 -44 152 -161v-339h-33l-4 59c-21 -16 -92 -69 -185 -69c-96 0 -145 71 -145 154c0 89 76 143 253 143h74v49c0 73 -26 128 -115 128c-69 0 -142 -24 -163 -33zM375 99v154h-57c-183 0 -227 -48 -227 -107
c0 -66 34 -120 102 -120c77 0 152 48 182 73zM133 672h36c0 -41 24 -77 76 -77c53 0 76 36 77 77h36c0 -59 -36 -108 -113 -108c-75 0 -112 49 -112 108z" />
    <glyph glyph-name="Aogonek" unicode="&#x104;" horiz-adv-x="586" 
d="M513 0l-66 186h-308l-67 -186h-48l239 648h63l236 -648c-13 -3 -111 -50 -111 -116c0 -52 48 -73 88 -73h23v-30h-23c-63 0 -122 31 -122 98s57 108 96 121zM293 615l-141 -391h281l-138 391h-2z" />
    <glyph glyph-name="Cacute" unicode="&#x106;" horiz-adv-x="539" 
d="M484 43l10 -36c-39 -7 -112 -17 -181 -17c-167 0 -260 74 -260 324v20c0 247 88 324 260 324c85 0 146 -16 179 -28l-11 -34c-41 11 -104 25 -164 25c-149 0 -219 -51 -219 -287v-20c0 -238 77 -287 219 -287c57 0 127 10 167 16zM244 723l118 135h53l-136 -135h-35z" />
    <glyph glyph-name="cacute" unicode="&#x107;" horiz-adv-x="436" 
d="M385 49l12 -32c-25 -10 -81 -27 -143 -27c-128 0 -204 59 -204 252c0 194 73 258 210 258c74 0 120 -23 141 -35l-11 -30c-25 11 -68 29 -126 29c-124 0 -171 -56 -171 -222c0 -167 49 -216 170 -216c51 0 104 15 122 23zM202 565l118 135h53l-136 -135h-35z" />
    <glyph glyph-name="Ccircumflex" unicode="&#x108;" horiz-adv-x="539" 
d="M484 43l10 -36c-39 -7 -112 -17 -181 -17c-167 0 -260 74 -260 324v20c0 247 88 324 260 324c85 0 146 -16 179 -28l-11 -34c-41 11 -104 25 -164 25c-149 0 -219 -51 -219 -287v-20c0 -238 77 -287 219 -287c57 0 127 10 167 16zM333 858l123 -135h-44l-101 108
l-100 -108h-44l123 135h43z" />
    <glyph glyph-name="ccircumflex" unicode="&#x109;" horiz-adv-x="436" 
d="M385 49l12 -32c-25 -10 -81 -27 -143 -27c-128 0 -204 59 -204 252c0 194 73 258 210 258c74 0 120 -23 141 -35l-11 -30c-25 11 -68 29 -126 29c-124 0 -171 -56 -171 -222c0 -167 49 -216 170 -216c51 0 104 15 122 23zM272 700l123 -135h-44l-101 108l-100 -108h-44
l123 135h43z" />
    <glyph glyph-name="Ccaron" unicode="&#x10c;" horiz-adv-x="539" 
d="M484 43l10 -36c-39 -7 -112 -17 -181 -17c-167 0 -260 74 -260 324v20c0 247 88 324 260 324c85 0 146 -16 179 -28l-11 -34c-41 11 -104 25 -164 25c-149 0 -219 -51 -219 -287v-20c0 -238 77 -287 219 -287c57 0 127 10 167 16zM454 858l-125 -135h-39l-125 135h44
l100 -111l101 111h44z" />
    <glyph glyph-name="ccaron" unicode="&#x10d;" horiz-adv-x="436" 
d="M385 49l12 -32c-25 -10 -81 -27 -143 -27c-128 0 -204 59 -204 252c0 194 73 258 210 258c74 0 120 -23 141 -35l-11 -30c-25 11 -68 29 -126 29c-124 0 -171 -56 -171 -222c0 -167 49 -216 170 -216c51 0 104 15 122 23zM400 700l-125 -135h-39l-125 135h44l100 -111
l101 111h44z" />
    <glyph glyph-name="Cdotaccent" unicode="&#x10a;" horiz-adv-x="539" 
d="M484 43l10 -36c-39 -7 -112 -17 -181 -17c-167 0 -260 74 -260 324v20c0 247 88 324 260 324c85 0 146 -16 179 -28l-11 -34c-41 11 -104 25 -164 25c-149 0 -219 -51 -219 -287v-20c0 -238 77 -287 219 -287c57 0 127 10 167 16zM279 770c0 21 9 28 25 28
c18 0 28 -7 28 -28c0 -18 -10 -27 -28 -27c-16 0 -25 7 -25 27z" />
    <glyph glyph-name="cdotaccent" unicode="&#x10b;" horiz-adv-x="436" 
d="M385 49l12 -32c-25 -10 -81 -27 -143 -27c-128 0 -204 59 -204 252c0 194 73 258 210 258c74 0 120 -23 141 -35l-11 -30c-25 11 -68 29 -126 29c-124 0 -171 -56 -171 -222c0 -167 49 -216 170 -216c51 0 104 15 122 23zM220 612c0 21 9 28 25 28c18 0 28 -7 28 -28
c0 -18 -10 -27 -28 -27c-16 0 -25 7 -25 27z" />
    <glyph glyph-name="Dcaron" unicode="&#x10e;" horiz-adv-x="600" 
d="M70 648h170c212 0 307 -56 307 -303v-30c0 -244 -100 -315 -311 -315h-166v648zM213 611h-103v-574h103c208 0 289 40 289 278v30c0 239 -81 266 -289 266zM414 858l-125 -135h-39l-125 135h44l100 -111l101 111h44z" />
    <glyph glyph-name="Dcroat" unicode="&#x110;" horiz-adv-x="600" 
d="M17 319v35h53v294h170c212 0 307 -56 307 -303v-30c0 -244 -100 -315 -311 -315h-166v319h-53zM213 611h-103v-257h140v-35h-140v-282h103c208 0 289 40 289 278v30c0 239 -81 266 -289 266z" />
    <glyph glyph-name="dcroat" unicode="&#x111;" horiz-adv-x="523" 
d="M300 579v32h113v89l40 -10v-79h57v-32h-57v-579h-33l-4 58c-40 -35 -104 -68 -181 -68c-123 0 -185 64 -185 245v20c0 164 98 245 222 245c58 0 105 -6 141 -18v97h-113zM413 99v347c-29 13 -87 18 -141 18c-105 0 -179 -67 -179 -209v-20c0 -152 36 -209 146 -209
c70 0 143 40 174 73z" />
    <glyph glyph-name="Ebreve" unicode="&#x114;" horiz-adv-x="483" 
d="M421 648v-37h-309v-260h288v-35h-288v-278h321v-38h-363v648h351zM132 830h36c0 -41 24 -77 76 -77c53 0 76 36 77 77h36c0 -59 -36 -108 -113 -108c-75 0 -112 49 -112 108z" />
    <glyph glyph-name="ebreve" unicode="&#x115;" horiz-adv-x="490" 
d="M406 48l11 -31c-22 -10 -82 -27 -154 -27c-180 0 -213 116 -213 251c0 176 50 259 216 259c150 0 177 -95 177 -207c0 -22 -2 -44 -5 -52h-346c4 -171 57 -215 171 -215c64 0 118 12 143 22zM405 275c0 126 -21 189 -139 189c-117 0 -162 -33 -174 -189h313zM145 672h36
c0 -41 24 -77 76 -77c53 0 76 36 77 77h36c0 -59 -36 -108 -113 -108c-75 0 -112 49 -112 108z" />
    <glyph glyph-name="Ecaron" unicode="&#x11a;" horiz-adv-x="483" 
d="M421 648v-37h-309v-260h288v-35h-288v-278h321v-38h-363v648h351zM396 858l-125 -135h-39l-125 135h44l100 -111l101 111h44z" />
    <glyph glyph-name="ecaron" unicode="&#x11b;" horiz-adv-x="490" 
d="M406 48l11 -31c-22 -10 -82 -27 -154 -27c-180 0 -213 116 -213 251c0 176 50 259 216 259c150 0 177 -95 177 -207c0 -22 -2 -44 -5 -52h-346c4 -171 57 -215 171 -215c64 0 118 12 143 22zM405 275c0 126 -21 189 -139 189c-117 0 -162 -33 -174 -189h313zM403 700
l-125 -135h-39l-125 135h44l100 -111l101 111h44z" />
    <glyph glyph-name="Eogonek" unicode="&#x118;" horiz-adv-x="483" 
d="M400 0h-330v648h351v-37h-309v-260h288v-35h-288v-278h321v-38c-10 -8 -102 -50 -102 -116c0 -52 48 -73 88 -73h23v-30h-23c-63 0 -122 31 -122 98s61 110 103 121z" />
    <glyph glyph-name="eogonek" unicode="&#x119;" horiz-adv-x="490" 
d="M406 48l11 -31c-11 -8 -114 -67 -114 -133c0 -52 48 -73 88 -73h23v-30h-23c-63 0 -122 31 -122 98c0 48 34 93 82 121c-23 -4 -60 -10 -88 -10c-180 0 -213 116 -213 251c0 176 50 259 216 259c150 0 177 -95 177 -207c0 -22 -2 -44 -5 -52h-346
c4 -171 57 -215 171 -215c64 0 118 12 143 22zM405 275c0 126 -21 189 -139 189c-117 0 -162 -33 -174 -189h313z" />
    <glyph glyph-name="Edotaccent" unicode="&#x116;" horiz-adv-x="483" 
d="M421 648v-37h-309v-260h288v-35h-288v-278h321v-38h-363v648h351zM225 770c0 21 9 28 25 28c18 0 28 -7 28 -28c0 -18 -10 -27 -28 -27c-16 0 -25 7 -25 27z" />
    <glyph glyph-name="edotaccent" unicode="&#x117;" horiz-adv-x="490" 
d="M406 48l11 -31c-22 -10 -82 -27 -154 -27c-180 0 -213 116 -213 251c0 176 50 259 216 259c150 0 177 -95 177 -207c0 -22 -2 -44 -5 -52h-346c4 -171 57 -215 171 -215c64 0 118 12 143 22zM405 275c0 126 -21 189 -139 189c-117 0 -162 -33 -174 -189h313zM228 612
c0 21 9 28 25 28c18 0 28 -7 28 -28c0 -18 -10 -27 -28 -27c-16 0 -25 7 -25 27z" />
    <glyph glyph-name="Emacron" unicode="&#x112;" horiz-adv-x="483" 
d="M421 648v-37h-309v-260h288v-35h-288v-278h321v-38h-363v648h351zM119 751v32h259v-32h-259z" />
    <glyph glyph-name="emacron" unicode="&#x113;" horiz-adv-x="490" 
d="M406 48l11 -31c-22 -10 -82 -27 -154 -27c-180 0 -213 116 -213 251c0 176 50 259 216 259c150 0 177 -95 177 -207c0 -22 -2 -44 -5 -52h-346c4 -171 57 -215 171 -215c64 0 118 12 143 22zM405 275c0 126 -21 189 -139 189c-117 0 -162 -33 -174 -189h313zM125 593v32
h259v-32h-259z" />
    <glyph glyph-name="Gcircumflex" unicode="&#x11c;" horiz-adv-x="580" 
d="M357 314v35h156v-339c-35 -8 -114 -20 -201 -20c-164 0 -259 74 -259 324v20c0 253 94 324 259 324c90 0 164 -16 198 -28l-10 -35c-38 10 -107 26 -184 26c-148 0 -218 -51 -218 -287v-20c0 -238 76 -287 218 -287c49 0 137 9 156 13v274h-115zM331 858l123 -135h-44
l-101 108l-100 -108h-44l123 135h43z" />
    <glyph glyph-name="gcircumflex" unicode="&#x11d;" horiz-adv-x="523" 
d="M453 474v-533c0 -102 -66 -168 -193 -168h-136l7 34h112c102 0 170 31 170 132v119c-40 -35 -101 -68 -178 -68c-123 0 -185 64 -185 245v20c0 164 98 245 222 245c83 0 145 -13 181 -26zM413 99v347c-29 13 -87 18 -141 18c-105 0 -179 -67 -179 -209v-20
c0 -152 36 -209 146 -209c70 0 143 40 174 73zM293 700l123 -135h-44l-101 108l-100 -108h-44l123 135h43z" />
    <glyph glyph-name="Gbreve" unicode="&#x11e;" horiz-adv-x="580" 
d="M357 314v35h156v-339c-35 -8 -114 -20 -201 -20c-164 0 -259 74 -259 324v20c0 253 94 324 259 324c90 0 164 -16 198 -28l-10 -35c-38 10 -107 26 -184 26c-148 0 -218 -51 -218 -287v-20c0 -238 76 -287 218 -287c49 0 137 9 156 13v274h-115zM200 830h36
c0 -41 24 -77 76 -77c53 0 76 36 77 77h36c0 -59 -36 -108 -113 -108c-75 0 -112 49 -112 108z" />
    <glyph glyph-name="gbreve" unicode="&#x11f;" horiz-adv-x="523" 
d="M453 474v-533c0 -102 -66 -168 -193 -168h-136l7 34h112c102 0 170 31 170 132v119c-40 -35 -101 -68 -178 -68c-123 0 -185 64 -185 245v20c0 164 98 245 222 245c83 0 145 -13 181 -26zM413 99v347c-29 13 -87 18 -141 18c-105 0 -179 -67 -179 -209v-20
c0 -152 36 -209 146 -209c70 0 143 40 174 73zM166 672h36c0 -41 24 -77 76 -77c53 0 76 36 77 77h36c0 -59 -36 -108 -113 -108c-75 0 -112 49 -112 108z" />
    <glyph glyph-name="Gdotaccent" unicode="&#x120;" horiz-adv-x="580" 
d="M357 314v35h156v-339c-35 -8 -114 -20 -201 -20c-164 0 -259 74 -259 324v20c0 253 94 324 259 324c90 0 164 -16 198 -28l-10 -35c-38 10 -107 26 -184 26c-148 0 -218 -51 -218 -287v-20c0 -238 76 -287 218 -287c49 0 137 9 156 13v274h-115zM283 770c0 21 9 28 25 28
c18 0 28 -7 28 -28c0 -18 -10 -27 -28 -27c-16 0 -25 7 -25 27z" />
    <glyph glyph-name="gdotaccent" unicode="&#x121;" horiz-adv-x="523" 
d="M453 474v-533c0 -102 -66 -168 -193 -168h-136l7 34h112c102 0 170 31 170 132v119c-40 -35 -101 -68 -178 -68c-123 0 -185 64 -185 245v20c0 164 98 245 222 245c83 0 145 -13 181 -26zM413 99v347c-29 13 -87 18 -141 18c-105 0 -179 -67 -179 -209v-20
c0 -152 36 -209 146 -209c70 0 143 40 174 73zM245 612c0 21 9 28 25 28c18 0 28 -7 28 -28c0 -18 -10 -27 -28 -27c-16 0 -25 7 -25 27z" />
    <glyph glyph-name="Hcircumflex" unicode="&#x124;" horiz-adv-x="588" 
d="M476 648h42v-648h-42v315h-364v-315h-42v648h42v-295h364v295zM315 858l123 -135h-44l-101 108l-100 -108h-44l123 135h43z" />
    <glyph glyph-name="hcircumflex" unicode="&#x125;" 
d="M70 690l40 10v-262c20 16 99 62 184 62c98 0 150 -45 150 -160v-340h-40v340c0 84 -28 124 -112 124c-83 0 -164 -48 -182 -62v-402h-40v690zM116 844l123 -135h-44l-101 108l-100 -108h-44l123 135h43z" />
    <glyph glyph-name="Hbar" unicode="&#x126;" horiz-adv-x="588" 
d="M4 508v32h66v108h42v-108h364v108h42v-108h65v-32h-65v-508h-42v315h-364v-315h-42v508h-66zM112 353h364v155h-364v-155z" />
    <glyph glyph-name="hbar" unicode="&#x127;" 
d="M14 579v32h56v79l40 10v-89h123v-32h-123v-141c20 16 99 62 184 62c98 0 150 -45 150 -160v-340h-40v340c0 84 -28 124 -112 124c-83 0 -164 -48 -182 -62v-402h-40v579h-56z" />
    <glyph glyph-name="Ibreve" unicode="&#x12c;" horiz-adv-x="182" 
d="M70 649h42v-649h-42v649zM-18 830h36c0 -41 24 -77 76 -77c53 0 76 36 77 77h36c0 -59 -36 -108 -113 -108c-75 0 -112 49 -112 108z" />
    <glyph glyph-name="ibreve" unicode="&#x12d;" horiz-adv-x="193" 
d="M77 490h40v-490h-40v490zM-13 672h36c0 -41 24 -77 76 -77c53 0 76 36 77 77h36c0 -59 -36 -108 -113 -108c-75 0 -112 49 -112 108z" />
    <glyph glyph-name="Iogonek" unicode="&#x12e;" horiz-adv-x="182" 
d="M70 0v649h42v-649c-11 -8 -111 -50 -111 -116c0 -52 48 -73 88 -73h23v-30h-23c-63 0 -122 31 -122 98s63 108 103 121z" />
    <glyph glyph-name="Idotaccent" unicode="&#x130;" horiz-adv-x="182" 
d="M70 649h42v-649h-42v649zM65 770c0 21 9 28 25 28c18 0 28 -7 28 -28c0 -18 -10 -27 -28 -27c-16 0 -25 7 -25 27z" />
    <glyph glyph-name="Imacron" unicode="&#x12a;" horiz-adv-x="182" 
d="M70 649h42v-649h-42v649zM-38 751v32h259v-32h-259z" />
    <glyph glyph-name="imacron" unicode="&#x12b;" horiz-adv-x="193" 
d="M77 490h40v-490h-40v490zM-33 593v32h259v-32h-259z" />
    <glyph glyph-name="Itilde" unicode="&#x128;" horiz-adv-x="182" 
d="M70 649h42v-649h-42v649zM-45 745l-15 23c18 14 62 49 103 49c39 0 72 -41 104 -41c26 0 68 29 80 38l14 -22c-17 -17 -65 -51 -98 -51c-46 0 -74 41 -108 41c-28 0 -67 -28 -80 -37z" />
    <glyph glyph-name="itilde" unicode="&#x129;" horiz-adv-x="193" 
d="M77 490h40v-490h-40v490zM-39 587l-15 23c18 14 62 49 103 49c39 0 72 -41 104 -41c26 0 68 29 80 38l14 -22c-17 -17 -65 -51 -98 -51c-46 0 -74 41 -108 41c-28 0 -67 -28 -80 -37z" />
    <glyph glyph-name="Jcircumflex" unicode="&#x134;" horiz-adv-x="320" 
d="M250 648v-464c0 -137 -84 -185 -192 -185h-20l-8 36h18c92 0 161 37 161 137v476h41zM252 858l123 -135h-44l-101 108l-100 -108h-44l123 135h43z" />
    <glyph glyph-name="jcircumflex" unicode="&#x135;" horiz-adv-x="197" 
d="M81 490h40v-566c0 -87 -49 -151 -140 -151h-21l6 34h5c81 0 110 53 110 109v574zM120 700l123 -135h-44l-101 108l-100 -108h-44l123 135h43z" />
    <glyph glyph-name="kgreenlandic" unicode="&#x138;" horiz-adv-x="426" 
d="M373 0l-263 263v-263h-40v490h40v-215l245 215h54l-250 -221l267 -269h-53z" />
    <glyph glyph-name="Lacute" unicode="&#x139;" horiz-adv-x="452" 
d="M422 0h-352v648h42v-610h310v-38zM70 723l118 135h53l-136 -135h-35z" />
    <glyph glyph-name="lacute" unicode="&#x13a;" horiz-adv-x="180" 
d="M70 690l40 10v-700h-40v690zM70 745l118 135h53l-136 -135h-35z" />
    <glyph glyph-name="Ldot" unicode="&#x13f;" horiz-adv-x="452" 
d="M422 0h-352v648h42v-610h310v-38zM262 335c0 21 9 28 25 28c18 0 28 -7 28 -28c0 -18 -10 -27 -28 -27c-16 0 -25 7 -25 27z" />
    <glyph glyph-name="ldot" unicode="&#x140;" horiz-adv-x="219" 
d="M70 690l40 10v-700h-40v690zM165 333c0 21 9 28 25 28c18 0 28 -7 28 -28c0 -18 -10 -27 -28 -27c-16 0 -25 7 -25 27z" />
    <glyph glyph-name="Lslash" unicode="&#x141;" horiz-adv-x="452" 
d="M-3 285v42l73 45v276h42v-249l144 90v-42l-144 -90v-319h310v-38h-352v330z" />
    <glyph glyph-name="lslash" unicode="&#x142;" horiz-adv-x="180" 
d="M-20 316v38l90 56v280l40 10v-265l90 56v-38l-90 -56v-397h-40v372z" />
    <glyph glyph-name="Nacute" unicode="&#x143;" horiz-adv-x="615" 
d="M470 0l-356 616h-2v-616h-42v648h71l360 -617h2v617h42v-648h-75zM262 723l118 135h53l-136 -135h-35z" />
    <glyph glyph-name="nacute" unicode="&#x144;" 
d="M70 490h32l6 -52c17 14 98 62 186 62c98 0 150 -45 150 -160v-340h-40v340c0 84 -28 124 -112 124c-83 0 -164 -47 -182 -61v-403h-40v490zM191 565l118 135h53l-136 -135h-35z" />
    <glyph glyph-name="Ncaron" unicode="&#x147;" horiz-adv-x="615" 
d="M470 0l-356 616h-2v-616h-42v648h71l360 -617h2v617h42v-648h-75zM452 858l-125 -135h-39l-125 135h44l100 -111l101 111h44z" />
    <glyph glyph-name="ncaron" unicode="&#x148;" 
d="M70 490h32l6 -52c17 14 98 62 186 62c98 0 150 -45 150 -160v-340h-40v340c0 84 -28 124 -112 124c-83 0 -164 -47 -182 -61v-403h-40v490zM401 700l-125 -135h-39l-125 135h44l100 -111l101 111h44z" />
    <glyph glyph-name="Eng" unicode="&#x14a;" horiz-adv-x="615" 
d="M470 0l-356 616h-2v-616h-42v648h71l360 -617h2v617h42v-689c0 -137 -84 -185 -192 -185h-20l-8 36h18c92 0 161 37 161 137v53h-34z" />
    <glyph glyph-name="eng" unicode="&#x14b;" 
d="M70 490h32l6 -52c17 14 98 62 186 62c98 0 150 -45 150 -160v-416c0 -87 -49 -151 -140 -151h-21l6 34h5c81 0 110 53 110 109v424c0 84 -28 124 -112 124c-83 0 -164 -47 -182 -61v-403h-40v490z" />
    <glyph glyph-name="Omacron" unicode="&#x14c;" horiz-adv-x="637" 
d="M53 324c0 238 85 334 267 334c178 0 264 -92 264 -334c0 -237 -82 -334 -264 -334s-267 97 -267 334zM97 324c0 -222 65 -297 223 -297c156 0 220 75 220 297c0 219 -64 297 -220 297c-158 0 -223 -78 -223 -297zM189 751v32h259v-32h-259z" />
    <glyph glyph-name="omacron" unicode="&#x14d;" horiz-adv-x="527" 
d="M263 -10c-151 0 -213 72 -213 255c0 181 62 255 213 255s214 -74 214 -255c0 -183 -63 -255 -214 -255zM263 26c126 0 171 51 171 219c0 163 -45 219 -171 219c-125 0 -170 -56 -170 -219c0 -168 45 -219 170 -219zM134 593v32h259v-32h-259z" />
    <glyph glyph-name="Obreve" unicode="&#x14e;" horiz-adv-x="637" 
d="M53 324c0 238 85 334 267 334c178 0 264 -92 264 -334c0 -237 -82 -334 -264 -334s-267 97 -267 334zM97 324c0 -222 65 -297 223 -297c156 0 220 75 220 297c0 219 -64 297 -220 297c-158 0 -223 -78 -223 -297zM209 830h36c0 -41 24 -77 76 -77c53 0 76 36 77 77h36
c0 -59 -36 -108 -113 -108c-75 0 -112 49 -112 108z" />
    <glyph glyph-name="obreve" unicode="&#x14f;" horiz-adv-x="527" 
d="M263 -10c-151 0 -213 72 -213 255c0 181 62 255 213 255s214 -74 214 -255c0 -183 -63 -255 -214 -255zM263 26c126 0 171 51 171 219c0 163 -45 219 -171 219c-125 0 -170 -56 -170 -219c0 -168 45 -219 170 -219zM154 672h36c0 -41 24 -77 76 -77c53 0 76 36 77 77h36
c0 -59 -36 -108 -113 -108c-75 0 -112 49 -112 108z" />
    <glyph glyph-name="Ohungarumlaut" unicode="&#x150;" horiz-adv-x="637" 
d="M53 324c0 238 85 334 267 334c178 0 264 -92 264 -334c0 -237 -82 -334 -264 -334s-267 97 -267 334zM97 324c0 -222 65 -297 223 -297c156 0 220 75 220 297c0 219 -64 297 -220 297c-158 0 -223 -78 -223 -297zM223 723l118 135h53l-140 -135h-31zM333 723l118 135h53
l-140 -135h-31z" />
    <glyph glyph-name="ohungarumlaut" unicode="&#x151;" horiz-adv-x="527" 
d="M263 -10c-151 0 -213 72 -213 255c0 181 62 255 213 255s214 -74 214 -255c0 -183 -63 -255 -214 -255zM263 26c126 0 171 51 171 219c0 163 -45 219 -171 219c-125 0 -170 -56 -170 -219c0 -168 45 -219 170 -219zM173 565l118 135h53l-140 -135h-31zM283 565l118 135
h53l-140 -135h-31z" />
    <glyph glyph-name="Racute" unicode="&#x154;" horiz-adv-x="560" 
d="M70 648h210c154 0 211 -63 211 -182c0 -121 -69 -159 -131 -170v-2c62 -11 95 -45 118 -126l47 -168h-43l-47 169c-23 81 -91 112 -169 112h-154v-281h-42v648zM280 611h-168v-294c31 1 118 2 146 2c144 0 189 38 189 147c0 103 -38 145 -167 145zM194 723l118 135h53
l-136 -135h-35z" />
    <glyph glyph-name="racute" unicode="&#x155;" horiz-adv-x="302" 
d="M290 500v-37c-74 -3 -146 -40 -180 -70v-393h-40v490h33l5 -60c30 25 106 70 182 70zM66 565l118 135h53l-136 -135h-35z" />
    <glyph glyph-name="Rcaron" unicode="&#x158;" horiz-adv-x="560" 
d="M70 648h210c154 0 211 -63 211 -182c0 -121 -69 -159 -131 -170v-2c62 -11 95 -45 118 -126l47 -168h-43l-47 169c-23 81 -91 112 -169 112h-154v-281h-42v648zM280 611h-168v-294c31 1 118 2 146 2c144 0 189 38 189 147c0 103 -38 145 -167 145zM394 858l-125 -135h-39
l-125 135h44l100 -111l101 111h44z" />
    <glyph glyph-name="rcaron" unicode="&#x159;" horiz-adv-x="302" 
d="M290 500v-37c-74 -3 -146 -40 -180 -70v-393h-40v490h33l5 -60c30 25 106 70 182 70zM296 700l-125 -135h-39l-125 135h44l100 -111l101 111h44z" />
    <glyph glyph-name="Sacute" unicode="&#x15a;" horiz-adv-x="524" 
d="M437 165c0 196 -379 104 -379 321c0 125 106 172 215 172c97 0 156 -11 179 -17l-10 -35c-33 8 -97 15 -168 15c-95 0 -173 -36 -173 -135c0 -174 381 -97 381 -321c0 -122 -89 -175 -226 -175c-89 0 -167 14 -202 26l10 34c42 -10 119 -23 188 -23c117 0 185 46 185 138
zM202 723l118 135h53l-136 -135h-35z" />
    <glyph glyph-name="sacute" unicode="&#x15b;" horiz-adv-x="430" 
d="M343 118c0 76 -72 94 -149 120c-70 23 -139 46 -139 135s83 127 174 127c68 0 121 -10 137 -15l-9 -32c-27 5 -84 11 -127 11c-81 0 -132 -30 -132 -91c0 -71 59 -83 147 -112c72 -24 141 -57 141 -143c0 -70 -58 -128 -173 -128c-66 0 -131 17 -157 26l8 31
c22 -5 85 -21 146 -21c80 0 133 30 133 92zM146 565l118 135h53l-136 -135h-35z" />
    <glyph glyph-name="Scircumflex" unicode="&#x15c;" horiz-adv-x="524" 
d="M437 165c0 196 -379 104 -379 321c0 125 106 172 215 172c97 0 156 -11 179 -17l-10 -35c-33 8 -97 15 -168 15c-95 0 -173 -36 -173 -135c0 -174 381 -97 381 -321c0 -122 -89 -175 -226 -175c-89 0 -167 14 -202 26l10 34c42 -10 119 -23 188 -23c117 0 185 46 185 138
zM283 858l123 -135h-44l-101 108l-100 -108h-44l123 135h43z" />
    <glyph glyph-name="scircumflex" unicode="&#x15d;" horiz-adv-x="430" 
d="M343 118c0 76 -72 94 -149 120c-70 23 -139 46 -139 135s83 127 174 127c68 0 121 -10 137 -15l-9 -32c-27 5 -84 11 -127 11c-81 0 -132 -30 -132 -91c0 -71 59 -83 147 -112c72 -24 141 -57 141 -143c0 -70 -58 -128 -173 -128c-66 0 -131 17 -157 26l8 31
c22 -5 85 -21 146 -21c80 0 133 30 133 92zM236 700l123 -135h-44l-101 108l-100 -108h-44l123 135h43z" />
    <glyph glyph-name="Scedilla" unicode="&#x15e;" horiz-adv-x="524" 
d="M437 165c0 196 -379 104 -379 321c0 125 106 172 215 172c97 0 156 -11 179 -17l-10 -35c-33 8 -97 15 -168 15c-95 0 -173 -36 -173 -135c0 -174 381 -97 381 -321c0 -122 -89 -175 -226 -175c-89 0 -167 14 -202 26l10 34c42 -10 119 -23 188 -23c117 0 185 46 185 138
zM196 -221l78 150h53l-100 -150h-31z" />
    <glyph glyph-name="scedilla" unicode="&#x15f;" horiz-adv-x="430" 
d="M343 118c0 76 -72 94 -149 120c-70 23 -139 46 -139 135s83 127 174 127c68 0 121 -10 137 -15l-9 -32c-27 5 -84 11 -127 11c-81 0 -132 -30 -132 -91c0 -71 59 -83 147 -112c72 -24 141 -57 141 -143c0 -70 -58 -128 -173 -128c-66 0 -131 17 -157 26l8 31
c22 -5 85 -21 146 -21c80 0 133 30 133 92zM149 -221l78 150h53l-100 -150h-31z" />
    <glyph glyph-name="Tcaron" unicode="&#x164;" horiz-adv-x="524" 
d="M499 648v-37h-216v-611h-42v611h-216v37h474zM406 858l-125 -135h-39l-125 135h44l100 -111l101 111h44z" />
    <glyph glyph-name="Tbar" unicode="&#x166;" horiz-adv-x="524" 
d="M96 365v32h145v214h-216v37h474v-37h-216v-214h146v-32h-146v-365h-42v365h-145z" />
    <glyph glyph-name="tbar" unicode="&#x167;" horiz-adv-x="334" 
d="M47 277v32h71v145h-72v36h72l7 150l33 3v-153h144l-7 -36h-137v-145h123v-32h-123v-151c0 -64 17 -90 83 -90h58v-36h-64c-73 0 -117 31 -117 126v151h-71z" />
    <glyph glyph-name="Utilde" unicode="&#x168;" horiz-adv-x="600" 
d="M70 171v477h42v-468c0 -119 72 -153 187 -153s189 34 189 153v468h42v-477c0 -124 -83 -181 -231 -181c-147 0 -229 57 -229 181zM164 745l-15 23c18 14 62 49 103 49c39 0 72 -41 104 -41c26 0 68 29 80 38l14 -22c-17 -17 -65 -51 -98 -51c-46 0 -74 41 -108 41
c-28 0 -67 -28 -80 -37z" />
    <glyph glyph-name="utilde" unicode="&#x169;" 
d="M444 0h-33l-5 59c-21 -16 -91 -69 -198 -69c-86 0 -138 46 -138 155v345h40v-338c0 -87 31 -126 112 -126s156 48 182 72v392h40v-490zM121 587l-15 23c18 14 62 49 103 49c39 0 72 -41 104 -41c26 0 68 29 80 38l14 -22c-17 -17 -65 -51 -98 -51c-46 0 -74 41 -108 41
c-28 0 -67 -28 -80 -37z" />
    <glyph glyph-name="Umacron" unicode="&#x16a;" horiz-adv-x="600" 
d="M70 171v477h42v-468c0 -119 72 -153 187 -153s189 34 189 153v468h42v-477c0 -124 -83 -181 -231 -181c-147 0 -229 57 -229 181zM170 751v32h259v-32h-259z" />
    <glyph glyph-name="umacron" unicode="&#x16b;" 
d="M444 0h-33l-5 59c-21 -16 -91 -69 -198 -69c-86 0 -138 46 -138 155v345h40v-338c0 -87 31 -126 112 -126s156 48 182 72v392h40v-490zM127 593v32h259v-32h-259z" />
    <glyph glyph-name="Ubreve" unicode="&#x16c;" horiz-adv-x="600" 
d="M70 171v477h42v-468c0 -119 72 -153 187 -153s189 34 189 153v468h42v-477c0 -124 -83 -181 -231 -181c-147 0 -229 57 -229 181zM190 830h36c0 -41 24 -77 76 -77c53 0 76 36 77 77h36c0 -59 -36 -108 -113 -108c-75 0 -112 49 -112 108z" />
    <glyph glyph-name="ubreve" unicode="&#x16d;" 
d="M444 0h-33l-5 59c-21 -16 -91 -69 -198 -69c-86 0 -138 46 -138 155v345h40v-338c0 -87 31 -126 112 -126s156 48 182 72v392h40v-490zM147 672h36c0 -41 24 -77 76 -77c53 0 76 36 77 77h36c0 -59 -36 -108 -113 -108c-75 0 -112 49 -112 108z" />
    <glyph glyph-name="Uring" unicode="&#x16e;" horiz-adv-x="600" 
d="M70 171v477h42v-468c0 -119 72 -153 187 -153s189 34 189 153v468h42v-477c0 -124 -83 -181 -231 -181c-147 0 -229 57 -229 181zM210 819c0 61 34 93 88 93c57 0 91 -32 91 -93c0 -56 -34 -91 -91 -91c-54 0 -88 35 -88 91zM245 819c0 -42 20 -62 53 -62
c35 0 56 20 56 62c0 46 -21 66 -56 66c-33 0 -53 -20 -53 -66z" />
    <glyph glyph-name="uring" unicode="&#x16f;" 
d="M444 0h-33l-5 59c-21 -16 -91 -69 -198 -69c-86 0 -138 46 -138 155v345h40v-338c0 -87 31 -126 112 -126s156 48 182 72v392h40v-490zM167 661c0 61 34 93 88 93c57 0 91 -32 91 -93c0 -56 -34 -91 -91 -91c-54 0 -88 35 -88 91zM202 661c0 -42 20 -62 53 -62
c35 0 56 20 56 62c0 46 -21 66 -56 66c-33 0 -53 -20 -53 -66z" />
    <glyph glyph-name="Uhungarumlaut" unicode="&#x170;" horiz-adv-x="600" 
d="M70 171v477h42v-468c0 -119 72 -153 187 -153s189 34 189 153v468h42v-477c0 -124 -83 -181 -231 -181c-147 0 -229 57 -229 181zM209 723l118 135h53l-140 -135h-31zM319 723l118 135h53l-140 -135h-31z" />
    <glyph glyph-name="uhungarumlaut" unicode="&#x171;" 
d="M444 0h-33l-5 59c-21 -16 -91 -69 -198 -69c-86 0 -138 46 -138 155v345h40v-338c0 -87 31 -126 112 -126s156 48 182 72v392h40v-490zM166 565l118 135h53l-140 -135h-31zM276 565l118 135h53l-140 -135h-31z" />
    <glyph glyph-name="Uogonek" unicode="&#x172;" horiz-adv-x="600" 
d="M70 171v477h42v-468c0 -119 72 -153 187 -153s189 34 189 153v468h42v-477c0 -99 -54 -151 -134 -171c-39 -10 -119 -59 -119 -116c0 -52 48 -73 88 -73h23v-30h-23c-63 0 -122 31 -122 98c0 54 35 93 82 113c-8 -2 -20 -2 -26 -2c-147 0 -229 57 -229 181z" />
    <glyph glyph-name="Wcircumflex" unicode="&#x174;" horiz-adv-x="838" 
d="M818 648l-183 -648h-63l-112 412c-16 60 -38 124 -41 182h-1c-2 -59 -24 -122 -40 -182l-112 -412h-63l-183 648h48l164 -615h2l167 615h36l167 -615h2l164 615h48zM440 858l123 -135h-44l-101 108l-100 -108h-44l123 135h43z" />
    <glyph glyph-name="wcircumflex" unicode="&#x175;" horiz-adv-x="713" 
d="M695 490l-149 -490h-59l-86 263c-16 51 -36 118 -44 169h-2c-8 -51 -28 -117 -44 -168l-85 -264h-59l-149 490h46l131 -462h2l141 461h37l141 -461h2l131 462h46zM378 700l123 -135h-44l-101 108l-100 -108h-44l123 135h43z" />
    <glyph glyph-name="Ycircumflex" unicode="&#x176;" horiz-adv-x="532" 
d="M245 0v232l-225 416h48l197 -379h2l197 379h48l-225 -416v-232h-42zM287 858l123 -135h-44l-101 108l-100 -108h-44l123 135h43z" />
    <glyph glyph-name="ycircumflex" unicode="&#x177;" horiz-adv-x="492" 
d="M472 490l-217 -549c-45 -114 -60 -168 -195 -168v35c97 0 124 34 165 161l11 34l-27 12l-189 475h46l179 -458h3l179 458h45zM267 700l123 -135h-44l-101 108l-100 -108h-44l123 135h43z" />
    <glyph glyph-name="Zacute" unicode="&#x179;" horiz-adv-x="500" 
d="M53 611v37h396v-37l-361 -574h369v-37h-422v35l363 576h-345zM184 723l118 135h53l-136 -135h-35z" />
    <glyph glyph-name="zacute" unicode="&#x17a;" horiz-adv-x="438" 
d="M63 490h337v-35l-303 -419h314v-36h-368v33l306 421h-286v36zM153 565l118 135h53l-136 -135h-35z" />
    <glyph glyph-name="Zdotaccent" unicode="&#x17b;" horiz-adv-x="500" 
d="M53 611v37h396v-37l-361 -574h369v-37h-422v35l363 576h-345zM223 770c0 21 9 28 25 28c18 0 28 -7 28 -28c0 -18 -10 -27 -28 -27c-16 0 -25 7 -25 27z" />
    <glyph glyph-name="zdotaccent" unicode="&#x17c;" horiz-adv-x="438" 
d="M63 490h337v-35l-303 -419h314v-36h-368v33l306 421h-286v36zM192 612c0 21 9 28 25 28c18 0 28 -7 28 -28c0 -18 -10 -27 -28 -27c-16 0 -25 7 -25 27z" />
    <glyph glyph-name="AEacute" unicode="&#x1fc;" horiz-adv-x="932" 
d="M871 648v-37h-309v-260h288v-35h-288v-278h321v-38h-363v184h-313l-135 -184h-52l481 648h370zM520 610l-287 -386h287v386zM520 723l118 135h53l-136 -135h-35z" />
    <glyph glyph-name="aeacute" unicode="&#x1fd;" horiz-adv-x="813" 
d="M729 48l11 -31c-22 -10 -82 -27 -154 -27c-98 0 -153 36 -182 92c-22 -27 -104 -92 -211 -92c-96 0 -145 71 -145 154c0 89 76 136 253 136h74v51c0 97 -38 133 -118 133c-68 0 -140 -24 -160 -33l-8 34c22 11 89 35 173 35c68 0 121 -21 142 -88c31 61 89 88 185 88
c150 0 177 -96 177 -202c0 -22 -3 -44 -6 -52h-345c4 -171 57 -220 171 -220c64 0 118 12 143 22zM193 26c86 0 168 57 197 88c-13 38 -17 81 -17 127v5h-55c-183 0 -227 -40 -227 -99c0 -66 34 -121 102 -121zM728 280c0 121 -21 184 -139 184c-117 0 -162 -28 -174 -184
h313zM391 565l118 135h53l-136 -135h-35z" />
    <glyph glyph-name="Oslashacute" unicode="&#x1fe;" horiz-adv-x="637" 
d="M283 723l118 135h53l-136 -135h-35zM171 -72l26 83c-98 39 -144 138 -144 313c0 238 85 334 267 334c28 0 53 -3 77 -7l22 69h43l-25 -80c99 -38 147 -135 147 -316c0 -237 -82 -334 -264 -334c-31 0 -60 3 -85 9l-22 -71h-42zM540 324c0 161 -35 246 -115 279l-179 -569
c22 -5 46 -7 74 -7c156 0 220 75 220 297zM97 324c0 -160 33 -243 111 -278l178 569c-20 4 -42 6 -66 6c-158 0 -223 -78 -223 -297z" />
    <glyph glyph-name="oslashacute" unicode="&#x1ff;" horiz-adv-x="527" 
d="M228 565l118 135h53l-136 -135h-35zM132 -72l25 79c-75 31 -107 106 -107 238c0 181 62 255 213 255c17 0 32 -1 47 -3l25 80h43l-28 -88c89 -27 127 -103 127 -244c0 -183 -63 -255 -214 -255c-25 0 -48 2 -68 6l-21 -68h-42zM263 26c126 0 171 51 171 219
c0 124 -26 186 -95 209l-133 -424c17 -3 36 -4 57 -4zM93 245c0 -116 21 -176 75 -202l131 419c-11 1 -23 2 -36 2c-125 0 -170 -56 -170 -219z" />
    <glyph glyph-name="Eth" unicode="&#xd0;" horiz-adv-x="600" 
d="M17 319v35h53v294h170c212 0 307 -56 307 -303v-30c0 -244 -100 -315 -311 -315h-166v319h-53zM213 611h-103v-257h140v-35h-140v-282h103c208 0 289 40 289 278v30c0 239 -81 266 -289 266z" />
    <glyph glyph-name="trademark" unicode="&#x2122;" horiz-adv-x="849" 
d="M342 700v-31h-138v-375h-41v375h-138v31h317zM753 681l-123 -387h-67l-121 387h-1v-387h-39v406h75l102 -326c7 -20 15 -44 18 -65h1c3 21 12 45 19 65l101 326h76v-406h-39v387h-2z" />
    <glyph glyph-name="ordfeminine" unicode="&#xaa;" horiz-adv-x="347" 
d="M81 602l-6 31c15 8 64 25 123 25c55 0 99 -26 99 -107v-224h-30l-2 38c-13 -12 -57 -45 -119 -45c-63 0 -96 47 -96 103c0 58 49 95 167 95h45v28c0 53 -24 79 -74 79c-43 0 -93 -17 -107 -23zM262 398v90h-35c-114 0 -140 -31 -140 -67c0 -34 20 -68 59 -68
c48 0 100 27 116 45z" />
    <glyph glyph-name="ordmasculine" unicode="&#xba;" horiz-adv-x="384" 
d="M192 321c-100 0 -142 47 -142 167c0 121 42 170 142 170s142 -49 142 -170c0 -120 -42 -167 -142 -167zM192 352c77 0 105 35 105 136c0 103 -28 139 -105 139c-76 0 -104 -36 -104 -139c0 -98 28 -136 104 -136z" />
    <glyph glyph-name="approxequal" unicode="&#x2248;" horiz-adv-x="592" 
d="M87 189l-18 29c33 31 77 57 126 57c76 0 135 -77 204 -77c39 0 79 22 109 48l17 -31c-36 -36 -83 -55 -133 -55c-81 0 -144 77 -204 77c-39 0 -74 -24 -101 -48zM86 354l-19 30c31 30 73 56 126 56c78 0 136 -77 204 -77c39 0 79 23 109 48l17 -30
c-36 -37 -83 -56 -133 -56c-76 0 -139 76 -204 76c-39 0 -71 -19 -100 -47z" />
    <glyph glyph-name="asciitilde" unicode="~" horiz-adv-x="521" 
d="M449 635l32 -11c-11 -61 -56 -121 -129 -121c-99 0 -115 118 -189 118c-58 0 -74 -50 -89 -100l-34 13c14 67 58 119 127 119c97 0 116 -117 188 -117c55 0 80 52 94 99z" />
    <glyph glyph-name="apple" horiz-adv-x="616" 
d="M315 484c31 0 84 51 161 27c59 -20 83 -54 86 -62c-42 -25 -75 -77 -72 -132c2 -44 18 -77 37 -98c26 -27 48 -37 54 -41c-43 -111 -99 -178 -148 -178c-40 0 -64 30 -113 30c-51 0 -61 -30 -114 -30c-41 0 -83 58 -104 93c-96 148 -87 340 21 398c97 55 150 -7 192 -7z
M442 683c0 0 2 -64 -33 -108c-48 -60 -102 -50 -102 -50s-5 62 34 104c44 50 101 54 101 54z" />
    <glyph glyph-name="commaaccent" horiz-adv-x="222" 
d="M104 -71h48l-55 -155h-27z" />
    <glyph glyph-name="Gcommaaccent" unicode="&#x122;" horiz-adv-x="580" 
d="M357 314v35h156v-339c-35 -8 -114 -20 -201 -20c-164 0 -259 74 -259 324v20c0 253 94 324 259 324c90 0 164 -16 198 -28l-10 -35c-38 10 -107 26 -184 26c-148 0 -218 -51 -218 -287v-20c0 -238 76 -287 218 -287c49 0 137 9 156 13v274h-115zM300 -71h48l-55 -155h-27
z" />
    <glyph glyph-name="gcommaaccent" unicode="&#x123;" horiz-adv-x="523" 
d="M453 474v-533c0 -102 -66 -168 -193 -168h-136l7 34h112c102 0 170 31 170 132v119c-40 -35 -101 -68 -178 -68c-123 0 -185 64 -185 245v20c0 164 98 245 222 245c83 0 145 -13 181 -26zM413 99v347c-29 13 -87 18 -141 18c-105 0 -179 -67 -179 -209v-20
c0 -152 36 -209 146 -209c70 0 143 40 174 73zM300 720h48l-55 -155h-27z" />
    <glyph glyph-name="Scommaaccent" unicode="&#x218;" horiz-adv-x="524" 
d="M437 165c0 196 -379 104 -379 321c0 125 106 172 215 172c97 0 156 -11 179 -17l-10 -35c-33 8 -97 15 -168 15c-95 0 -173 -36 -173 -135c0 -174 381 -97 381 -321c0 -122 -89 -175 -226 -175c-89 0 -167 14 -202 26l10 34c42 -10 119 -23 188 -23c117 0 185 46 185 138
zM260 -71h48l-55 -155h-27z" />
    <glyph glyph-name="scommaaccent" unicode="&#x219;" horiz-adv-x="430" 
d="M343 118c0 76 -72 94 -149 120c-70 23 -139 46 -139 135s83 127 174 127c68 0 121 -10 137 -15l-9 -32c-27 5 -84 11 -127 11c-81 0 -132 -30 -132 -91c0 -71 59 -83 147 -112c72 -24 141 -57 141 -143c0 -70 -58 -128 -173 -128c-66 0 -131 17 -157 26l8 31
c22 -5 85 -21 146 -21c80 0 133 30 133 92zM208 -71h48l-55 -155h-27z" />
    <glyph glyph-name="Tcommaaccent" unicode="&#x162;" horiz-adv-x="524" 
d="M499 648v-37h-216v-611h-42v611h-216v37h474zM236 -71h48l-55 -155h-27z" />
    <glyph glyph-name="tcommaaccent" unicode="&#x163;" horiz-adv-x="334" 
d="M158 643v-153h144l-7 -34h-137v-330c0 -64 17 -90 83 -90h58v-36h-64c-73 0 -117 31 -117 126v330h-72v34h72l7 150zM170 -71h48l-55 -155h-27z" />
    <glyph glyph-name="dcaron" unicode="&#x10f;" horiz-adv-x="533" 
d="M453 690v-690h-33l-4 58c-40 -35 -104 -68 -181 -68c-123 0 -185 64 -185 245v20c0 164 98 245 222 245c58 0 105 -6 141 -18v218zM413 99v347c-29 13 -87 18 -141 18c-105 0 -179 -67 -179 -209v-20c0 -152 36 -209 146 -209c70 0 143 40 174 73zM526 700h48l-55 -155
h-27z" />
    <glyph glyph-name="tcaron" unicode="&#x165;" horiz-adv-x="334" 
d="M158 643v-153h144l-7 -34h-137v-330c0 -64 17 -90 83 -90h58v-36h-64c-73 0 -117 31 -117 126v330h-72v34h72l7 150zM256 700h48l-55 -155h-27z" />
    <glyph glyph-name="Lcaron" unicode="&#x13d;" horiz-adv-x="452" 
d="M422 0h-352v648h42v-610h310v-38zM236 700h48l-55 -155h-27z" />
    <glyph glyph-name="lcaron" unicode="&#x13e;" horiz-adv-x="190" 
d="M70 690l40 10v-700h-40v690zM194 700h48l-55 -155h-27z" />
    <glyph glyph-name="Ncommaaccent" unicode="&#x145;" horiz-adv-x="615" 
d="M470 0l-356 616h-2v-616h-42v648h71l360 -617h2v617h42v-648h-75zM300 -71h48l-55 -155h-27z" />
    <glyph glyph-name="ncommaaccent" unicode="&#x146;" 
d="M70 490h32l6 -52c17 14 98 62 186 62c98 0 150 -45 150 -160v-340h-40v340c0 84 -28 124 -112 124c-83 0 -164 -47 -182 -61v-403h-40v490zM250 -71h48l-55 -155h-27z" />
    <glyph glyph-name="Rcommaaccent" unicode="&#x156;" horiz-adv-x="560" 
d="M70 648h210c154 0 211 -63 211 -182c0 -121 -69 -159 -131 -170v-2c62 -11 95 -45 118 -126l47 -168h-43l-47 169c-23 81 -91 112 -169 112h-154v-281h-42v648zM280 611h-168v-294c31 1 118 2 146 2c144 0 189 38 189 147c0 103 -38 145 -167 145zM273 -71h48l-55 -155
h-27z" />
    <glyph glyph-name="rcommaaccent" unicode="&#x157;" horiz-adv-x="302" 
d="M290 500v-37c-74 -3 -146 -40 -180 -70v-393h-40v490h33l5 -60c30 25 106 70 182 70zM69 -71h48l-55 -155h-27z" />
    <glyph glyph-name="uni00AD" unicode="&#xad;" horiz-adv-x="367" 
d="M66 260v37h235v-37h-235z" />
    <glyph glyph-name="currency" unicode="&#xa4;" horiz-adv-x="564" 
d="M470 312c0 -72 -20 -123 -56 -161l79 -102l-30 -24l-81 106c-27 -17 -66 -23 -100 -23c-39 0 -75 7 -100 23l-81 -106l-30 24l79 102c-36 38 -56 89 -56 161c0 73 17 131 57 163l-81 103l32 22l80 -106c23 13 55 23 100 23c41 0 73 -8 100 -23l80 106l32 -22l-81 -103
c42 -37 57 -89 57 -163zM429 314c0 107 -42 169 -147 169s-147 -62 -147 -169c0 -109 42 -172 147 -172s147 63 147 172z" />
    <glyph glyph-name=".null" horiz-adv-x="0" 
 />
    <glyph glyph-name="IJ" unicode="&#x132;" horiz-adv-x="502" 
d="M70 649h42v-649h-42v649zM432 648v-464c0 -137 -84 -185 -192 -185h-20l-8 36h18c92 0 161 37 161 137v476h41z" />
    <glyph glyph-name="ij" unicode="&#x133;" horiz-adv-x="390" 
d="M77 490h40v-490h-40v490zM70 651c0 21 9 28 25 28c18 0 28 -7 28 -28c0 -18 -10 -27 -28 -27c-16 0 -25 7 -25 27zM274 490h40v-566c0 -87 -49 -151 -140 -151h-21l6 34h5c81 0 110 53 110 109v574zM267 651c0 21 9 28 25 28c18 0 28 -7 28 -28c0 -18 -10 -27 -28 -27
c-16 0 -25 7 -25 27z" />
    <glyph glyph-name="Kcommaaccent" unicode="&#x136;" horiz-adv-x="512" 
d="M112 648v-310l317 310h54l-321 -313l340 -335h-57l-333 326v-326h-42v648h42zM249 -71h48l-55 -155h-27z" />
    <glyph glyph-name="kcommaaccent" unicode="&#x137;" horiz-adv-x="426" 
d="M373 0l-263 263v-263h-40v690l40 10v-425l245 215h54l-250 -221l267 -269h-53zM206 -71h48l-55 -155h-27z" />
    <glyph glyph-name="Lcommaaccent" unicode="&#x13b;" horiz-adv-x="452" 
d="M422 0h-352v648h42v-610h310v-38zM219 -71h48l-55 -155h-27z" />
    <glyph glyph-name="lcommaaccent" unicode="&#x13c;" horiz-adv-x="180" 
d="M70 690l40 10v-700h-40v690zM69 -71h48l-55 -155h-27z" />
    <glyph glyph-name="napostrophe" unicode="&#x149;" horiz-adv-x="536" 
d="M92 490h32l6 -52c17 14 98 62 186 62c98 0 150 -45 150 -160v-340h-40v340c0 84 -28 124 -112 124c-83 0 -164 -47 -182 -61v-403h-40v490zM33 687h48l-55 -155h-27z" />
    <glyph glyph-name="longs" unicode="&#x17f;" horiz-adv-x="317" 
d="M156 0h-40v453l-70 5v32h70v86c0 75 34 122 124 122h77l-9 -34h-68c-61 0 -84 -30 -84 -85v-579z" />
    <glyph glyph-name="onesuperior" unicode="&#xb9;" horiz-adv-x="282" 
d="M57 300v35h69v317l-68 -22l-8 33l82 25h34v-353h61v-35h-170z" />
    <glyph glyph-name="twosuperior" unicode="&#xb2;" horiz-adv-x="340" 
d="M69 637l-3 37c18 6 52 16 95 16c99 0 126 -42 126 -111c0 -76 -88 -174 -167 -244h175v-35h-240v30c99 88 188 176 188 249c0 53 -21 74 -84 74c-32 0 -66 -10 -90 -16z" />
    <glyph glyph-name="threesuperior" unicode="&#xb3;" horiz-adv-x="335" 
d="M68 636l-3 38c21 7 52 16 100 16c68 0 111 -23 111 -93c0 -44 -26 -79 -65 -90c41 -8 79 -37 79 -91c0 -61 -24 -116 -186 -116h-49l6 35h38c95 0 146 13 146 83c0 36 -28 58 -59 64c-21 4 -51 3 -77 3v35c27 0 55 0 74 7c29 9 49 33 49 70c0 43 -24 57 -71 57
c-35 0 -73 -11 -93 -18z" />
    <glyph glyph-name="onehalf" unicode="&#xbd;" horiz-adv-x="800" 
d="M67 300v35h69v317l-68 -22l-8 33l82 25h34v-353h61v-35h-170zM231 -72l252 807h43l-253 -807h-42zM514 338l-3 37c18 6 52 16 95 16c99 0 126 -42 126 -111c0 -76 -88 -174 -167 -244h175v-35h-240v30c99 88 188 176 188 249c0 53 -21 74 -84 74c-32 0 -66 -10 -90 -16z
" />
    <glyph glyph-name="onequarter" unicode="&#xbc;" horiz-adv-x="811" 
d="M241 -72l252 807h43l-253 -807h-42zM67 300v35h69v317l-68 -22l-8 33l82 25h34v-353h61v-35h-170zM459 128l193 262h53v-257h46l-5 -38h-41v-95h-44v95h-202v33zM508 133h153v209z" />
    <glyph glyph-name="threequarters" unicode="&#xbe;" horiz-adv-x="818" 
d="M265 -72l252 807h43l-253 -807h-42zM466 128l193 262h53v-257h46l-5 -38h-41v-95h-44v95h-202v33zM515 133h153v209zM73 636l-3 38c21 7 52 16 100 16c68 0 111 -23 111 -93c0 -44 -26 -79 -65 -90c41 -8 79 -37 79 -91c0 -61 -24 -116 -186 -116h-49l6 35h38
c95 0 146 13 146 83c0 36 -28 58 -59 64c-21 4 -51 3 -77 3v35c27 0 55 0 74 7c29 9 49 33 49 70c0 43 -24 57 -71 57c-35 0 -73 -11 -93 -18z" />
    <glyph glyph-name="foursuperior" unicode="&#x2074;" horiz-adv-x="387" 
d="M40 428l193 262h53v-257h46l-5 -38h-41v-95h-44v95h-202v33zM89 433h153v209z" />
    <glyph glyph-name="eth" unicode="&#xf0;" horiz-adv-x="530" 
d="M244 590l-11 32l107 29c-15 21 -34 46 -58 67h42c17 -15 34 -35 50 -59l82 22l15 -30l-79 -21c52 -85 89 -188 89 -357v-28c0 -180 -55 -256 -212 -256c-149 0 -219 73 -219 256c0 181 69 256 219 256c87 0 146 -46 165 -76c-16 78 -52 156 -79 195zM269 25
c120 0 173 52 173 220v101c0 51 -82 121 -173 121c-123 0 -174 -56 -174 -222c0 -168 54 -220 174 -220z" />
    <glyph glyph-name="zero.osf" unicode="&#xe060;" horiz-adv-x="566" 
d="M516 247c0 -165 -60 -257 -232 -257c-173 0 -234 92 -234 257c0 164 61 252 234 252c174 0 232 -88 232 -252zM469 249c0 148 -47 214 -185 214s-186 -66 -186 -214c0 -150 48 -223 186 -223s185 73 185 223z" />
    <glyph glyph-name="one.osf" unicode="&#xe061;" horiz-adv-x="386" 
d="M62 0v36h122v424c-32 -11 -79 -24 -116 -32l-8 33c46 10 85 21 130 35h36v-460h120v-36h-284z" />
    <glyph glyph-name="two.osf" unicode="&#xe062;" horiz-adv-x="505" 
d="M82 435l-4 38c27 11 82 27 150 27c140 0 202 -46 202 -155c0 -136 -214 -255 -311 -309h325v-36h-389v36c138 84 328 192 328 312c0 89 -54 114 -159 114c-61 0 -110 -17 -142 -27z" />
    <glyph glyph-name="three.osf" unicode="&#xe063;" horiz-adv-x="497" 
d="M69 445l-3 35c30 9 79 20 162 20c107 0 176 -36 176 -149c0 -85 -45 -142 -116 -161c74 -7 139 -64 139 -153c0 -109 -39 -195 -306 -195h-66l6 37h51c175 0 270 24 270 158c0 76 -48 110 -116 124c-36 7 -79 7 -120 7v34c42 0 82 1 115 12c60 19 99 61 99 137
c0 88 -46 113 -139 113c-68 0 -126 -10 -152 -19z" />
    <glyph glyph-name="four.osf" unicode="&#xe064;" horiz-adv-x="561" 
d="M40 44l327 452h65v-453h79l-7 -36h-72v-165h-42v165h-350v37zM88 43h302v422z" />
    <glyph glyph-name="five.osf" unicode="&#xe065;" horiz-adv-x="506" 
d="M97 490h323l-11 -36h-274l-5 -229h82c198 0 240 -56 240 -181c0 -148 -102 -202 -299 -202h-83l6 36h66c189 0 264 44 264 166c0 114 -31 144 -222 144h-97z" />
    <glyph glyph-name="six.osf" unicode="&#xe066;" horiz-adv-x="522" 
d="M418 652l-6 -35c-220 -4 -295 -45 -310 -264c54 19 123 32 181 32c134 0 189 -65 189 -188c0 -127 -62 -207 -207 -207c-161 0 -205 99 -205 256v62c0 282 102 341 358 344zM102 316v-71c0 -165 51 -219 163 -219c106 0 161 36 161 171c0 111 -36 151 -144 151
c-66 0 -134 -15 -180 -32z" />
    <glyph glyph-name="seven.osf" unicode="&#xe067;" horiz-adv-x="489" 
d="M439 489l-6 -46c-99 -190 -184 -404 -240 -606l-45 11c58 191 147 407 243 604h-357l1 37h404z" />
    <glyph glyph-name="eight.osf" unicode="&#xe068;" horiz-adv-x="530" 
d="M266 658c120 0 193 -50 193 -160c0 -71 -46 -123 -104 -148c66 -21 125 -69 125 -175c0 -114 -73 -185 -215 -185c-143 0 -215 71 -215 185c0 106 60 154 124 174c-61 26 -103 74 -103 149c0 113 77 160 195 160zM265 26c101 0 169 45 169 149c0 119 -77 152 -148 152
h-42c-70 0 -148 -33 -148 -152c0 -104 66 -149 169 -149zM244 361h42c57 0 129 55 129 137c0 98 -60 124 -149 124c-95 0 -151 -29 -151 -124c0 -82 72 -137 129 -137z" />
    <glyph glyph-name="nine.osf" unicode="&#xe069;" horiz-adv-x="522" 
d="M104 -158l6 35c220 4 295 45 310 264c-54 -19 -123 -32 -181 -32c-134 0 -189 65 -189 188c0 127 62 207 207 207c161 0 205 -99 205 -256v-62c0 -282 -102 -341 -358 -344zM420 178v71c0 165 -51 219 -163 219c-106 0 -161 -36 -161 -171c0 -111 36 -151 144 -151
c66 0 134 15 180 32z" />
    <glyph glyph-name="f_j" horiz-adv-x="517" 
d="M156 0h-40v453l-70 5v32h70v86c0 75 34 122 124 122h77l-9 -34h-68c-61 0 -84 -30 -84 -85v-89h285v-566c0 -87 -49 -151 -140 -151h-21l6 34h5c81 0 110 53 110 109v538h-245v-454zM394 651c0 21 9 28 25 28c18 0 28 -7 28 -28c0 -18 -10 -27 -28 -27
c-16 0 -25 7 -25 27z" />
    <glyph glyph-name="f_h" horiz-adv-x="834" 
d="M156 0h-40v453l-70 5v32h70v86c0 75 34 122 124 122h182l8 2v-262c20 16 99 62 184 62c98 0 150 -45 150 -160v-340h-40v340c0 84 -28 124 -112 124c-83 0 -164 -48 -182 -62v-402h-40v664h-150c-61 0 -84 -30 -84 -85v-89h153l-7 -36h-146v-454z" />
    <glyph glyph-name="f_k" horiz-adv-x="746" 
d="M693 0l-263 263v-263h-40v664h-150c-61 0 -84 -30 -84 -85v-89h153l-7 -36h-146v-454h-40v453l-70 5v32h70v86c0 75 34 122 124 122h182l8 2v-425l245 215h54l-250 -221l267 -269h-53z" />
    <glyph glyph-name="f_b" horiz-adv-x="843" 
d="M390 16v648h-150c-61 0 -84 -30 -84 -85v-89h153l-7 -36h-146v-454h-40v453l-70 5v32h70v86c0 75 34 122 124 122h182l8 2v-268c40 35 101 68 178 68c123 0 185 -64 185 -245v-20c0 -164 -98 -245 -222 -245c-83 0 -145 13 -181 26zM430 391v-347c29 -13 87 -18 141 -18
c105 0 179 67 179 209v20c0 152 -36 209 -146 209c-70 0 -143 -40 -174 -73z" />
    <glyph glyph-name="uni021A" unicode="&#x21a;" horiz-adv-x="524" 
d="M499 648v-37h-216v-611h-42v611h-216v37h474zM236 -71h48l-55 -155h-27z" />
    <glyph glyph-name="uni021B" unicode="&#x21b;" horiz-adv-x="334" 
d="M158 643v-153h144l-7 -34h-137v-330c0 -64 17 -90 83 -90h58v-36h-64c-73 0 -117 31 -117 126v330h-72v34h72l7 150zM170 -71h48l-55 -155h-27z" />
    <glyph glyph-name="f_f_i" unicode="&#xfb03;" horiz-adv-x="833" 
d="M476 0h-40v454h-280v-454h-40v453l-70 5v32h70v86c0 75 34 122 124 122h97l-9 -34h-88c-61 0 -84 -30 -84 -85v-89h280l-1 86c0 75 35 122 125 122h77l-9 -34h-68c-61 0 -84 -30 -84 -85v-89h281v-490h-40v454h-241v-454zM710 651c0 21 9 28 25 28c18 0 28 -7 28 -28
c0 -18 -10 -27 -28 -27c-16 0 -25 7 -25 27z" />
    <glyph glyph-name="f_f_l" unicode="&#xfb04;" horiz-adv-x="820" 
d="M476 0h-40v454h-280v-454h-40v453l-70 5v32h70v86c0 75 34 122 124 122h97l-9 -34h-88c-61 0 -84 -30 -84 -85v-89h280l-1 86c0 75 35 122 125 122h182l8 2v-700h-40v664h-150c-61 0 -84 -30 -84 -85v-89h153l-7 -36h-146v-454z" />
    <glyph glyph-name="c_l" horiz-adv-x="616" 
d="M401 465l-11 -30c-25 11 -68 29 -126 29c-124 0 -171 -56 -171 -222c0 -167 49 -216 170 -216c51 0 104 15 122 23l12 -32c-25 -10 -81 -27 -143 -27c-128 0 -204 59 -204 252c0 194 73 258 210 258c18 0 39 -2 54 -8c-44 27 -58 55 -58 90c0 62 87 118 181 118
c118 0 109 -112 109 -209v-491h-40v481c0 98 7 186 -69 186c-74 0 -143 -43 -143 -87c0 -36 21 -65 95 -108z" />
    <glyph glyph-name="c_h" horiz-adv-x="950" 
d="M401 465l-11 -30c-25 11 -68 29 -126 29c-124 0 -171 -56 -171 -222c0 -167 49 -216 170 -216c51 0 104 15 122 23l12 -32c-25 -10 -81 -27 -143 -27c-128 0 -204 59 -204 252c0 194 73 258 210 258c18 0 39 -2 54 -8c-44 27 -58 55 -58 90c0 62 87 118 181 118
c118 0 109 -112 109 -209v-53c20 16 99 62 184 62c98 0 150 -45 150 -160v-340h-40v340c0 84 -28 124 -112 124c-83 0 -164 -48 -182 -62v-402h-40v481c0 98 7 186 -69 186c-74 0 -143 -43 -143 -87c0 -36 21 -65 95 -108z" />
    <glyph glyph-name="c_k" horiz-adv-x="862" 
d="M401 465l-11 -30c-25 11 -68 29 -126 29c-124 0 -171 -56 -171 -222c0 -167 49 -216 170 -216c51 0 104 15 122 23l12 -32c-25 -10 -81 -27 -143 -27c-128 0 -204 59 -204 252c0 194 73 258 210 258c18 0 39 -2 54 -8c-44 27 -58 55 -58 90c0 62 87 118 181 118
c118 0 109 -112 109 -209v-216l245 215h54l-250 -221l267 -269h-53l-263 263v-263h-40v481c0 98 7 186 -69 186c-74 0 -143 -43 -143 -87c0 -36 21 -65 95 -108z" />
    <glyph glyph-name="c_t" horiz-adv-x="770" 
d="M401 465l-11 -30c-25 11 -68 29 -126 29c-124 0 -171 -56 -171 -222c0 -167 49 -216 170 -216c51 0 104 15 122 23l12 -32c-25 -10 -81 -27 -143 -27c-128 0 -204 59 -204 252c0 194 73 258 210 258c28 0 56 -8 78 -19c-31 23 -57 56 -57 101c0 64 91 108 188 108
c80 0 125 -45 125 -147v-53h144l-7 -34h-137v-330c0 -64 17 -90 83 -90h58v-36h-64c-73 0 -117 31 -117 126v330h-72v34h72l2 51c2 57 -16 116 -83 116c-77 0 -154 -30 -154 -80c0 -42 42 -89 75 -108z" />
    <glyph glyph-name="s_l" horiz-adv-x="610" 
d="M343 118c0 76 -72 94 -149 120c-70 23 -139 46 -139 135s83 127 174 127c34 0 75 -6 96 -11c-26 9 -75 42 -75 99c0 62 92 112 176 112c110 0 114 -107 114 -204v-496h-40v486c0 98 -5 181 -74 181c-64 0 -138 -37 -138 -81c0 -46 58 -89 76 -100l2 -1l-9 -32
c-27 5 -84 11 -127 11c-81 0 -132 -30 -132 -91c0 -71 59 -83 147 -112c72 -24 141 -57 141 -143c0 -70 -58 -128 -173 -128c-66 0 -131 17 -157 26l8 31c22 -5 85 -21 146 -21c80 0 133 30 133 92z" />
    <glyph glyph-name="s_h" horiz-adv-x="944" 
d="M343 118c0 76 -72 94 -149 120c-70 23 -139 46 -139 135s83 127 174 127c32 0 72 -5 93 -10c-26 10 -72 43 -72 98c0 62 92 112 176 112c110 0 114 -107 114 -204v-58c20 16 99 62 184 62c98 0 150 -45 150 -160v-340h-40v340c0 84 -28 124 -112 124
c-83 0 -164 -48 -182 -62v-402h-40v486c0 98 -5 181 -74 181c-64 0 -138 -37 -138 -81c0 -46 58 -89 76 -100l2 -1l-9 -32c-27 5 -84 11 -127 11c-81 0 -132 -30 -132 -91c0 -71 59 -83 147 -112c72 -24 141 -57 141 -143c0 -70 -58 -128 -173 -128c-66 0 -131 17 -157 26
l8 31c22 -5 85 -21 146 -21c80 0 133 30 133 92z" />
    <glyph glyph-name="s_t" unicode="&#xfb06;" horiz-adv-x="764" 
d="M343 118c0 76 -72 94 -149 120c-70 23 -139 46 -139 135s83 127 174 127c32 0 72 -5 93 -10c-26 10 -72 43 -72 98c0 72 120 112 214 112c84 0 124 -54 124 -165v-45h144l-7 -34h-137v-330c0 -64 17 -90 83 -90h58v-36h-64c-73 0 -117 31 -117 126v330h-72v34h72l2 44
c4 94 -32 133 -86 133c-74 0 -176 -27 -176 -81c0 -46 58 -89 76 -100l2 -1l-9 -32c-27 5 -84 11 -127 11c-81 0 -132 -30 -132 -91c0 -71 59 -83 147 -112c72 -24 141 -57 141 -143c0 -70 -58 -128 -173 -128c-66 0 -131 17 -157 26l8 31c22 -5 85 -21 146 -21
c80 0 133 30 133 92z" />
    <glyph glyph-name="s_p" horiz-adv-x="953" 
d="M343 118c0 76 -72 94 -149 120c-70 23 -139 46 -139 135s83 127 174 127c32 0 72 -5 93 -10c-26 10 -72 43 -72 98c0 62 92 112 176 112c110 0 114 -107 114 -204v-63c40 35 102 67 178 67c123 0 185 -64 185 -245v-20c0 -164 -98 -245 -222 -245c-58 0 -105 6 -141 18
v-235h-40v713c0 98 -5 181 -74 181c-64 0 -138 -37 -138 -81c0 -46 58 -89 76 -100l2 -1l-9 -32c-27 5 -84 11 -127 11c-81 0 -132 -30 -132 -91c0 -71 59 -83 147 -112c72 -24 141 -57 141 -143c0 -70 -58 -128 -173 -128c-66 0 -131 17 -157 26l8 31c22 -5 85 -21 146 -21
c80 0 133 30 133 92zM540 391v-347c29 -13 87 -18 141 -18c105 0 179 67 179 209v20c0 152 -36 209 -146 209c-70 0 -143 -40 -174 -73z" />
    <glyph glyph-name="a.alt_grave" horiz-adv-x="513" 
d="M443 474v-474h-40v58c-40 -35 -95 -68 -172 -68c-123 0 -181 64 -181 245v20c0 164 94 245 218 245c83 0 139 -13 175 -26zM403 99v347c-29 13 -81 18 -135 18c-105 0 -175 -67 -175 -209v-20c0 -152 32 -209 142 -209c70 0 137 40 168 73zM216 700l118 -135h-35
l-136 135h53z" />
    <glyph glyph-name="a.alt_acute" horiz-adv-x="513" 
d="M443 474v-474h-40v58c-40 -35 -95 -68 -172 -68c-123 0 -181 64 -181 245v20c0 164 94 245 218 245c83 0 139 -13 175 -26zM403 99v347c-29 13 -81 18 -135 18c-105 0 -175 -67 -175 -209v-20c0 -152 32 -209 142 -209c70 0 137 40 168 73zM222 565l118 135h53l-136 -135
h-35z" />
    <glyph glyph-name="a.alt_circumflex" horiz-adv-x="513" 
d="M443 474v-474h-40v58c-40 -35 -95 -68 -172 -68c-123 0 -181 64 -181 245v20c0 164 94 245 218 245c83 0 139 -13 175 -26zM403 99v347c-29 13 -81 18 -135 18c-105 0 -175 -67 -175 -209v-20c0 -152 32 -209 142 -209c70 0 137 40 168 73zM286 700l123 -135h-44
l-101 108l-100 -108h-44l123 135h43z" />
    <glyph glyph-name="a.alt_tilde" horiz-adv-x="513" 
d="M443 474v-474h-40v58c-40 -35 -95 -68 -172 -68c-123 0 -181 64 -181 245v20c0 164 94 245 218 245c83 0 139 -13 175 -26zM403 99v347c-29 13 -81 18 -135 18c-105 0 -175 -67 -175 -209v-20c0 -152 32 -209 142 -209c70 0 137 40 168 73zM132 587l-15 23
c18 14 62 49 103 49c39 0 72 -41 104 -41c26 0 68 29 80 38l14 -22c-17 -17 -65 -51 -98 -51c-46 0 -74 41 -108 41c-28 0 -67 -28 -80 -37z" />
    <glyph glyph-name="a.alt_dieresis" horiz-adv-x="513" 
d="M443 474v-474h-40v58c-40 -35 -95 -68 -172 -68c-123 0 -181 64 -181 245v20c0 164 94 245 218 245c83 0 139 -13 175 -26zM403 99v347c-29 13 -81 18 -135 18c-105 0 -175 -67 -175 -209v-20c0 -152 32 -209 142 -209c70 0 137 40 168 73zM145 626c0 22 9 30 26 30
c19 0 29 -8 29 -30c0 -18 -10 -28 -29 -28c-17 0 -26 8 -26 28zM332 626c0 22 9 30 26 30c19 0 29 -8 29 -30c0 -18 -10 -28 -29 -28c-17 0 -26 8 -26 28z" />
    <glyph glyph-name="a.alt_ring" horiz-adv-x="513" 
d="M443 474v-474h-40v58c-40 -35 -95 -68 -172 -68c-123 0 -181 64 -181 245v20c0 164 94 245 218 245c83 0 139 -13 175 -26zM403 99v347c-29 13 -81 18 -135 18c-105 0 -175 -67 -175 -209v-20c0 -152 32 -209 142 -209c70 0 137 40 168 73zM180 661c0 61 34 93 88 93
c57 0 91 -32 91 -93c0 -56 -34 -91 -91 -91c-54 0 -88 35 -88 91zM215 661c0 -42 20 -62 53 -62c35 0 56 20 56 62c0 46 -21 66 -56 66c-33 0 -53 -20 -53 -66z" />
    <glyph glyph-name="a.alt_macron" horiz-adv-x="513" 
d="M443 474v-474h-40v58c-40 -35 -95 -68 -172 -68c-123 0 -181 64 -181 245v20c0 164 94 245 218 245c83 0 139 -13 175 -26zM403 99v347c-29 13 -81 18 -135 18c-105 0 -175 -67 -175 -209v-20c0 -152 32 -209 142 -209c70 0 137 40 168 73zM137 593v32h259v-32h-259z" />
    <glyph glyph-name="a.alt_breve" horiz-adv-x="513" 
d="M443 474v-474h-40v58c-40 -35 -95 -68 -172 -68c-123 0 -181 64 -181 245v20c0 164 94 245 218 245c83 0 139 -13 175 -26zM403 99v347c-29 13 -81 18 -135 18c-105 0 -175 -67 -175 -209v-20c0 -152 32 -209 142 -209c70 0 137 40 168 73zM161 672h36
c0 -41 24 -77 76 -77c53 0 76 36 77 77h36c0 -59 -36 -108 -113 -108c-75 0 -112 49 -112 108z" />
    <glyph glyph-name="a.alt_ogonek" horiz-adv-x="513" 
d="M403 0v58c-40 -35 -95 -68 -172 -68c-123 0 -181 64 -181 245v20c0 164 94 245 218 245c83 0 139 -13 175 -26v-474c-11 -8 -102 -50 -102 -116c0 -52 48 -73 88 -73h23v-30h-23c-63 0 -122 31 -122 98s63 108 96 121zM403 99v347c-29 13 -81 18 -135 18
c-105 0 -175 -67 -175 -209v-20c0 -152 32 -209 142 -209c70 0 137 40 168 73z" />
    <glyph glyph-name="f_f_j" horiz-adv-x="837" 
d="M476 0h-40v454h-280v-454h-40v453l-70 5v32h70v86c0 75 34 122 124 122h97l-9 -34h-88c-61 0 -84 -30 -84 -85v-89h280v86c0 75 34 122 124 122h77l-9 -34h-68c-61 0 -84 -30 -84 -85v-89h285v-566c0 -87 -49 -151 -140 -151h-21l6 34h5c81 0 110 53 110 109v538h-245
v-454zM714 651c0 21 9 28 25 28c18 0 28 -7 28 -28c0 -18 -10 -27 -28 -27c-16 0 -25 7 -25 27z" />
    <glyph glyph-name="f_f" unicode="&#xfb00;" horiz-adv-x="640" 
d="M476 0h-40v453l-14 1h-266v-454h-40v453l-70 5v32h70v86c0 75 34 122 124 122h97l-9 -34h-88c-61 0 -84 -30 -84 -85v-89h280v86c0 75 34 122 124 122h77l-9 -34h-68c-61 0 -84 -30 -84 -85v-89h153l-7 -36h-146v-454z" />
    </font>
</defs>
</svg>
