<?xml version="1.0" standalone="no"?>
<!DOCTYPE svg PUBLIC "-//W3C//DTD SVG 1.1//EN" "http://www.w3.org/Graphics/SVG/1.1/DTD/svg11.dtd" >
<svg>
<metadata>
Created by FontForge 20120731 at Fri Aug  8 16:23:47 2014
 By World Wide Web Server
This font is for personal use only, commercial use is allowed ONLY under authorization from the designer. The designer is NOT responsible or liable, directly or indirectly, for any consequence caused or alleged to be caused by this font.
</metadata>
<defs>
<font id="Melor" horiz-adv-x="553" >
  <font-face 
    font-family="Melor"
    font-weight="400"
    font-stretch="normal"
    units-per-em="1000"
    panose-1="2 0 8 3 5 0 0 2 0 4"
    ascent="770"
    descent="-230"
    x-height="490"
    cap-height="649"
    bbox="-60 -234 1477 904"
    underline-thickness="50"
    underline-position="-50"
    stemh="62"
    stemv="80"
    unicode-range="U+0020-FB06"
  />
<missing-glyph horiz-adv-x="504" 
d="M80 577l-16 60c15 7 89 21 176 21c121 0 190 -37 190 -162c0 -165 -178 -127 -178 -249v-77h-80v78c0 166 174 138 174 248c0 66 -30 98 -106 98c-69 0 -143 -11 -160 -17zM162 42c0 38 19 52 49 52c35 0 50 -14 50 -52c0 -36 -15 -52 -50 -52c-30 0 -49 14 -49 52z" />
    <glyph glyph-name="fi" unicode="fi" horiz-adv-x="597" 
d="M196 0h-80v430l-66 5v55h66v67c0 75 39 141 139 141h91l-15 -60h-76c-45 0 -59 -27 -59 -78v-70h321v-490h-79v430h-242v-430zM430 632c0 36 17 50 45 50c33 0 50 -14 50 -50c0 -33 -17 -49 -50 -49c-28 0 -45 13 -45 49z" />
    <glyph glyph-name="fl" unicode="fl" horiz-adv-x="598" 
d="M196 0h-80v430l-66 5v55h66v67c0 75 39 141 139 141h248l15 2v-700h-80v638h-183c-45 0 -59 -27 -59 -78v-70h141l-10 -60h-131v-430z" />
    <glyph glyph-name="f_f" unicode="ff" horiz-adv-x="710" 
d="M550 0h-80v430h-274v-430h-80v430l-66 5v55h66v67c0 75 39 141 139 141h111l-15 -60h-96c-45 0 -59 -27 -59 -78v-70h274v67c0 75 39 141 139 141h91l-15 -60h-76c-45 0 -59 -27 -59 -78v-70h141l-10 -60h-131v-430z" />
    <glyph glyph-name=".notdef" horiz-adv-x="504" 
d="M80 577l-16 60c15 7 89 21 176 21c121 0 190 -37 190 -162c0 -165 -178 -127 -178 -249v-77h-80v78c0 166 174 138 174 248c0 66 -30 98 -106 98c-69 0 -143 -11 -160 -17zM162 42c0 38 19 52 49 52c35 0 50 -14 50 -52c0 -36 -15 -52 -50 -52c-30 0 -49 14 -49 52z" />
    <glyph glyph-name=".null" horiz-adv-x="0" 
 />
    <glyph glyph-name="J" unicode="J" horiz-adv-x="365" 
d="M287 648v-458c0 -141 -90 -191 -205 -191h-38l-14 62h42c76 0 133 32 133 118v469h82z" />
    <glyph glyph-name="K" unicode="K" horiz-adv-x="555" 
d="M160 648v-285l272 285h100l-296 -314l315 -334h-103l-288 303v-303h-82v648h82z" />
    <glyph glyph-name="L" unicode="L" horiz-adv-x="482" 
d="M456 0h-378v648h82v-584h296v-64z" />
    <glyph glyph-name="M" unicode="M" horiz-adv-x="806" 
d="M355 1l-155 444c-16 45 -32 110 -41 148h-3c3 -38 2 -110 2 -148v-445h-80v648h125l164 -443c16 -43 32 -112 35 -147h2c3 35 19 104 35 147l164 443h125v-648h-80v443c0 39 -1 111 2 150h-3c-9 -39 -25 -103 -41 -150l-155 -442h-96z" />
    <glyph glyph-name="N" unicode="N" horiz-adv-x="652" 
d="M443 0l-239 476c-20 39 -39 93 -48 126c2 -46 2 -93 2 -128v-474h-80v648h128l251 -492c14 -27 29 -66 38 -108c-1 40 -1 79 -1 108v492h80v-648h-131z" />
    <glyph glyph-name="O" unicode="O" horiz-adv-x="662" 
d="M60 324c0 241 80 334 272 334c189 0 270 -90 270 -334c0 -240 -78 -334 -270 -334s-272 94 -272 334zM146 324c0 -204 46 -270 186 -270c139 0 184 66 184 270c0 202 -45 270 -184 270c-140 0 -186 -68 -186 -270z" />
    <glyph glyph-name="P" unicode="P" horiz-adv-x="567" 
d="M78 648h222c169 0 219 -59 219 -198c0 -138 -50 -209 -219 -209h-140v-241h-82v648zM300 585h-140v-281c27 0 93 2 140 2c95 1 133 44 133 144c0 102 -36 135 -133 135z" />
    <glyph glyph-name="Q" unicode="Q" horiz-adv-x="663" 
d="M332 -10c-192 0 -272 91 -272 334c0 241 80 334 272 334c189 0 270 -87 270 -334c0 -183 -42 -254 -118 -280c42 11 118 21 153 21h16v-65h-67c-91 0 -182 -10 -254 -10zM146 324c0 -201 46 -270 187 -270c140 0 183 76 183 270c0 199 -45 270 -184 270
c-140 0 -186 -71 -186 -270z" />
    <glyph glyph-name="R" unicode="R" horiz-adv-x="592" 
d="M78 648h214c169 0 219 -56 219 -188c0 -128 -72 -153 -140 -164c63 -9 104 -35 126 -117l51 -179h-85l-47 172c-17 66 -75 97 -157 97h-99v-269h-82v648zM292 585h-132v-252c29 1 84 1 111 1c119 0 154 34 154 126c0 88 -27 125 -133 125z" />
    <glyph glyph-name="S" unicode="S" horiz-adv-x="551" 
d="M407 155c0 84 -51 104 -140 136c-130 47 -205 78 -205 196c0 117 101 171 227 171c93 0 149 -11 177 -18l-16 -61c-33 7 -96 15 -160 15c-100 0 -144 -37 -144 -107c0 -69 55 -89 139 -121c104 -39 208 -79 208 -200c0 -110 -80 -176 -221 -176c-104 0 -189 22 -214 32
l18 61c34 -9 114 -28 187 -28c98 0 144 39 144 100z" />
    <glyph glyph-name="T" unicode="T" horiz-adv-x="548" 
d="M522 648v-63h-207v-585h-82v585h-207v63h496z" />
    <glyph glyph-name="U" unicode="U" horiz-adv-x="638" 
d="M78 178v470h82v-462c0 -103 61 -132 158 -132s160 29 160 132v462h82v-470c0 -129 -88 -188 -242 -188s-240 59 -240 188z" />
    <glyph glyph-name="V" unicode="V" horiz-adv-x="614" 
d="M252 0l-228 648h90l153 -453c10 -31 33 -110 39 -140h2c6 30 31 109 41 140l151 453h90l-228 -648h-110z" />
    <glyph glyph-name="W" unicode="W" horiz-adv-x="856" 
d="M427 543c-2 -36 -9 -118 -17 -152l-88 -391h-120l-178 648h91l120 -458c8 -31 23 -96 26 -135h2c2 39 17 105 23 135l97 457h90l97 -457c6 -30 21 -96 23 -135h2c3 39 18 104 26 135l120 458h91l-178 -648h-120l-88 391c-8 34 -16 116 -17 152h-2z" />
    <glyph glyph-name="X" unicode="X" horiz-adv-x="582" 
d="M290 297l-177 -297h-95l207 331l-201 317h90l176 -285h2l176 285h90l-201 -317l207 -331h-95l-177 297h-2z" />
    <glyph glyph-name="Y" unicode="Y" horiz-adv-x="564" 
d="M242 0v234l-224 414h91l173 -338l173 338h91l-224 -414v-234h-80z" />
    <glyph glyph-name="Z" unicode="Z" horiz-adv-x="500" 
d="M57 583v65h412v-54l-328 -529h331v-65h-437v58l331 525h-309z" />
    <glyph glyph-name="a" unicode="a" horiz-adv-x="520" 
d="M109 407l-15 59c17 8 87 34 191 34c93 0 155 -41 155 -165v-335h-61l-12 52c-25 -20 -84 -62 -161 -62c-102 0 -151 65 -151 160c0 102 94 147 265 147h40v39c0 78 -29 102 -89 102c-72 0 -136 -21 -162 -31zM360 114v123h-44c-128 0 -179 -31 -179 -88
c0 -45 17 -97 76 -97c61 0 128 46 147 62z" />
    <glyph glyph-name="b" unicode="b" horiz-adv-x="561" 
d="M80 20v669l80 11v-262c27 28 75 62 155 62c135 0 190 -69 190 -244v-20c0 -167 -97 -246 -229 -246c-93 0 -166 17 -196 30zM160 377v-312c26 -10 68 -13 116 -13c85 0 145 62 145 184v20c0 141 -36 182 -115 182c-58 0 -120 -35 -146 -61z" />
    <glyph glyph-name="c" unicode="c" horiz-adv-x="468" 
d="M409 73l14 -56c-18 -7 -67 -27 -146 -27c-140 0 -221 55 -221 252c0 194 79 258 220 258c84 0 132 -23 151 -35l-15 -57c-26 11 -71 30 -132 30c-104 0 -140 -49 -140 -196c0 -146 44 -190 142 -190c60 0 111 16 127 21z" />
    <glyph glyph-name="d" unicode="d" horiz-adv-x="561" 
d="M481 689v-689h-61l-12 52c-28 -28 -82 -62 -162 -62c-135 0 -190 69 -190 244v20c0 167 97 246 229 246c44 0 83 -4 116 -15v215zM401 113v312c-26 10 -68 13 -116 13c-85 0 -145 -62 -145 -184v-20c0 -141 36 -182 115 -182c58 0 120 35 146 61z" />
    <glyph glyph-name="e" unicode="e" horiz-adv-x="524" 
d="M432 74l16 -57c-9 -4 -78 -27 -169 -27c-185 0 -223 117 -223 251c0 175 52 259 226 259c159 0 195 -95 195 -212c0 -20 -1 -43 -3 -63h-334c3 -132 46 -173 139 -173c72 0 136 16 153 22zM141 287h257c-2 97 -21 151 -116 151c-94 0 -132 -28 -141 -151z" />
    <glyph glyph-name="f" unicode="f" horiz-adv-x="356" 
d="M196 0h-80v430l-66 5v55h66v67c0 75 39 141 139 141h91l-15 -60h-76c-45 0 -59 -27 -59 -78v-70h141l-10 -60h-131v-430z" />
    <glyph glyph-name="h" unicode="h" 
d="M80 689l80 11v-248c31 19 89 48 163 48c95 0 150 -48 150 -161v-339h-80v333c0 72 -23 105 -83 105c-61 0 -121 -28 -150 -47v-391h-80v689z" />
    <glyph glyph-name="i" unicode="i" horiz-adv-x="239" 
d="M80 490h79v-490h-79v490zM72 632c0 36 17 50 45 50c33 0 50 -14 50 -50c0 -33 -17 -49 -50 -49c-28 0 -45 13 -45 49z" />
    <glyph glyph-name="j" unicode="j" horiz-adv-x="250" 
d="M96 490h80v-562c0 -90 -51 -156 -152 -156h-44l10 60h25c60 0 81 43 81 89v569zM88 632c0 36 17 50 45 50c33 0 50 -14 50 -50c0 -33 -17 -49 -50 -49c-28 0 -45 13 -45 49z" />
    <glyph glyph-name="k" unicode="k" horiz-adv-x="481" 
d="M160 700v-405l207 195h92l-228 -219l243 -271h-100l-214 242v-242h-80v689z" />
    <glyph glyph-name="l" unicode="l" horiz-adv-x="240" 
d="M80 689l80 11v-700h-80v689z" />
    <glyph glyph-name="m" unicode="m" horiz-adv-x="857" 
d="M80 490h61l11 -41c30 19 93 51 171 51c58 0 102 -18 126 -59c32 23 97 59 178 59c95 0 150 -48 150 -161v-339h-80v333c0 72 -23 105 -83 105c-59 0 -116 -26 -146 -45c3 -16 5 -34 5 -54v-339h-80v333c0 72 -23 105 -83 105c-61 0 -121 -28 -150 -47v-391h-80v490z" />
    <glyph glyph-name="n" unicode="n" 
d="M80 490h61l11 -41c30 19 93 51 171 51c95 0 150 -48 150 -161v-339h-80v333c0 72 -23 105 -83 105c-61 0 -121 -28 -150 -47v-391h-80v490z" />
    <glyph glyph-name="o" unicode="o" horiz-adv-x="558" 
d="M279 -10c-152 0 -223 72 -223 255c0 181 71 255 223 255c151 0 223 -74 223 -255c0 -183 -72 -255 -223 -255zM279 52c102 0 139 46 139 193c0 144 -37 193 -139 193s-139 -49 -139 -193c0 -147 37 -193 139 -193z" />
    <glyph glyph-name="p" unicode="p" horiz-adv-x="561" 
d="M80 -227v717h61l12 -52c29 28 82 62 162 62c135 0 190 -69 190 -244v-20c0 -167 -97 -246 -229 -246c-44 0 -83 4 -116 15v-232h-80zM160 377v-312c26 -10 68 -13 116 -13c85 0 145 62 145 184v20c0 141 -36 182 -115 182c-58 0 -120 -35 -146 -61z" />
    <glyph glyph-name="q" unicode="q" horiz-adv-x="561" 
d="M481 470v-697h-80v279c-27 -28 -75 -62 -155 -62c-135 0 -190 69 -190 244v20c0 167 97 246 229 246c93 0 166 -17 196 -30zM401 113v312c-26 10 -68 13 -116 13c-85 0 -145 -62 -145 -184v-20c0 -141 36 -182 115 -182c58 0 120 35 146 61z" />
    <glyph glyph-name="r" unicode="r" horiz-adv-x="355" 
d="M330 500v-71h-12c-67 0 -123 -29 -158 -54v-375h-80v490h60l14 -57c33 29 108 67 176 67z" />
    <glyph glyph-name="s" unicode="s" horiz-adv-x="463" 
d="M217 217c-88 30 -148 64 -149 149c-1 76 58 134 179 134c69 0 128 -11 150 -18l-15 -54c-25 3 -78 10 -138 10c-53 0 -94 -20 -93 -65c1 -51 36 -67 114 -95c93 -33 147 -69 147 -150c0 -84 -54 -138 -177 -138c-69 0 -148 17 -171 24l16 56c23 -4 90 -18 149 -18
c61 0 102 23 101 72c-1 45 -23 62 -113 93z" />
    <glyph glyph-name="t" unicode="t" horiz-adv-x="354" 
d="M188 634v-144h142l-11 -60h-131v-297c0 -55 12 -72 58 -72h72v-61h-78c-86 0 -132 43 -132 133v297h-70v60h69l10 138z" />
    <glyph glyph-name="u" unicode="u" 
d="M473 0h-61l-12 52c-19 -15 -81 -62 -170 -62c-95 0 -150 48 -150 161v339h80v-333c0 -72 23 -105 83 -105c65 0 132 48 150 62v376h80v-490z" />
    <glyph glyph-name="v" unicode="v" horiz-adv-x="530" 
d="M217 0l-194 490h85l111 -280c12 -31 39 -118 45 -162h2c6 44 33 131 45 162l111 280h85l-194 -490h-96z" />
    <glyph glyph-name="w" unicode="w" horiz-adv-x="746" 
d="M374 400h-2c-2 -34 -17 -105 -25 -135l-74 -265h-99l-149 490h85l88 -330c11 -40 17 -90 21 -125h2c3 35 9 85 21 124l99 330h64l99 -330c12 -39 18 -90 21 -124h2c3 34 9 85 20 124l89 331h85l-149 -490h-99l-74 265c-8 30 -23 101 -25 135z" />
    <glyph glyph-name="x" unicode="x" horiz-adv-x="494" 
d="M382 0l-135 217h-2l-134 -217h-91l161 250l-148 222l79 21l136 -215h2l131 215l80 -21l-149 -222l162 -250h-92z" />
    <glyph glyph-name="y" unicode="y" horiz-adv-x="536" 
d="M510 490l-209 -537c-42 -109 -69 -180 -206 -180h-27v62h9c88 0 110 32 155 155l8 22l-34 18l-180 460h85l121 -308c6 -14 31 -96 35 -124h2c4 28 29 110 35 124l121 308h85z" />
    <glyph glyph-name="z" unicode="z" horiz-adv-x="466" 
d="M63 490h355v-60l-273 -368h283v-62h-384v58l276 370h-257v62z" />
    <glyph glyph-name="zero" unicode="0" horiz-adv-x="591" 
d="M536 326c0 -246 -65 -336 -240 -336s-241 90 -241 336c0 245 66 332 241 332c176 0 240 -87 240 -332zM452 328c0 206 -37 268 -156 268c-118 0 -157 -62 -157 -268c0 -208 39 -276 157 -276c119 0 156 68 156 276z" />
    <glyph glyph-name="one" unicode="1" horiz-adv-x="435" 
d="M78 0v63h114v516c-33 -11 -69 -21 -102 -28l-18 62c47 11 95 24 141 38h59v-588h113v-63h-307z" />
    <glyph glyph-name="two" unicode="2" horiz-adv-x="526" 
d="M83 577l-6 57c29 10 70 24 161 24c171 0 213 -68 213 -188c0 -142 -152 -288 -284 -407h297v-63h-410v54c141 130 313 287 313 416c0 98 -49 126 -132 126c-72 0 -118 -9 -152 -19z" />
    <glyph glyph-name="three" unicode="3" horiz-adv-x="496" 
d="M59 579l-6 57c31 11 85 22 175 22c114 0 189 -38 189 -157c0 -89 -56 -134 -109 -152c76 -18 130 -58 130 -148c0 -123 -61 -201 -302 -201h-94l10 60h94c135 0 208 34 208 141c0 69 -43 98 -112 109c-31 5 -68 5 -104 5v53c32 0 74 4 98 9c67 15 99 64 99 124
c0 67 -38 95 -113 95c-64 0 -130 -9 -163 -17z" />
    <glyph glyph-name="four" unicode="4" horiz-adv-x="575" 
d="M52 209l285 442h117v-431h79l-15 -63h-64v-157h-80v157h-322v52zM147 220h227v364h-2z" />
    <glyph glyph-name="five" unicode="5" horiz-adv-x="524" 
d="M190 332h-109l12 317h351l-19 -63h-257l-6 -190h60c205 0 248 -58 248 -187c0 -177 -136 -209 -324 -209h-82l10 60h71c182 0 241 50 241 149c0 111 -42 123 -196 123z" />
    <glyph glyph-name="six" unicode="6" horiz-adv-x="558" 
d="M459 653l-13 -62c-201 0 -279 -38 -291 -218c37 13 93 25 151 25c148 0 200 -74 200 -195c0 -131 -66 -213 -217 -213c-169 0 -215 100 -215 260v59c0 289 111 344 385 344zM154 312v-63c0 -145 42 -197 135 -197c87 0 134 35 134 151c0 102 -40 133 -118 133
c-60 0 -116 -11 -151 -24z" />
    <glyph glyph-name="seven" unicode="7" horiz-adv-x="516" 
d="M476 648l-7 -59c-99 -186 -180 -395 -233 -597l-79 20c56 192 136 386 227 573h-334v63h426z" />
    <glyph glyph-name="eight" unicode="8" horiz-adv-x="568" 
d="M285 658c127 0 201 -51 201 -166c0 -76 -52 -125 -98 -146c53 -23 118 -59 118 -171c0 -116 -76 -185 -222 -185c-147 0 -222 69 -222 185c0 113 65 149 117 171c-44 20 -97 67 -97 146c0 118 79 166 203 166zM284 52c82 0 138 39 138 123c0 95 -62 137 -121 137h-34
c-58 0 -121 -42 -121 -137c0 -84 55 -123 138 -123zM267 370h34c46 0 104 52 104 122c0 81 -47 104 -120 104c-78 0 -122 -26 -122 -104c0 -70 59 -122 104 -122z" />
    <glyph glyph-name="nine" unicode="9" horiz-adv-x="558" 
d="M99 -5l13 62c201 0 279 38 291 218c-37 -13 -93 -25 -151 -25c-148 0 -200 74 -200 195c0 131 66 213 217 213c169 0 215 -100 215 -260v-59c0 -289 -111 -344 -385 -344zM404 336v63c0 145 -42 197 -135 197c-87 0 -134 -35 -134 -151c0 -102 40 -133 118 -133
c60 0 116 11 151 24z" />
    <glyph glyph-name="D" unicode="D" horiz-adv-x="628" 
d="M78 648h184c216 0 314 -57 314 -304v-29c0 -244 -102 -315 -318 -315h-180v648zM236 585h-78v-522h78c184 0 254 37 254 252v29c0 216 -70 241 -254 241z" />
    <glyph glyph-name="A" unicode="A" horiz-adv-x="632" 
d="M364 648l238 -648h-87l-64 178h-272l-63 -178h-86l238 648h96zM266 433l-65 -191h228l-65 191c-11 32 -44 124 -47 154h-2c-3 -30 -38 -122 -49 -154z" />
    <glyph glyph-name="g" unicode="g" horiz-adv-x="561" 
d="M481 470v-526c0 -105 -71 -172 -205 -172h-133l10 60h110c83 0 138 26 138 110v48c0 21 1 42 3 62c-33 -30 -82 -62 -158 -62c-129 0 -190 61 -190 244v20c0 167 97 246 229 246c93 0 166 -17 196 -30zM401 113v311c-27 11 -68 14 -116 14c-85 0 -145 -62 -145 -184v-20
c0 -138 34 -182 115 -182c58 0 119 35 146 61z" />
    <glyph glyph-name="ampersand" unicode="&#x26;" horiz-adv-x="734" 
d="M452 617l-15 -57c-27 10 -88 24 -151 24c-58 0 -103 -27 -103 -96c0 -66 45 -99 116 -99h27v-65h-27c-71 0 -147 -28 -147 -116c0 -107 88 -152 195 -152c110 0 201 56 201 149c0 71 -27 108 -65 163c46 38 151 87 212 108l27 -57c-34 -12 -101 -41 -140 -64
c20 -28 51 -79 51 -150c0 -117 -107 -214 -286 -214c-191 0 -279 87 -279 217c0 91 65 134 125 153c-53 21 -94 52 -94 127c0 97 75 160 187 160c89 0 143 -20 166 -31z" />
    <glyph glyph-name="B" unicode="B" horiz-adv-x="582" 
d="M287 0h-209v648h214c147 0 211 -46 211 -171c0 -102 -50 -138 -104 -147c48 -10 123 -25 123 -153c0 -120 -44 -177 -235 -177zM160 63h127c104 0 149 30 149 114c0 93 -36 124 -135 124c-25 0 -100 1 -141 1v-239zM288 585h-128v-222c41 0 116 1 141 1
c98 0 119 34 119 113c0 85 -46 108 -132 108z" />
    <glyph glyph-name="C" unicode="C" horiz-adv-x="566" 
d="M510 73l16 -62c-25 -5 -113 -21 -196 -21c-173 0 -270 74 -270 324v20c0 247 91 324 270 324c98 0 166 -23 194 -33l-19 -61c-33 11 -108 30 -171 30c-123 0 -188 -35 -188 -260v-20c0 -224 70 -260 188 -260c64 0 147 13 176 19z" />
    <glyph glyph-name="G" unicode="G" horiz-adv-x="618" 
d="M351 300v62h190v-347c-21 -6 -112 -25 -212 -25c-167 0 -269 74 -269 324v20c0 250 101 324 269 324c110 0 194 -25 213 -34l-18 -61c-24 8 -101 31 -191 31c-120 0 -187 -44 -187 -260v-20c0 -221 70 -260 187 -260c45 0 115 8 128 11v235h-110z" />
    <glyph glyph-name="endash" unicode="&#x2013;" horiz-adv-x="507" 
d="M66 229v68h375v-68h-375z" />
    <glyph glyph-name="emdash" unicode="&#x2014;" horiz-adv-x="837" 
d="M66 229v68h705v-68h-705z" />
    <glyph glyph-name="hyphen" unicode="-" horiz-adv-x="367" 
d="M66 229v68h235v-68h-235z" />
    <glyph glyph-name="slash" unicode="/" horiz-adv-x="386" 
d="M30 -72l252 807h74l-253 -807h-73z" />
    <glyph glyph-name="backslash" unicode="\" horiz-adv-x="397" 
d="M113 735l252 -807h-80l-253 807h81z" />
    <glyph glyph-name="bracketleft" unicode="[" horiz-adv-x="314" 
d="M282 738v-62h-132v-774h132v-62h-212v898h212z" />
    <glyph glyph-name="bracketright" unicode="]" horiz-adv-x="314" 
d="M32 676v62h212v-898h-212v62h132v774h-132z" />
    <glyph glyph-name="parenleft" unicode="(" horiz-adv-x="301" 
d="M220 755l49 -44c-33 -39 -114 -191 -114 -431c0 -241 81 -364 113 -403l-44 -45s-154 146 -154 447c0 303 150 476 150 476z" />
    <glyph glyph-name="parenright" unicode=")" horiz-adv-x="301" 
d="M32 711l49 44s150 -173 150 -476c0 -301 -154 -447 -154 -447l-44 45c32 39 113 162 113 403c0 240 -81 392 -114 431z" />
    <glyph glyph-name="braceleft" unicode="{" horiz-adv-x="398" 
d="M291 -160c-57 0 -116 36 -116 116v204c0 53 -40 91 -105 92v75c63 1 105 36 105 91v205c0 81 58 115 115 115h76v-63h-66c-33 0 -50 -18 -50 -79v-194c0 -62 -60 -98 -103 -113c53 -17 103 -56 103 -123v-188c0 -61 22 -75 49 -75h67v-63h-75z" />
    <glyph glyph-name="bar" unicode="|" horiz-adv-x="230" 
d="M80 0v770h70v-770h-70z" />
    <glyph glyph-name="braceright" unicode="}" horiz-adv-x="398" 
d="M107 -160h-75v63h67c27 0 49 14 49 75v188c0 67 50 106 103 123c-43 15 -103 51 -103 113v194c0 61 -17 79 -50 79h-66v63h76c57 0 115 -34 115 -115v-205c0 -55 42 -90 105 -91v-75c-65 -1 -105 -39 -105 -92v-204c0 -80 -59 -116 -116 -116z" />
    <glyph glyph-name="comma" unicode="," horiz-adv-x="235" 
d="M70 100h95l-89 -250h-61z" />
    <glyph glyph-name="period" unicode="." horiz-adv-x="249" 
d="M70 47c0 42 21 57 54 57c38 0 55 -15 55 -57c0 -40 -17 -57 -55 -57c-33 0 -54 15 -54 57z" />
    <glyph glyph-name="quotesingle" unicode="'" horiz-adv-x="210" 
d="M70 673h80v-40l-10 -190h-60l-10 190v40z" />
    <glyph glyph-name="oe" unicode="&#x153;" horiz-adv-x="886" 
d="M794 74l16 -57c-9 -4 -78 -27 -169 -27c-93 0 -156 27 -181 87c-33 -66 -96 -87 -181 -87c-152 0 -223 72 -223 255c0 181 71 255 223 255c84 0 147 -23 179 -82c29 57 92 82 186 82c160 0 187 -97 187 -205c0 -20 -5 -54 -10 -70h-319c3 -132 46 -173 139 -173
c72 0 136 16 153 22zM279 52c101 0 138 45 139 189v4c0 144 -37 193 -139 193s-139 -49 -139 -193c0 -147 37 -193 139 -193zM754 287c0 96 -15 151 -110 151s-132 -27 -141 -151h251z" />
    <glyph glyph-name="zero.osf" unicode="&#xe060;" horiz-adv-x="591" 
d="M536 247c0 -165 -65 -257 -240 -257s-241 92 -241 257c0 164 66 253 241 253c176 0 240 -89 240 -253zM452 249c0 125 -37 189 -156 189c-118 0 -157 -64 -157 -189c0 -127 39 -197 157 -197c119 0 156 70 156 197z" />
    <glyph glyph-name="one.osf" unicode="&#xe061;" horiz-adv-x="435" 
d="M78 0v63h114v361l-102 -28l-18 62l141 38h59v-433h113v-63h-307z" />
    <glyph glyph-name="two.osf" unicode="&#xe062;" horiz-adv-x="507" 
d="M79 417l-6 55c26 11 88 28 159 28c181 0 196 -84 196 -155c0 -128 -184 -238 -261 -282h285v-63h-398v54c98 81 290 174 290 291c0 64 -22 93 -115 93c-67 0 -120 -12 -150 -21z" />
    <glyph glyph-name="three.osf" unicode="&#xe063;" horiz-adv-x="496" 
d="M59 421l-6 57c31 11 85 22 175 22c114 0 189 -38 189 -157c0 -89 -56 -134 -109 -152c76 -18 130 -58 130 -148c0 -123 -61 -201 -302 -201h-94l10 60h94c135 0 208 34 208 141c0 69 -43 98 -112 109c-31 5 -68 5 -104 5v53c32 0 74 4 98 9c67 15 99 64 99 124
c0 67 -38 95 -113 95c-64 0 -130 -9 -163 -17z" />
    <glyph glyph-name="four.osf" unicode="&#xe064;" horiz-adv-x="585" 
d="M52 52l295 442h117v-431h79l-15 -63h-64v-158h-80v158h-332v52zM147 63h237v364h-2z" />
    <glyph glyph-name="five.osf" unicode="&#xe065;" horiz-adv-x="524" 
d="M190 174h-109l12 317h351l-19 -63h-257l-6 -190h60c205 0 248 -58 248 -187c0 -177 -131 -209 -304 -209h-102l10 60h91c167 0 221 50 221 149c0 111 -42 123 -196 123z" />
    <glyph glyph-name="six.osf" unicode="&#xe066;" horiz-adv-x="558" 
d="M459 653l-13 -62c-201 0 -279 -38 -291 -218c37 13 93 25 151 25c148 0 200 -74 200 -195c0 -131 -66 -213 -217 -213c-169 0 -215 100 -215 260v59c0 289 111 344 385 344zM154 312v-63c0 -145 42 -197 135 -197c87 0 134 35 134 151c0 102 -40 133 -118 133
c-60 0 -116 -11 -151 -24z" />
    <glyph glyph-name="seven.osf" unicode="&#xe067;" horiz-adv-x="516" 
d="M476 491l-7 -59c-99 -186 -180 -394 -233 -596l-79 18c57 194 136 387 227 574h-334v63h426z" />
    <glyph glyph-name="eight.osf" unicode="&#xe068;" horiz-adv-x="568" 
d="M285 658c127 0 201 -51 201 -166c0 -76 -52 -125 -98 -146c53 -23 118 -59 118 -171c0 -116 -76 -185 -222 -185c-147 0 -222 69 -222 185c0 113 65 149 117 171c-44 20 -97 67 -97 146c0 118 79 166 203 166zM284 52c82 0 138 39 138 123c0 95 -62 137 -121 137h-34
c-58 0 -121 -42 -121 -137c0 -84 55 -123 138 -123zM267 370h34c46 0 104 52 104 122c0 81 -47 104 -120 104c-78 0 -122 -26 -122 -104c0 -70 59 -122 104 -122z" />
    <glyph glyph-name="nine.osf" unicode="&#xe069;" horiz-adv-x="558" 
d="M99 -158l13 62c201 0 279 33 291 213c-37 -13 -93 -25 -151 -25c-148 0 -200 74 -200 195c0 131 66 213 217 213c169 0 215 -100 215 -260v-59c0 -289 -111 -339 -385 -339zM404 178v63c0 145 -42 197 -135 197c-87 0 -134 -35 -134 -151c0 -102 40 -133 118 -133
c60 0 116 11 151 24z" />
    <glyph glyph-name="Eth" unicode="&#xd0;" horiz-adv-x="628" 
d="M18 301v63h60v284h184c216 0 314 -57 314 -304v-29c0 -244 -102 -315 -318 -315h-180v301h-60zM236 585h-78v-221h110v-63h-110v-238h78c184 0 254 37 254 252v29c0 216 -70 241 -254 241z" />
    <glyph glyph-name="colon" unicode=":" horiz-adv-x="249" 
d="M70 47c0 42 21 57 54 57c38 0 55 -15 55 -57c0 -40 -17 -57 -55 -57c-33 0 -54 15 -54 57zM70 382c0 42 21 57 54 57c38 0 55 -15 55 -57c0 -40 -17 -57 -55 -57c-33 0 -54 15 -54 57z" />
    <glyph glyph-name="semicolon" unicode=";" horiz-adv-x="241" 
d="M70 100h95l-89 -250h-61zM62 382c0 42 21 57 54 57c38 0 55 -15 55 -57c0 -40 -17 -57 -55 -57c-33 0 -54 15 -54 57z" />
    <glyph glyph-name="dotlessi" unicode="&#x131;" horiz-adv-x="239" 
d="M80 490h79v-490h-79v490z" />
    <glyph glyph-name="underscore" unicode="_" horiz-adv-x="660" 
d="M66 -128v68h528v-68h-528z" />
    <glyph glyph-name="equal" unicode="=" horiz-adv-x="610" 
d="M70 176v68h470v-68h-470zM70 354v68h470v-68h-470z" />
    <glyph glyph-name="plus" unicode="+" horiz-adv-x="618" 
d="M273 547h72v-205h203v-68h-203v-205h-72v205h-203v68h203v205z" />
    <glyph glyph-name="quotedbl" unicode="&#x22;" horiz-adv-x="385" 
d="M70 673h80v-40l-10 -190h-60l-10 190v40zM235 673h80v-40l-10 -190h-60l-10 190v40z" />
    <glyph glyph-name="quoteright" unicode="&#x2019;" horiz-adv-x="235" 
d="M105 671h95l-89 -250h-61z" />
    <glyph glyph-name="quoteleft" unicode="&#x2018;" horiz-adv-x="235" 
d="M35 671h95l55 -250h-61z" />
    <glyph glyph-name="quotedblright" unicode="&#x201d;" horiz-adv-x="440" 
d="M105 671h95l-89 -250h-61zM301 671h95l-89 -250h-61z" />
    <glyph glyph-name="quotedblleft" unicode="&#x201c;" horiz-adv-x="440" 
d="M240 671h95l55 -250h-61zM44 671h95l55 -250h-61z" />
    <glyph glyph-name="percent" unicode="%" horiz-adv-x="1113" 
d="M376 -72l252 807h81l-253 -807h-80zM451 516c0 -132 -57 -206 -185 -206s-186 74 -186 206c0 131 58 202 186 202s185 -71 185 -202zM372 517c0 91 -32 141 -106 141s-107 -50 -107 -141c0 -93 33 -147 107 -147s106 54 106 147zM1023 196c0 -132 -57 -206 -185 -206
s-186 74 -186 206c0 131 58 202 186 202s185 -71 185 -202zM944 197c0 91 -32 141 -106 141s-107 -50 -107 -141c0 -93 33 -147 107 -147s106 54 106 147z" />
    <glyph glyph-name="perthousand" unicode="&#x2030;" horiz-adv-x="1567" 
d="M376 -72l252 807h81l-253 -807h-80zM451 516c0 -132 -57 -206 -185 -206s-186 74 -186 206c0 131 58 202 186 202s185 -71 185 -202zM372 517c0 91 -32 141 -106 141s-107 -50 -107 -141c0 -93 33 -147 107 -147s106 54 106 147zM1023 196c0 -132 -57 -206 -185 -206
s-186 74 -186 206c0 131 58 202 186 202s185 -71 185 -202zM944 197c0 91 -32 141 -106 141s-107 -50 -107 -141c0 -93 33 -147 107 -147s106 54 106 147zM1477 196c0 -132 -57 -206 -185 -206s-186 74 -186 206c0 131 58 202 186 202s185 -71 185 -202zM1398 197
c0 91 -32 141 -106 141s-107 -50 -107 -141c0 -93 33 -147 107 -147s106 54 106 147z" />
    <glyph glyph-name="notequal" unicode="&#x2260;" horiz-adv-x="610" 
d="M70 354v68h244l79 156h84l-79 -156h142v-68h-176l-55 -110h231v-68h-265l-78 -156h-84l78 156h-121v68h155l55 110h-210z" />
    <glyph glyph-name="minus" unicode="&#x2212;" horiz-adv-x="618" 
d="M70 342h478v-68h-478v68z" />
    <glyph glyph-name="divide" unicode="&#xf7;" horiz-adv-x="618" 
d="M70 342h478v-68h-478v68zM256 107c0 42 21 57 54 57c38 0 55 -15 55 -57c0 -40 -17 -57 -55 -57c-33 0 -54 15 -54 57zM256 507c0 42 21 57 54 57c38 0 55 -15 55 -57c0 -40 -17 -57 -55 -57c-33 0 -54 15 -54 57z" />
    <glyph glyph-name="ellipsis" unicode="&#x2026;" horiz-adv-x="701" 
d="M70 47c0 42 21 57 54 57c38 0 55 -15 55 -57c0 -40 -17 -57 -55 -57c-33 0 -54 15 -54 57zM296 47c0 42 21 57 54 57c38 0 55 -15 55 -57c0 -40 -17 -57 -55 -57c-33 0 -54 15 -54 57zM522 47c0 42 21 57 54 57c38 0 55 -15 55 -57c0 -40 -17 -57 -55 -57
c-33 0 -54 15 -54 57z" />
    <glyph glyph-name="quotesinglbase" unicode="&#x201a;" horiz-adv-x="235" 
d="M105 100h95l-89 -250h-61z" />
    <glyph glyph-name="quotedblbase" unicode="&#x201e;" horiz-adv-x="440" 
d="M105 100h95l-89 -250h-61zM301 100h95l-89 -250h-61z" />
    <glyph glyph-name="dollar" unicode="$" horiz-adv-x="564" 
d="M261 750h62v-104c75 -2 122 -12 147 -18l-15 -58c-28 5 -79 12 -132 14v-229c90 -35 173 -76 173 -182c0 -94 -64 -154 -173 -167v-107h-62v105c-92 2 -162 21 -183 30l17 59c31 -9 99 -24 166 -26v233c-115 42 -179 73 -179 182c0 99 77 151 179 162v106zM162 482
c0 -57 38 -79 99 -104v203c-69 -9 -99 -42 -99 -99zM414 162c0 66 -33 91 -91 115v-206c61 11 91 44 91 91z" />
    <glyph glyph-name="exclam" unicode="!" horiz-adv-x="269" 
d="M94 658h82l-5 -488h-72zM85 42c0 38 19 52 49 52c35 0 50 -14 50 -52c0 -36 -15 -52 -50 -52c-30 0 -49 14 -49 52z" />
    <glyph glyph-name="question" unicode="?" horiz-adv-x="504" 
d="M80 577l-16 60c15 7 89 21 176 21c121 0 190 -37 190 -162c0 -165 -178 -127 -178 -249v-77h-80v78c0 166 174 138 174 248c0 66 -30 98 -106 98c-69 0 -143 -11 -160 -17zM162 42c0 38 19 52 49 52c35 0 50 -14 50 -52c0 -36 -15 -52 -50 -52c-30 0 -49 14 -49 52z" />
    <glyph glyph-name="at" unicode="@" horiz-adv-x="1020" 
d="M725 499l-65 -365h31c133 0 180 93 180 238c0 206 -90 286 -293 286c-254 0 -417 -195 -417 -451c0 -245 139 -300 365 -300h65l8 -62h-73c-284 0 -441 82 -441 362c0 302 196 513 493 513c258 0 367 -127 367 -348c0 -179 -76 -297 -253 -297h-107l11 98
c-20 -43 -85 -107 -160 -107c-121 0 -151 62 -123 220l4 18c26 151 120 222 239 222c84 0 144 -15 169 -27zM605 228l41 230c-22 9 -56 12 -100 12c-76 0 -135 -56 -154 -166l-3 -18c-23 -127 -4 -164 62 -164c50 0 135 86 154 106z" />
    <glyph glyph-name="E" unicode="E" horiz-adv-x="499" 
d="M444 648v-64h-284v-220h264v-62h-264v-238h295v-64h-377v648h366z" />
    <glyph glyph-name="F" unicode="F" horiz-adv-x="487" 
d="M444 648v-64h-284v-227h254v-62h-254v-295h-82v648h366z" />
    <glyph glyph-name="numbersign" unicode="#" horiz-adv-x="658" 
d="M354 -10l30 187h-162l-30 -187h-78l30 187h-94v62h104l31 195h-108v62h118l27 162h79l-27 -162h161l27 162h79l-27 -162h94v-62h-104l-32 -195h109v-62h-119l-30 -187h-78zM264 434l-32 -195h162l31 195h-161z" />
    <glyph glyph-name="dieresis" unicode="&#xa8;" horiz-adv-x="452" 
d="M80 625c0 37 16 51 44 51c35 0 51 -14 51 -51c0 -33 -16 -48 -51 -48c-28 0 -44 13 -44 48zM277 625c0 37 16 51 45 51c35 0 50 -14 50 -51c0 -33 -15 -48 -50 -48c-29 0 -45 13 -45 48z" />
    <glyph glyph-name="adieresis" unicode="&#xe4;" horiz-adv-x="520" 
d="M109 407l-15 59c17 8 87 34 191 34c93 0 155 -41 155 -165v-335h-61l-12 52c-25 -20 -84 -62 -161 -62c-102 0 -151 65 -151 160c0 102 94 147 265 147h40v39c0 78 -29 102 -89 102c-72 0 -136 -21 -162 -31zM360 114v123h-44c-128 0 -179 -31 -179 -88
c0 -45 17 -97 76 -97c61 0 128 46 147 62zM122 625c0 37 16 51 44 51c35 0 51 -14 51 -51c0 -33 -16 -48 -51 -48c-28 0 -44 13 -44 48zM319 625c0 37 16 51 45 51c35 0 50 -14 50 -51c0 -33 -15 -48 -50 -48c-29 0 -45 13 -45 48z" />
    <glyph glyph-name="cedilla" unicode="&#xb8;" horiz-adv-x="337" 
d="M88 -221l79 150h90l-104 -150h-65z" />
    <glyph glyph-name="Ccedilla" unicode="&#xc7;" horiz-adv-x="566" 
d="M510 73l16 -62c-25 -5 -113 -21 -196 -21c-173 0 -270 74 -270 324v20c0 247 91 324 270 324c98 0 166 -23 194 -33l-19 -61c-33 11 -108 30 -171 30c-123 0 -188 -35 -188 -260v-20c0 -224 70 -260 188 -260c64 0 147 13 176 19zM198 -221l79 150h90l-104 -150h-65z" />
    <glyph glyph-name="acute" unicode="&#xb4;" horiz-adv-x="357" 
d="M80 565l97 135h100l-132 -135h-65z" />
    <glyph glyph-name="aacute" unicode="&#xe1;" horiz-adv-x="520" 
d="M109 407l-15 59c17 8 87 34 191 34c93 0 155 -41 155 -165v-335h-61l-12 52c-25 -20 -84 -62 -161 -62c-102 0 -151 65 -151 160c0 102 94 147 265 147h40v39c0 78 -29 102 -89 102c-72 0 -136 -21 -162 -31zM360 114v123h-44c-128 0 -179 -31 -179 -88
c0 -45 17 -97 76 -97c61 0 128 46 147 62zM207 565l97 135h100l-132 -135h-65z" />
    <glyph glyph-name="grave" unicode="`" horiz-adv-x="357" 
d="M180 700l97 -135h-65l-132 135h100z" />
    <glyph glyph-name="agrave" unicode="&#xe0;" horiz-adv-x="520" 
d="M109 407l-15 59c17 8 87 34 191 34c93 0 155 -41 155 -165v-335h-61l-12 52c-25 -20 -84 -62 -161 -62c-102 0 -151 65 -151 160c0 102 94 147 265 147h40v39c0 78 -29 102 -89 102c-72 0 -136 -21 -162 -31zM360 114v123h-44c-128 0 -179 -31 -179 -88
c0 -45 17 -97 76 -97c61 0 128 46 147 62zM227 700l97 -135h-65l-132 135h100z" />
    <glyph glyph-name="circumflex" unicode="&#x2c6;" horiz-adv-x="454" 
d="M253 710l121 -145h-65l-82 84l-82 -84h-65l121 145h52z" />
    <glyph glyph-name="acircumflex" unicode="&#xe2;" horiz-adv-x="520" 
d="M109 407l-15 59c17 8 87 34 191 34c93 0 155 -41 155 -165v-335h-61l-12 52c-25 -20 -84 -62 -161 -62c-102 0 -151 65 -151 160c0 102 94 147 265 147h40v39c0 78 -29 102 -89 102c-72 0 -136 -21 -162 -31zM360 114v123h-44c-128 0 -179 -31 -179 -88
c0 -45 17 -97 76 -97c61 0 128 46 147 62zM291 710l121 -145h-65l-82 84l-82 -84h-65l121 145h52z" />
    <glyph glyph-name="ecircumflex" unicode="&#xea;" horiz-adv-x="529" 
d="M432 74l16 -57c-9 -4 -78 -27 -169 -27c-185 0 -223 117 -223 251c0 175 52 259 226 259c159 0 195 -95 195 -212c0 -20 -1 -43 -3 -63h-334c3 -132 46 -173 139 -173c72 0 136 16 153 22zM141 287h257c-2 97 -21 151 -116 151c-94 0 -132 -28 -141 -151zM303 710
l121 -145h-65l-82 84l-82 -84h-65l121 145h52z" />
    <glyph glyph-name="eacute" unicode="&#xe9;" horiz-adv-x="529" 
d="M432 74l16 -57c-9 -4 -78 -27 -169 -27c-185 0 -223 117 -223 251c0 175 52 259 226 259c159 0 195 -95 195 -212c0 -20 -1 -43 -3 -63h-334c3 -132 46 -173 139 -173c72 0 136 16 153 22zM141 287h257c-2 97 -21 151 -116 151c-94 0 -132 -28 -141 -151zM201 565l97 135
h100l-132 -135h-65z" />
    <glyph glyph-name="egrave" unicode="&#xe8;" horiz-adv-x="529" 
d="M432 74l16 -57c-9 -4 -78 -27 -169 -27c-185 0 -223 117 -223 251c0 175 52 259 226 259c159 0 195 -95 195 -212c0 -20 -1 -43 -3 -63h-334c3 -132 46 -173 139 -173c72 0 136 16 153 22zM141 287h257c-2 97 -21 151 -116 151c-94 0 -132 -28 -141 -151zM228 700
l97 -135h-65l-132 135h100z" />
    <glyph glyph-name="edieresis" unicode="&#xeb;" horiz-adv-x="529" 
d="M432 74l16 -57c-9 -4 -78 -27 -169 -27c-185 0 -223 117 -223 251c0 175 52 259 226 259c159 0 195 -95 195 -212c0 -20 -1 -43 -3 -63h-334c3 -132 46 -173 139 -173c72 0 136 16 153 22zM141 287h257c-2 97 -21 151 -116 151c-94 0 -132 -28 -141 -151zM128 625
c0 37 16 51 44 51c35 0 51 -14 51 -51c0 -33 -16 -48 -51 -48c-28 0 -44 13 -44 48zM325 625c0 37 16 51 45 51c35 0 50 -14 50 -51c0 -33 -15 -48 -50 -48c-29 0 -45 13 -45 48z" />
    <glyph glyph-name="iacute" unicode="&#xed;" horiz-adv-x="239" 
d="M80 490h79v-490h-79v490zM85 565l97 135h100l-132 -135h-65z" />
    <glyph glyph-name="igrave" unicode="&#xec;" horiz-adv-x="239" 
d="M80 490h79v-490h-79v490zM54 700l97 -135h-65l-132 135h100z" />
    <glyph glyph-name="icircumflex" unicode="&#xee;" horiz-adv-x="239" 
d="M80 490h79v-490h-79v490zM147 710l121 -145h-65l-82 84l-82 -84h-65l121 145h52z" />
    <glyph glyph-name="idieresis" unicode="&#xef;" horiz-adv-x="239" 
d="M80 490h79v-490h-79v490zM-26 625c0 37 16 51 44 51c35 0 51 -14 51 -51c0 -33 -16 -48 -51 -48c-28 0 -44 13 -44 48zM171 625c0 37 16 51 45 51c35 0 50 -14 50 -51c0 -33 -15 -48 -50 -48c-29 0 -45 13 -45 48z" />
    <glyph glyph-name="oacute" unicode="&#xf3;" horiz-adv-x="558" 
d="M279 -10c-152 0 -223 72 -223 255c0 181 71 255 223 255c151 0 223 -74 223 -255c0 -183 -72 -255 -223 -255zM279 52c102 0 139 46 139 193c0 144 -37 193 -139 193s-139 -49 -139 -193c0 -147 37 -193 139 -193zM235 565l97 135h100l-132 -135h-65z" />
    <glyph glyph-name="ograve" unicode="&#xf2;" horiz-adv-x="558" 
d="M279 -10c-152 0 -223 72 -223 255c0 181 71 255 223 255c151 0 223 -74 223 -255c0 -183 -72 -255 -223 -255zM279 52c102 0 139 46 139 193c0 144 -37 193 -139 193s-139 -49 -139 -193c0 -147 37 -193 139 -193zM221 700l97 -135h-65l-132 135h100z" />
    <glyph glyph-name="ocircumflex" unicode="&#xf4;" horiz-adv-x="558" 
d="M279 -10c-152 0 -223 72 -223 255c0 181 71 255 223 255c151 0 223 -74 223 -255c0 -183 -72 -255 -223 -255zM279 52c102 0 139 46 139 193c0 144 -37 193 -139 193s-139 -49 -139 -193c0 -147 37 -193 139 -193zM298 710l121 -145h-65l-82 84l-82 -84h-65l121 145h52z
" />
    <glyph glyph-name="odieresis" unicode="&#xf6;" horiz-adv-x="558" 
d="M279 -10c-152 0 -223 72 -223 255c0 181 71 255 223 255c151 0 223 -74 223 -255c0 -183 -72 -255 -223 -255zM279 52c102 0 139 46 139 193c0 144 -37 193 -139 193s-139 -49 -139 -193c0 -147 37 -193 139 -193zM135 625c0 37 16 51 44 51c35 0 51 -14 51 -51
c0 -33 -16 -48 -51 -48c-28 0 -44 13 -44 48zM332 625c0 37 16 51 45 51c35 0 50 -14 50 -51c0 -33 -15 -48 -50 -48c-29 0 -45 13 -45 48z" />
    <glyph glyph-name="uacute" unicode="&#xfa;" 
d="M473 0h-61l-12 52c-19 -15 -81 -62 -170 -62c-95 0 -150 48 -150 161v339h80v-333c0 -72 23 -105 83 -105c65 0 132 48 150 62v376h80v-490zM223 565l97 135h100l-132 -135h-65z" />
    <glyph glyph-name="ugrave" unicode="&#xf9;" 
d="M473 0h-61l-12 52c-19 -15 -81 -62 -170 -62c-95 0 -150 48 -150 161v339h80v-333c0 -72 23 -105 83 -105c65 0 132 48 150 62v376h80v-490zM233 700l97 -135h-65l-132 135h100z" />
    <glyph glyph-name="ucircumflex" unicode="&#xfb;" 
d="M473 0h-61l-12 52c-19 -15 -81 -62 -170 -62c-95 0 -150 48 -150 161v339h80v-333c0 -72 23 -105 83 -105c65 0 132 48 150 62v376h80v-490zM303 710l121 -145h-65l-82 84l-82 -84h-65l121 145h52z" />
    <glyph glyph-name="udieresis" unicode="&#xfc;" 
d="M473 0h-61l-12 52c-19 -15 -81 -62 -170 -62c-95 0 -150 48 -150 161v339h80v-333c0 -72 23 -105 83 -105c65 0 132 48 150 62v376h80v-490zM140 625c0 37 16 51 44 51c35 0 51 -14 51 -51c0 -33 -16 -48 -51 -48c-28 0 -44 13 -44 48zM337 625c0 37 16 51 45 51
c35 0 50 -14 50 -51c0 -33 -15 -48 -50 -48c-29 0 -45 13 -45 48z" />
    <glyph glyph-name="ccedilla" unicode="&#xe7;" horiz-adv-x="468" 
d="M409 73l14 -56c-18 -7 -67 -27 -146 -27c-140 0 -221 55 -221 252c0 194 79 258 220 258c84 0 132 -23 151 -35l-15 -57c-26 11 -71 30 -132 30c-104 0 -140 -49 -140 -196c0 -146 44 -190 142 -190c60 0 111 16 127 21zM158 -221l79 150h90l-104 -150h-65z" />
    <glyph glyph-name="caron" unicode="&#x2c7;" horiz-adv-x="454" 
d="M201 559l-121 145h65l82 -84l82 84h65l-121 -145h-52z" />
    <glyph glyph-name="ring" unicode="&#x2da;" horiz-adv-x="338" 
d="M76 644c0 66 33 91 91 91c60 0 93 -25 93 -91c0 -61 -33 -89 -93 -89c-58 0 -91 28 -91 89zM126 644c0 -33 15 -49 41 -49c27 0 43 16 43 49c0 37 -16 53 -43 53c-26 0 -41 -16 -41 -53z" />
    <glyph glyph-name="aring" unicode="&#xe5;" horiz-adv-x="520" 
d="M109 407l-15 59c17 8 87 34 191 34c93 0 155 -41 155 -165v-335h-61l-12 52c-25 -20 -84 -62 -161 -62c-102 0 -151 65 -151 160c0 102 94 147 265 147h40v39c0 78 -29 102 -89 102c-72 0 -136 -21 -162 -31zM360 114v123h-44c-128 0 -179 -31 -179 -88
c0 -45 17 -97 76 -97c61 0 128 46 147 62zM170 644c0 66 33 91 91 91c60 0 93 -25 93 -91c0 -61 -33 -89 -93 -89c-58 0 -91 28 -91 89zM220 644c0 -33 15 -49 41 -49c27 0 43 16 43 49c0 37 -16 53 -43 53c-26 0 -41 -16 -41 -53z" />
    <glyph glyph-name="tilde" unicode="&#x2dc;" horiz-adv-x="493" 
d="M99 575l-19 36c25 20 77 56 118 56c30 0 80 -41 101 -41c30 0 74 28 86 37l28 -36c-21 -19 -86 -62 -128 -62c-28 0 -74 41 -100 41c-28 0 -68 -21 -86 -31z" />
    <glyph glyph-name="atilde" unicode="&#xe3;" horiz-adv-x="520" 
d="M109 407l-15 59c17 8 87 34 191 34c93 0 155 -41 155 -165v-335h-61l-12 52c-25 -20 -84 -62 -161 -62c-102 0 -151 65 -151 160c0 102 94 147 265 147h40v39c0 78 -29 102 -89 102c-72 0 -136 -21 -162 -31zM360 114v123h-44c-128 0 -179 -31 -179 -88
c0 -45 17 -97 76 -97c61 0 128 46 147 62zM110 575l-19 36c25 20 77 56 118 56c30 0 80 -41 101 -41c30 0 74 28 86 37l28 -36c-21 -19 -86 -62 -128 -62c-28 0 -74 41 -100 41c-28 0 -68 -21 -86 -31z" />
    <glyph glyph-name="Adieresis" unicode="&#xc4;" horiz-adv-x="632" 
d="M364 648l238 -648h-87l-64 178h-272l-63 -178h-86l238 648h96zM266 433l-65 -191h228l-65 191c-11 32 -44 124 -47 154h-2c-3 -30 -38 -122 -49 -154zM170 783c0 37 16 51 44 51c35 0 51 -14 51 -51c0 -33 -16 -48 -51 -48c-28 0 -44 13 -44 48zM367 783
c0 37 16 51 45 51c35 0 50 -14 50 -51c0 -33 -15 -48 -50 -48c-29 0 -45 13 -45 48z" />
    <glyph glyph-name="Aring" unicode="&#xc5;" horiz-adv-x="632" 
d="M364 648l238 -648h-87l-64 178h-272l-63 -178h-86l238 648h96zM266 433l-65 -191h228l-65 191c-11 32 -44 124 -47 154h-2c-3 -30 -38 -122 -49 -154zM224 802c0 66 33 91 91 91c60 0 93 -25 93 -91c0 -61 -33 -89 -93 -89c-58 0 -91 28 -91 89zM274 802
c0 -33 15 -49 41 -49c27 0 43 16 43 49c0 37 -16 53 -43 53c-26 0 -41 -16 -41 -53z" />
    <glyph glyph-name="Eacute" unicode="&#xc9;" horiz-adv-x="499" 
d="M444 648v-64h-284v-220h264v-62h-264v-238h295v-64h-377v648h366zM196 723l97 135h100l-132 -135h-65z" />
    <glyph glyph-name="Ntilde" unicode="&#xd1;" horiz-adv-x="652" 
d="M443 0l-239 476c-20 39 -39 93 -48 126c2 -46 2 -93 2 -128v-474h-80v648h128l251 -492c14 -27 29 -66 38 -108c-1 40 -1 79 -1 108v492h80v-648h-131zM184 733l-19 36c25 20 77 56 118 56c30 0 80 -41 101 -41c30 0 74 28 86 37l28 -36c-21 -19 -86 -62 -128 -62
c-28 0 -74 41 -100 41c-28 0 -68 -21 -86 -31z" />
    <glyph glyph-name="Odieresis" unicode="&#xd6;" horiz-adv-x="662" 
d="M60 324c0 241 80 334 272 334c189 0 270 -90 270 -334c0 -240 -78 -334 -270 -334s-272 94 -272 334zM146 324c0 -204 46 -270 186 -270c139 0 184 66 184 270c0 202 -45 270 -184 270c-140 0 -186 -68 -186 -270zM185 783c0 37 16 51 44 51c35 0 51 -14 51 -51
c0 -33 -16 -48 -51 -48c-28 0 -44 13 -44 48zM382 783c0 37 16 51 45 51c35 0 50 -14 50 -51c0 -33 -15 -48 -50 -48c-29 0 -45 13 -45 48z" />
    <glyph glyph-name="Udieresis" unicode="&#xdc;" horiz-adv-x="638" 
d="M78 178v470h82v-462c0 -103 61 -132 158 -132s160 29 160 132v462h82v-470c0 -129 -88 -188 -242 -188s-240 59 -240 188zM173 783c0 37 16 51 44 51c35 0 51 -14 51 -51c0 -33 -16 -48 -51 -48c-28 0 -44 13 -44 48zM370 783c0 37 16 51 45 51c35 0 50 -14 50 -51
c0 -33 -15 -48 -50 -48c-29 0 -45 13 -45 48z" />
    <glyph glyph-name="ntilde" unicode="&#xf1;" 
d="M80 490h61l11 -41c30 19 93 51 171 51c95 0 150 -48 150 -161v-339h-80v333c0 72 -23 105 -83 105c-61 0 -121 -28 -150 -47v-391h-80v490zM129 575l-19 36c25 20 77 56 118 56c30 0 80 -41 101 -41c30 0 74 28 86 37l28 -36c-21 -19 -86 -62 -128 -62
c-28 0 -74 41 -100 41c-28 0 -68 -21 -86 -31z" />
    <glyph glyph-name="otilde" unicode="&#xf5;" horiz-adv-x="558" 
d="M279 -10c-152 0 -223 72 -223 255c0 181 71 255 223 255c151 0 223 -74 223 -255c0 -183 -72 -255 -223 -255zM279 52c102 0 139 46 139 193c0 144 -37 193 -139 193s-139 -49 -139 -193c0 -147 37 -193 139 -193zM131 575l-19 36c25 20 77 56 118 56
c30 0 80 -41 101 -41c30 0 74 28 86 37l28 -36c-21 -19 -86 -62 -128 -62c-28 0 -74 41 -100 41c-28 0 -68 -21 -86 -31z" />
    <glyph glyph-name="Agrave" unicode="&#xc0;" horiz-adv-x="632" 
d="M364 648l238 -648h-87l-64 178h-272l-63 -178h-86l238 648h96zM266 433l-65 -191h228l-65 191c-11 32 -44 124 -47 154h-2c-3 -30 -38 -122 -49 -154zM248 858l97 -135h-65l-132 135h100z" />
    <glyph glyph-name="Atilde" unicode="&#xc3;" horiz-adv-x="632" 
d="M364 648l238 -648h-87l-64 178h-272l-63 -178h-86l238 648h96zM266 433l-65 -191h228l-65 191c-11 32 -44 124 -47 154h-2c-3 -30 -38 -122 -49 -154zM168 733l-19 36c25 20 77 56 118 56c30 0 80 -41 101 -41c30 0 74 28 86 37l28 -36c-21 -19 -86 -62 -128 -62
c-28 0 -74 41 -100 41c-28 0 -68 -21 -86 -31z" />
    <glyph glyph-name="Otilde" unicode="&#xd5;" horiz-adv-x="662" 
d="M60 324c0 241 80 334 272 334c189 0 270 -90 270 -334c0 -240 -78 -334 -270 -334s-272 94 -272 334zM146 324c0 -204 46 -270 186 -270c139 0 184 66 184 270c0 202 -45 270 -184 270c-140 0 -186 -68 -186 -270zM183 733l-19 36c25 20 77 56 118 56
c30 0 80 -41 101 -41c30 0 74 28 86 37l28 -36c-21 -19 -86 -62 -128 -62c-28 0 -74 41 -100 41c-28 0 -68 -21 -86 -31z" />
    <glyph glyph-name="ydieresis" unicode="&#xff;" horiz-adv-x="546" 
d="M515 490l-209 -537c-42 -109 -69 -180 -206 -180h-27v62h9c88 0 110 32 155 155l8 22l-34 18l-180 460h85l121 -308c6 -14 31 -96 35 -124h2c4 28 29 110 35 124l121 308h85zM127 625c0 37 16 51 44 51c35 0 51 -14 51 -51c0 -33 -16 -48 -51 -48c-28 0 -44 13 -44 48z
M324 625c0 37 16 51 45 51c35 0 50 -14 50 -51c0 -33 -15 -48 -50 -48c-29 0 -45 13 -45 48z" />
    <glyph glyph-name="Ydieresis" unicode="&#x178;" horiz-adv-x="564" 
d="M242 0v234l-224 414h91l173 -338l173 338h91l-224 -414v-234h-80zM136 783c0 37 16 51 44 51c35 0 51 -14 51 -51c0 -33 -16 -48 -51 -48c-28 0 -44 13 -44 48zM333 783c0 37 16 51 45 51c35 0 50 -14 50 -51c0 -33 -15 -48 -50 -48c-29 0 -45 13 -45 48z" />
    <glyph glyph-name="Egrave" unicode="&#xc8;" horiz-adv-x="499" 
d="M444 648v-64h-284v-220h264v-62h-264v-238h295v-64h-377v648h366zM225 858l97 -135h-65l-132 135h100z" />
    <glyph glyph-name="Edieresis" unicode="&#xcb;" horiz-adv-x="499" 
d="M444 648v-64h-284v-220h264v-62h-264v-238h295v-64h-377v648h366zM123 783c0 37 16 51 44 51c35 0 51 -14 51 -51c0 -33 -16 -48 -51 -48c-28 0 -44 13 -44 48zM320 783c0 37 16 51 45 51c35 0 50 -14 50 -51c0 -33 -15 -48 -50 -48c-29 0 -45 13 -45 48z" />
    <glyph glyph-name="Ecircumflex" unicode="&#xca;" horiz-adv-x="499" 
d="M444 648v-64h-284v-220h264v-62h-264v-238h295v-64h-377v648h366zM295 868l121 -145h-65l-82 84l-82 -84h-65l121 145h52z" />
    <glyph glyph-name="Aacute" unicode="&#xc1;" horiz-adv-x="632" 
d="M364 648l238 -648h-87l-64 178h-272l-63 -178h-86l238 648h96zM266 433l-65 -191h228l-65 191c-11 32 -44 124 -47 154h-2c-3 -30 -38 -122 -49 -154zM277 723l97 135h100l-132 -135h-65z" />
    <glyph glyph-name="Acircumflex" unicode="&#xc2;" horiz-adv-x="632" 
d="M364 648l238 -648h-87l-64 178h-272l-63 -178h-86l238 648h96zM266 433l-65 -191h228l-65 191c-11 32 -44 124 -47 154h-2c-3 -30 -38 -122 -49 -154zM342 868l121 -145h-65l-82 84l-82 -84h-65l121 145h52z" />
    <glyph glyph-name="Ocircumflex" unicode="&#xd4;" horiz-adv-x="662" 
d="M60 324c0 241 80 334 272 334c189 0 270 -90 270 -334c0 -240 -78 -334 -270 -334s-272 94 -272 334zM146 324c0 -204 46 -270 186 -270c139 0 184 66 184 270c0 202 -45 270 -184 270c-140 0 -186 -68 -186 -270zM357 868l121 -145h-65l-82 84l-82 -84h-65l121 145h52z
" />
    <glyph glyph-name="Oacute" unicode="&#xd3;" horiz-adv-x="662" 
d="M60 324c0 241 80 334 272 334c189 0 270 -90 270 -334c0 -240 -78 -334 -270 -334s-272 94 -272 334zM146 324c0 -204 46 -270 186 -270c139 0 184 66 184 270c0 202 -45 270 -184 270c-140 0 -186 -68 -186 -270zM282 723l97 135h100l-132 -135h-65z" />
    <glyph glyph-name="Igrave" unicode="&#xcc;" horiz-adv-x="238" 
d="M78 649h82v-649h-82v649zM49 858l97 -135h-65l-132 135h100z" />
    <glyph glyph-name="Idieresis" unicode="&#xcf;" horiz-adv-x="238" 
d="M78 649h82v-649h-82v649zM-27 783c0 37 16 51 44 51c35 0 51 -14 51 -51c0 -33 -16 -48 -51 -48c-28 0 -44 13 -44 48zM170 783c0 37 16 51 45 51c35 0 50 -14 50 -51c0 -33 -15 -48 -50 -48c-29 0 -45 13 -45 48z" />
    <glyph glyph-name="Icircumflex" unicode="&#xce;" horiz-adv-x="238" 
d="M78 649h82v-649h-82v649zM145 868l121 -145h-65l-82 84l-82 -84h-65l121 145h52z" />
    <glyph glyph-name="Iacute" unicode="&#xcd;" horiz-adv-x="238" 
d="M78 649h82v-649h-82v649zM84 723l97 135h100l-132 -135h-65z" />
    <glyph glyph-name="Ograve" unicode="&#xd2;" horiz-adv-x="662" 
d="M60 324c0 241 80 334 272 334c189 0 270 -90 270 -334c0 -240 -78 -334 -270 -334s-272 94 -272 334zM146 324c0 -204 46 -270 186 -270c139 0 184 66 184 270c0 202 -45 270 -184 270c-140 0 -186 -68 -186 -270zM272 858l97 -135h-65l-132 135h100z" />
    <glyph glyph-name="Uacute" unicode="&#xda;" horiz-adv-x="638" 
d="M78 178v470h82v-462c0 -103 61 -132 158 -132s160 29 160 132v462h82v-470c0 -129 -88 -188 -242 -188s-240 59 -240 188zM270 723l97 135h100l-132 -135h-65z" />
    <glyph glyph-name="Ucircumflex" unicode="&#xdb;" horiz-adv-x="638" 
d="M78 178v470h82v-462c0 -103 61 -132 158 -132s160 29 160 132v462h82v-470c0 -129 -88 -188 -242 -188s-240 59 -240 188zM345 868l121 -145h-65l-82 84l-82 -84h-65l121 145h52z" />
    <glyph glyph-name="Ugrave" unicode="&#xd9;" horiz-adv-x="638" 
d="M78 178v470h82v-462c0 -103 61 -132 158 -132s160 29 160 132v462h82v-470c0 -129 -88 -188 -242 -188s-240 59 -240 188zM270 858l97 -135h-65l-132 135h100z" />
    <glyph glyph-name="macron" unicode="&#xaf;" horiz-adv-x="419" 
d="M80 585v60h259v-60h-259z" />
    <glyph glyph-name="amacron" unicode="&#x101;" horiz-adv-x="520" 
d="M109 407l-15 59c17 8 87 34 191 34c93 0 155 -41 155 -165v-335h-61l-12 52c-25 -20 -84 -62 -161 -62c-102 0 -151 65 -151 160c0 102 94 147 265 147h40v39c0 78 -29 102 -89 102c-72 0 -136 -21 -162 -31zM360 114v123h-44c-128 0 -179 -31 -179 -88
c0 -45 17 -97 76 -97c61 0 128 46 147 62zM135 585v60h259v-60h-259z" />
    <glyph glyph-name="breve" unicode="&#x2d8;" horiz-adv-x="406" 
d="M80 679h57c0 -37 4 -72 65 -72c63 0 66 35 67 72h57c0 -72 -32 -119 -124 -119c-90 0 -122 47 -122 119z" />
    <glyph glyph-name="abreve" unicode="&#x103;" horiz-adv-x="520" 
d="M109 407l-15 59c17 8 87 34 191 34c93 0 155 -41 155 -165v-335h-61l-12 52c-25 -20 -84 -62 -161 -62c-102 0 -151 65 -151 160c0 102 94 147 265 147h40v39c0 78 -29 102 -89 102c-72 0 -136 -21 -162 -31zM360 114v123h-44c-128 0 -179 -31 -179 -88
c0 -45 17 -97 76 -97c61 0 128 46 147 62zM139 679h57c0 -37 4 -72 65 -72c63 0 66 35 67 72h57c0 -72 -32 -119 -124 -119c-90 0 -122 47 -122 119z" />
    <glyph glyph-name="dotaccent" unicode="&#x2d9;" horiz-adv-x="255" 
d="M80 625c0 37 16 51 44 51c35 0 51 -14 51 -51c0 -33 -16 -48 -51 -48c-28 0 -44 13 -44 48z" />
    <glyph glyph-name="hungarumlaut" unicode="&#x2dd;" horiz-adv-x="514" 
d="M80 565l97 135h100l-132 -135h-65zM237 565l97 135h100l-132 -135h-65z" />
    <glyph glyph-name="ohungarumlaut" unicode="&#x151;" horiz-adv-x="558" 
d="M279 -10c-152 0 -223 72 -223 255c0 181 71 255 223 255c151 0 223 -74 223 -255c0 -183 -72 -255 -223 -255zM279 52c102 0 139 46 139 193c0 144 -37 193 -139 193s-139 -49 -139 -193c0 -147 37 -193 139 -193zM146 565l97 135h100l-132 -135h-65zM303 565l97 135h100
l-132 -135h-65z" />
    <glyph glyph-name="aogonek" unicode="&#x105;" horiz-adv-x="520" 
d="M109 407l-15 57c18 8 82 36 191 36c93 0 155 -41 155 -165v-335c-31 -20 -95 -62 -95 -121c0 -42 35 -48 75 -48h23v-50h-23c-83 0 -142 11 -142 98c0 59 61 104 101 121l-12 52c-19 -19 -77 -62 -156 -62c-101 0 -157 62 -157 157c0 102 98 145 246 145h60v44
c0 81 -29 102 -89 102c-73 0 -136 -21 -162 -31zM360 113v119h-44c-128 0 -178 -28 -178 -82c0 -45 16 -98 75 -98c61 0 129 41 147 61z" />
    <glyph glyph-name="ogonek" unicode="&#x2db;" horiz-adv-x="325" 
d="M196 7l46 -6s-95 -54 -95 -122c0 -42 35 -48 75 -48h23v-50h-23c-83 0 -142 11 -142 98c0 83 116 128 116 128z" />
    <glyph glyph-name="infinity" unicode="&#x221e;" horiz-adv-x="810" 
d="M447 303c48 -55 101 -104 153 -104c62 0 102 41 102 100c0 61 -38 100 -105 100c-54 0 -105 -45 -150 -96zM408 348c53 56 118 108 195 108c96 0 167 -57 167 -153c0 -100 -77 -161 -172 -161c-75 0 -142 52 -195 110c-55 -58 -119 -110 -195 -110
c-97 0 -168 56 -168 154c0 99 77 160 174 160c76 0 141 -54 194 -108zM365 297c-50 53 -102 102 -154 102c-63 0 -103 -40 -103 -98c0 -63 38 -102 106 -102c52 0 103 46 151 98z" />
    <glyph glyph-name="OE" unicode="&#x152;" horiz-adv-x="826" 
d="M771 648v-64h-284v-220h264v-62h-264v-238h295v-64h-356c-28 -7 -59 -10 -94 -10c-192 0 -272 94 -272 334c0 241 80 334 272 334c35 0 66 -4 94 -10h345zM405 62v523c-21 6 -45 9 -73 9c-140 0 -186 -68 -186 -270c0 -204 46 -270 186 -270c28 0 52 2 73 8z" />
    <glyph glyph-name="AE" unicode="&#xc6;" horiz-adv-x="935" 
d="M881 648v-64h-284v-220h264v-62h-264v-238h295v-64h-377v178h-272l-127 -178h-97l462 648h400zM283 242h232v345h-2z" />
    <glyph glyph-name="greater" unicode="&#x3e;" horiz-adv-x="535" 
d="M480 351v-85l-395 -202v90l327 155l-327 154v90z" />
    <glyph glyph-name="less" unicode="&#x3c;" horiz-adv-x="535" 
d="M55 266v85l395 202v-90l-327 -154l327 -155v-90z" />
    <glyph glyph-name="asciicircum" unicode="^" horiz-adv-x="517" 
d="M223 648h71l173 -300h-85l-124 235l-123 -235h-85z" />
    <glyph glyph-name="questiondown" unicode="&#xbf;" horiz-adv-x="504" 
d="M414 -22l16 -60c-15 -7 -89 -21 -176 -21c-121 0 -190 37 -190 162c0 165 178 127 178 249v77h80v-78c0 -166 -174 -138 -174 -248c0 -66 30 -98 106 -98c69 0 143 11 160 17zM332 513c0 -38 -19 -52 -49 -52c-35 0 -50 14 -50 52c0 36 15 52 50 52c30 0 49 -14 49 -52z
" />
    <glyph glyph-name="exclamdown" unicode="&#xa1;" horiz-adv-x="269" 
d="M180 -103h-82l5 488h72zM189 513c0 -38 -19 -52 -49 -52c-35 0 -50 14 -50 52c0 36 15 52 50 52c30 0 49 -14 49 -52z" />
    <glyph glyph-name="plusminus" unicode="&#xb1;" horiz-adv-x="618" 
d="M273 616h72v-205h203v-68h-203v-205h-72v205h-203v68h203v205zM70 68h478v-68h-478v68z" />
    <glyph glyph-name="greaterequal" unicode="&#x2265;" horiz-adv-x="540" 
d="M465 401v-85l-395 -202v90l327 155l-327 154v90zM70 57h400v-68h-400v68z" />
    <glyph glyph-name="lessequal" unicode="&#x2264;" horiz-adv-x="540" 
d="M75 316v85l395 202v-90l-327 -154l327 -155v-90zM70 57h400v-68h-400v68z" />
    <glyph glyph-name="asciitilde" unicode="~" horiz-adv-x="528" 
d="M432 646l56 -21c-6 -66 -58 -135 -136 -135c-94 0 -116 109 -179 109c-49 0 -63 -49 -75 -96l-58 20c11 76 60 135 137 135c95 0 116 -109 178 -109c47 0 69 58 77 97z" />
    <glyph glyph-name="asterisk" unicode="*" horiz-adv-x="449" 
d="M398 443l-35 -62l-113 75l11 -134h-72l10 134l-113 -75l-36 61l132 58l-132 59l37 64l112 -76l-10 135h72l-11 -135l113 76l36 -63l-131 -58z" />
    <glyph glyph-name="Oslash" unicode="&#xd8;" horiz-adv-x="662" 
d="M157 -107l37 121c-93 41 -134 138 -134 310c0 241 80 334 272 334c22 0 42 -2 61 -4l33 104h70l-38 -120c100 -38 144 -134 144 -314c0 -240 -78 -334 -270 -334c-27 0 -52 2 -74 6l-32 -103h-69zM516 324c0 138 -21 213 -79 247l-160 -513c17 -3 35 -4 55 -4
c139 0 184 66 184 270zM146 324c0 -132 19 -206 70 -242l158 509c-13 2 -27 3 -42 3c-140 0 -186 -68 -186 -270z" />
    <glyph glyph-name="oslash" unicode="&#xf8;" horiz-adv-x="558" 
d="M138 -98l31 106c-77 31 -113 105 -113 237c0 181 71 255 223 255c12 0 24 -1 36 -2l27 92h72l-32 -106c81 -31 120 -106 120 -239c0 -183 -72 -255 -223 -255c-17 0 -33 1 -48 3l-27 -91h-66zM279 52c102 0 139 46 139 193c0 95 -16 148 -56 174l-112 -366
c9 -1 18 -1 29 -1zM140 245c0 -92 14 -144 49 -170l108 362c-6 1 -12 1 -18 1c-102 0 -139 -49 -139 -193z" />
    <glyph glyph-name="cent" unicode="&#xa2;" horiz-adv-x="477" 
d="M253 -110v101c-125 6 -197 65 -197 251c0 183 70 250 197 257v101h65v-102c58 -6 93 -23 109 -33l-15 -57c-20 8 -52 22 -94 27v-382c43 5 78 16 91 20l14 -56c-15 -6 -50 -20 -105 -25v-102h-65zM140 242c0 -131 35 -180 113 -189v383c-83 -8 -113 -61 -113 -194z" />
    <glyph glyph-name="bullet" unicode="&#x2022;" horiz-adv-x="449" 
d="M100 300c0 94 50 130 124 130s125 -36 125 -130c0 -96 -51 -131 -125 -131s-124 35 -124 131z" />
    <glyph glyph-name="periodcentered" unicode="&#xb7;" horiz-adv-x="249" 
d="M70 307c0 42 21 57 54 57c38 0 55 -15 55 -57c0 -40 -17 -57 -55 -57c-33 0 -54 15 -54 57z" />
    <glyph glyph-name="fraction" unicode="&#x2044;" horiz-adv-x="376" 
d="M30 -72l252 807h64l-253 -807h-63z" />
    <glyph glyph-name="Hbar" unicode="&#x126;" horiz-adv-x="635" 
d="M18 490v60h60v98h82v-98h315v98h82v-98h60v-60h-60v-490h-82v301h-315v-301h-82v490h-60zM160 366h315v124h-315v-124z" />
    <glyph glyph-name="Lslash" unicode="&#x141;" horiz-adv-x="482" 
d="M5 252v75l73 46v275h82v-224l149 93v-75l-149 -93v-285h296v-64h-378v298z" />
    <glyph glyph-name="lslash" unicode="&#x142;" horiz-adv-x="285" 
d="M10 292v75l90 56v266l80 11v-227l95 60v-75l-95 -60v-398h-80v348z" />
    <glyph glyph-name="zcaron" unicode="&#x17e;" horiz-adv-x="466" 
d="M63 490h355v-60l-273 -368h283v-62h-384v58l276 370h-257v62zM211 559l-121 145h65l82 -84l82 84h65l-121 -145h-52z" />
    <glyph glyph-name="Zcaron" unicode="&#x17d;" horiz-adv-x="500" 
d="M57 583v65h412v-54l-328 -529h331v-65h-437v58l331 525h-309zM228 717l-121 145h65l82 -84l82 84h65l-121 -145h-52z" />
    <glyph glyph-name="Scaron" unicode="&#x160;" horiz-adv-x="551" 
d="M407 155c0 84 -51 104 -140 136c-130 47 -205 78 -205 196c0 117 101 171 227 171c93 0 149 -11 177 -18l-16 -61c-33 7 -96 15 -160 15c-100 0 -144 -37 -144 -107c0 -69 55 -89 139 -121c104 -39 208 -79 208 -200c0 -110 -80 -176 -221 -176c-104 0 -189 22 -214 32
l18 61c34 -9 114 -28 187 -28c98 0 144 39 144 100zM249 717l-121 145h65l82 -84l82 84h65l-121 -145h-52z" />
    <glyph glyph-name="scaron" unicode="&#x161;" horiz-adv-x="454" 
d="M217 217c-88 30 -148 64 -149 149c-1 76 58 134 179 134c69 0 128 -11 150 -18l-15 -54c-25 3 -78 10 -138 10c-53 0 -94 -20 -93 -65c1 -51 36 -67 114 -95c93 -33 147 -69 147 -150c0 -84 -54 -138 -177 -138c-69 0 -148 17 -171 24l16 56c23 -4 90 -18 149 -18
c61 0 102 23 101 72c-1 45 -23 62 -113 93zM201 559l-121 145h65l82 -84l82 84h65l-121 -145h-52z" />
    <glyph glyph-name="yacute" unicode="&#xfd;" horiz-adv-x="546" 
d="M515 490l-209 -537c-42 -109 -69 -180 -206 -180h-27v62h9c88 0 110 32 155 155l8 22l-34 18l-180 460h85l121 -308c6 -14 31 -96 35 -124h2c4 28 29 110 35 124l121 308h85zM211 565l97 135h100l-132 -135h-65z" />
    <glyph glyph-name="Yacute" unicode="&#xdd;" horiz-adv-x="564" 
d="M242 0v234l-224 414h91l173 -338l173 338h91l-224 -414v-234h-80zM232 723l97 135h100l-132 -135h-65z" />
    <glyph glyph-name="brokenbar" unicode="&#xa6;" horiz-adv-x="230" 
d="M150 497h-70v273h70v-273zM80 298h70v-298h-70v298z" />
    <glyph glyph-name="thorn" unicode="&#xfe;" horiz-adv-x="561" 
d="M80 -227v865l80 10v-210c30 30 75 62 155 62c135 0 190 -69 190 -244v-20c0 -167 -97 -246 -229 -246c-44 0 -83 4 -116 15v-232h-80zM160 377v-312c26 -10 68 -13 116 -13c85 0 145 62 145 184v20c0 141 -36 182 -115 182c-58 0 -120 -35 -146 -61z" />
    <glyph glyph-name="Thorn" unicode="&#xde;" horiz-adv-x="567" 
d="M78 648h82v-102h140c169 0 219 -59 219 -198c0 -138 -50 -209 -219 -209h-140v-139h-82v648zM300 483h-140v-281c27 0 93 2 140 2c95 1 133 44 133 144c0 102 -36 135 -133 135z" />
    <glyph glyph-name="germandbls" unicode="&#xdf;" horiz-adv-x="692" 
d="M563 119c0 112 -247 76 -247 244c0 115 141 112 141 197c0 59 -51 78 -135 78h-42c-78 0 -84 -27 -84 -78v-560h-80v430l-66 5v55h66v67c0 75 31 141 164 141h58c135 0 192 -63 192 -142c0 -134 -136 -120 -136 -193c0 -101 250 -93 250 -236c0 -85 -68 -137 -178 -137
c-87 0 -153 22 -164 27l15 57c13 -4 82 -22 146 -22c67 0 100 26 100 67z" />
    <glyph glyph-name="onesuperior" unicode="&#xb9;" horiz-adv-x="322" 
d="M67 299v55h68v276l-60 -15l-15 48l96 25h44v-334h67v-55h-200z" />
    <glyph glyph-name="Euro" unicode="&#x20ac;" horiz-adv-x="591" 
d="M70 378v60h61c24 165 113 220 264 220c78 0 130 -17 154 -28l-19 -61c-33 11 -78 25 -131 25c-101 0 -163 -24 -182 -156h153l-10 -60h-148c-1 -14 -1 -29 -1 -44v-59h159l-10 -60h-143c19 -136 84 -161 182 -161c54 0 107 12 136 19l16 -62c-25 -7 -83 -21 -156 -21
c-148 0 -240 54 -264 225h-61v60h55v59c0 15 0 30 1 44h-56z" />
    <glyph glyph-name="multiply" unicode="&#xd7;" horiz-adv-x="618" 
d="M483 532l50 -50l-175 -175l174 -174l-48 -48l-174 174l-175 -175l-50 50l175 175l-174 174l48 48l174 -174z" />
    <glyph glyph-name="Tbar" unicode="&#x166;" horiz-adv-x="548" 
d="M85 341v60h148v184h-207v63h496v-63h-207v-184h148v-60h-148v-341h-82v341h-148z" />
    <glyph glyph-name="tbar" unicode="&#x167;" horiz-adv-x="366" 
d="M54 263v56h64v111h-70v60h69l10 138l71 6v-144h136l-11 -60h-125v-111h115v-56h-115v-130c0 -55 12 -72 58 -72h66v-61h-72c-86 0 -132 43 -132 133v130h-64z" />
    <glyph glyph-name="mu" unicode="&#xb5;" 
d="M160 -227h-80v717h80v-333c0 -72 23 -105 83 -105c65 0 132 48 150 62v376h80v-490h-61l-12 52c-19 -15 -81 -62 -170 -62c-25 0 -53 12 -70 31v-248z" />
    <glyph glyph-name="mu" unicode="&#x3bc;" 
d="M160 -227h-80v717h80v-333c0 -72 23 -105 83 -105c65 0 132 48 150 62v376h80v-490h-61l-12 52c-19 -15 -81 -62 -170 -62c-25 0 -53 12 -70 31v-248z" />
    <glyph glyph-name="copyright" unicode="&#xa9;" horiz-adv-x="906" 
d="M82 355c0 244 140 365 368 365c230 0 369 -121 369 -365c0 -269 -166 -365 -369 -365c-225 0 -368 119 -368 365zM152 355c0 -212 111 -308 298 -308c168 0 299 76 299 308c0 207 -105 308 -299 308c-190 0 -298 -101 -298 -308zM565 206l12 -58c-17 -3 -76 -14 -131 -14
c-116 0 -182 49 -182 216v13c0 165 63 216 182 216c66 0 111 -15 129 -22l-12 -55c-23 7 -73 15 -114 15c-76 0 -112 -23 -112 -154v-13c0 -130 36 -154 112 -154c42 0 97 6 116 10z" />
    <glyph glyph-name="registered" unicode="&#xae;" horiz-adv-x="907" 
d="M85 355c0 244 140 365 368 365c230 0 369 -121 369 -365c0 -269 -166 -365 -369 -365c-225 0 -368 119 -368 365zM155 355c0 -212 111 -308 298 -308c168 0 299 76 299 308c0 207 -105 308 -299 308c-190 0 -298 -101 -298 -308zM304 569h154c108 0 150 -35 150 -120
c0 -83 -44 -97 -100 -104c52 -6 74 -25 89 -76l33 -115h-72l-31 110c-10 42 -38 53 -90 53h-63v-163h-70v415zM448 518h-74v-142c18 1 43 1 61 1c76 0 99 12 99 72c0 56 -18 69 -86 69z" />
    <glyph glyph-name="dagger" unicode="&#x2020;" horiz-adv-x="594" 
d="M80 422v68h182v220h70v-220h182v-68h-182v-648h-70v648h-182z" />
    <glyph glyph-name="daggerdbl" unicode="&#x2021;" horiz-adv-x="594" 
d="M80 72v68h182v282h-182v68h182v220h70v-220h182v-68h-182v-282h182v-68h-182v-298h-70v298h-182z" />
    <glyph glyph-name="florin" unicode="&#x192;" horiz-adv-x="469" 
d="M163 -72c-16 -90 -79 -156 -180 -156h-43l21 60h24c60 0 89 43 97 89l89 509l-65 5l10 55h66l12 67c13 75 64 141 164 141h86l-26 -60h-71c-45 0 -64 -27 -73 -78l-12 -70h136l-21 -60h-126z" />
    <glyph glyph-name="sterling" unicode="&#xa3;" horiz-adv-x="529" 
d="M100 279v60h61c-24 47 -53 93 -53 151c0 106 71 173 204 173c61 0 127 -14 152 -22v-61c-29 9 -104 21 -152 21c-78 0 -120 -41 -120 -111c0 -56 35 -106 54 -151h169l10 -60h-167c-3 -89 -51 -165 -85 -215h315v-64h-408v53c50 54 99 132 99 226h-79z" />
    <glyph glyph-name="trademark" unicode="&#x2122;" horiz-adv-x="926" 
d="M366 700v-58h-128v-348h-75v348h-128v58h331zM606 295l-84 271c-10 27 -19 67 -25 90h-2c2 -23 2 -67 2 -90v-272h-67v406h114l84 -279c9 -26 20 -68 22 -90h1c2 22 12 64 21 90l84 279h115v-406h-67v271c0 24 -1 68 1 91h-2c-5 -23 -18 -63 -28 -91l-80 -270h-89z" />
    <glyph glyph-name="guilsinglleft" unicode="&#x2039;" horiz-adv-x="331" 
d="M148 243l133 -189h-76l-135 189l135 190h76z" />
    <glyph glyph-name="guilsinglright" unicode="&#x203a;" horiz-adv-x="331" 
d="M50 54l133 189l-133 190h76l135 -190l-135 -189h-76z" />
    <glyph glyph-name="guillemotright" unicode="&#xbb;" horiz-adv-x="495" 
d="M50 54l133 189l-133 190h76l135 -190l-135 -189h-76zM214 54l133 189l-133 190h76l135 -190l-135 -189h-76z" />
    <glyph glyph-name="guillemotleft" unicode="&#xab;" horiz-adv-x="495" 
d="M312 243l133 -189h-76l-135 189l135 190h76zM148 243l133 -189h-76l-135 189l135 190h76z" />
    <glyph glyph-name="twosuperior" unicode="&#xb2;" horiz-adv-x="366" 
d="M77 624l-6 49c23 8 51 20 106 20c109 0 135 -44 135 -118s-87 -173 -162 -221h171v-55h-261v48c69 55 178 147 178 228c0 50 -23 64 -62 64c-38 0 -73 -8 -99 -15z" />
    <glyph glyph-name="threesuperior" unicode="&#xb3;" horiz-adv-x="356" 
d="M64 625l-6 50c23 8 62 18 113 18c72 0 121 -24 121 -99c0 -46 -28 -68 -59 -86c36 -10 71 -32 71 -85c0 -75 -38 -124 -185 -124h-69l9 55h65c69 0 106 15 106 69c0 34 -19 51 -51 55c-17 2 -57 2 -72 2v47c23 0 54 1 68 4c32 6 44 33 44 63c0 31 -16 44 -52 44
c-34 0 -79 -7 -103 -13z" />
    <glyph glyph-name="section" unicode="&#xa7;" horiz-adv-x="492" 
d="M417 285c0 -60 -34 -104 -93 -124c57 -28 93 -61 93 -126c0 -85 -68 -137 -178 -137c-87 0 -153 22 -164 27l15 57c13 -4 82 -22 146 -22c67 0 100 26 100 67c0 63 -42 74 -113 101c-76 29 -146 49 -146 147c0 64 39 103 97 121c-55 23 -97 53 -97 129
c0 91 80 133 178 133c79 0 124 -10 142 -16l-15 -57c-21 6 -74 11 -126 11c-69 0 -99 -23 -99 -71c0 -53 45 -66 109 -91c89 -35 151 -63 151 -149zM336 277c0 34 -13 54 -36 68c-65 40 -143 20 -143 -70c0 -41 29 -58 69 -74c66 -26 110 9 110 76z" />
    <glyph glyph-name="eth" unicode="&#xf0;" horiz-adv-x="569" 
d="M243 568l-25 51l100 26c-21 28 -44 53 -66 73h82c17 -15 35 -34 52 -56l81 21l24 -51l-74 -19c44 -80 77 -191 77 -342v-26c0 -180 -55 -255 -215 -255c-152 0 -223 72 -223 255c0 181 71 255 223 255c65 0 104 -21 124 -38c-10 45 -29 91 -53 133zM279 52
c102 0 139 46 139 193v111c0 36 -62 82 -139 82c-102 0 -139 -49 -139 -193c0 -147 37 -193 139 -193z" />
    <glyph glyph-name="longs" unicode="&#x17f;" horiz-adv-x="341" 
d="M196 0h-80v430l-66 5v55h66v67c0 75 39 141 139 141h86l-15 -60h-71c-45 0 -59 -27 -59 -78v-560z" />
    <glyph glyph-name="yen" unicode="&#xa5;" horiz-adv-x="568" 
d="M121 244v55h83l-184 349h91l173 -351l173 351h91l-184 -349h83v-55h-123v-66h123v-55h-123v-123h-80v123h-123v55h123v66h-123z" />
    <glyph glyph-name="approxequal" unicode="&#x2248;" horiz-adv-x="606" 
d="M103 162l-34 59c34 33 81 59 133 59c82 0 138 -68 204 -68c34 0 72 18 101 44l32 -60c-36 -38 -88 -58 -139 -58c-80 0 -142 68 -204 68c-36 0 -65 -16 -93 -44zM101 340l-34 58c31 32 78 60 133 60c82 0 138 -68 204 -68c34 0 72 18 101 44l32 -60
c-36 -38 -88 -59 -139 -59c-80 0 -142 68 -204 68c-34 0 -63 -15 -93 -43z" />
    <glyph glyph-name="partialdiff" unicode="&#x2202;" horiz-adv-x="567" 
d="M155 648l-13 67c301 0 365 -107 365 -386v-49c0 -180 -46 -290 -215 -290c-151 0 -217 82 -217 213c0 121 52 205 200 205c58 0 114 -10 151 -23c-2 180 -33 263 -271 263zM427 249v75c-35 12 -91 22 -151 22c-78 0 -118 -41 -118 -143c0 -116 47 -151 134 -151
c93 0 135 52 135 197z" />
    <glyph glyph-name="summation" unicode="&#x2211;" horiz-adv-x="614" 
d="M75 -74v58l232 324l-232 292v58h482v-64h-396l234 -286l-234 -318h396v-64h-482z" />
    <glyph glyph-name="product" unicode="&#x220f;" horiz-adv-x="738" 
d="M129 -74v718h-109v65h698v-65h-109v-718h-75v718h-330v-718h-75z" />
    <glyph glyph-name="integral" unicode="&#x222b;" horiz-adv-x="362" 
d="M201 717v-808c0 -81 -58 -115 -115 -115h-96v63h86c33 0 50 18 50 79v808c0 81 58 115 115 115h96v-63h-86c-33 0 -50 -18 -50 -79z" />
    <glyph glyph-name="radical" unicode="&#x221a;" horiz-adv-x="586" 
d="M256 0l-122 319h-84v60h138l107 -293h2l194 594h75l-225 -680h-85z" />
    <glyph glyph-name="logicalnot" unicode="&#xac;" horiz-adv-x="723" 
d="M580 58v202h-510v68h583v-270h-73z" />
    <glyph glyph-name="lozenge" unicode="&#x25ca;" horiz-adv-x="598" 
d="M267 698h64l219 -372l-219 -372h-64l-219 372zM299 624l-163 -298l163 -297l162 297z" />
    <glyph glyph-name="ordfeminine" unicode="&#xaa;" horiz-adv-x="366" 
d="M84 589l-9 43c13 7 60 26 127 26c64 0 109 -27 109 -108v-222h-51l-6 30c-20 -18 -58 -37 -103 -37c-67 0 -104 46 -104 106c0 68 64 96 165 96h37v21c0 46 -18 64 -56 64c-51 0 -94 -13 -109 -19zM249 400v80h-27c-80 0 -112 -17 -112 -51c0 -38 19 -59 49 -59
c37 0 72 15 90 30z" />
    <glyph glyph-name="degree" unicode="&#xb0;" horiz-adv-x="365" 
d="M50 524c0 85 44 134 132 134c89 0 133 -49 133 -134s-47 -133 -133 -133c-85 0 -132 48 -132 133zM110 524c0 -53 24 -82 72 -82c47 0 73 29 73 82c0 52 -22 84 -73 84s-72 -32 -72 -84z" />
    <glyph glyph-name="ordmasculine" unicode="&#xba;" horiz-adv-x="406" 
d="M202 321c-99 0 -152 48 -152 168c0 119 53 169 152 169s154 -50 154 -169c0 -120 -55 -168 -154 -168zM202 368c59 0 88 28 88 121c0 95 -29 122 -88 122s-88 -27 -88 -122c0 -93 29 -121 88 -121z" />
    <glyph glyph-name="pi" unicode="&#x3c0;" horiz-adv-x="596" 
d="M40 425v65h516v-65h-82v-261c0 -75 15 -101 78 -101v-68c-132 0 -157 68 -157 165v265h-194v-425h-79v425h-82z" />
    <glyph glyph-name="Omega" unicode="&#x3a9;" horiz-adv-x="722" 
d="M65 0v62h130c-47 41 -110 132 -110 275c0 198 81 321 282 321c225 0 281 -150 281 -321c0 -147 -63 -234 -110 -275h119v-62h-199v70c78 54 103 141 103 267c0 142 -27 254 -194 254s-195 -112 -195 -254c0 -126 26 -213 102 -267v-70h-209z" />
    <glyph glyph-name="Omega" unicode="&#x2126;" horiz-adv-x="722" 
d="M65 0v62h130c-47 41 -110 132 -110 275c0 198 81 321 282 321c225 0 281 -150 281 -321c0 -147 -63 -234 -110 -275h119v-62h-199v70c78 54 103 141 103 267c0 142 -27 254 -194 254s-195 -112 -195 -254c0 -126 26 -213 102 -267v-70h-209z" />
    <glyph glyph-name="paragraph" unicode="&#xb6;" horiz-adv-x="625" 
d="M260 -100v355c-107 0 -195 76 -195 195s87 198 195 198h285v-748h-80v683h-125v-683h-80z" />
    <glyph glyph-name="currency" unicode="&#xa4;" horiz-adv-x="585" 
d="M490 310c0 -71 -15 -125 -51 -160l76 -95l-53 -39l-76 101c-26 -10 -56 -14 -93 -14s-68 5 -94 14l-76 -101l-53 39l76 95c-36 35 -51 89 -51 160c0 70 15 123 51 158l-76 96l53 39l77 -103c26 9 56 14 93 14c36 0 67 -5 92 -14l77 103l53 -39l-76 -95
c36 -35 51 -88 51 -159zM409 312c0 96 -28 146 -116 146s-117 -50 -117 -146c0 -99 29 -152 117 -152s116 53 116 152z" />
    <glyph glyph-name="uni00AD" unicode="&#xad;" horiz-adv-x="367" 
d="M66 229v68h235v-68h-235z" />
    <glyph glyph-name="onehalf" unicode="&#xbd;" horiz-adv-x="927" 
d="M266 -72l252 807h74l-253 -807h-73zM613 318l-6 49c23 8 51 20 106 20c109 0 135 -44 135 -118s-87 -173 -162 -221h171v-55h-261v48c69 55 178 147 178 228c0 50 -23 64 -62 64c-38 0 -73 -8 -99 -15zM77 299v55h68v276l-60 -15l-15 48l96 25h44v-334h67v-55h-200z" />
    <glyph glyph-name="onequarter" unicode="&#xbc;" horiz-adv-x="866" 
d="M266 -72l252 807h74l-253 -807h-73zM77 299v55h68v276l-60 -15l-15 48l96 25h44v-334h67v-55h-200zM497 131l170 259h80v-249h49l-12 -51h-37v-91h-61v91h-189v41zM573 141h113v187z" />
    <glyph glyph-name="foursuperior" unicode="&#x2074;" horiz-adv-x="374" 
d="M45 431l170 259h80v-249h49l-12 -51h-37v-91h-61v91h-189v41zM121 441h113v187z" />
    <glyph glyph-name="threequarters" unicode="&#xbe;" horiz-adv-x="886" 
d="M286 -72l252 807h74l-253 -807h-73zM517 131l170 259h80v-249h49l-12 -51h-37v-91h-61v91h-189v41zM593 141h113v187zM84 625l-6 50c23 8 62 18 113 18c72 0 121 -24 121 -99c0 -46 -28 -68 -59 -86c36 -10 71 -32 71 -85c0 -75 -38 -124 -185 -124h-69l9 55h65
c69 0 106 15 106 69c0 34 -19 51 -51 55c-17 2 -57 2 -72 2v47c23 0 54 1 68 4c32 6 44 33 44 63c0 31 -16 44 -52 44c-34 0 -79 -7 -103 -13z" />
    <glyph glyph-name="apple" horiz-adv-x="616" 
d="M315 484c31 0 84 51 161 27c59 -20 83 -54 86 -62c-42 -25 -75 -77 -72 -132c2 -44 18 -77 37 -98c26 -27 48 -37 54 -41c-43 -111 -99 -178 -148 -178c-40 0 -64 30 -113 30c-51 0 -61 -30 -114 -30c-41 0 -83 58 -104 93c-96 148 -87 340 21 398c97 55 150 -7 192 -7z
M442 683c0 0 2 -64 -33 -108c-48 -60 -102 -50 -102 -50s-5 62 34 104c44 50 101 54 101 54z" />
    <glyph glyph-name="Delta" unicode="&#x394;" horiz-adv-x="618" 
d="M564 0h-510l208 658h92zM474 61l-169 544l-165 -544h334z" />
    <glyph glyph-name="Delta" unicode="&#x2206;" horiz-adv-x="618" 
d="M564 0h-510l208 658h92zM474 61l-169 544l-165 -544h334z" />
    <glyph glyph-name="iogonek" unicode="&#x12f;" horiz-adv-x="239" 
d="M80 490h79v-490c-23 -9 -96 -56 -96 -121c0 -42 35 -48 75 -48h23v-50h-23c-83 0 -142 11 -142 98c0 62 70 111 84 121v490zM72 632c0 36 17 50 45 50c33 0 50 -14 50 -50c0 -33 -17 -49 -50 -49c-28 0 -45 13 -45 49z" />
    <glyph glyph-name="uogonek" unicode="&#x173;" 
d="M473 0c-10 0 -98 -56 -98 -121c0 -42 35 -48 75 -48h23v-50h-23c-83 0 -142 11 -142 98c0 67 74 109 103 122l-11 51c-19 -15 -81 -62 -170 -62c-95 0 -150 48 -150 161v339h80v-333c0 -72 23 -105 83 -105c65 0 132 48 150 62v376h80v-490z" />
    <glyph glyph-name="Amacron" unicode="&#x100;" horiz-adv-x="632" 
d="M364 648l238 -648h-87l-64 178h-272l-63 -178h-86l238 648h96zM266 433l-65 -191h228l-65 191c-11 32 -44 124 -47 154h-2c-3 -30 -38 -122 -49 -154zM186 743v60h259v-60h-259z" />
    <glyph glyph-name="Abreve" unicode="&#x102;" horiz-adv-x="632" 
d="M364 648l238 -648h-87l-64 178h-272l-63 -178h-86l238 648h96zM266 433l-65 -191h228l-65 191c-11 32 -44 124 -47 154h-2c-3 -30 -38 -122 -49 -154zM193 837h57c0 -37 4 -72 65 -72c63 0 66 35 67 72h57c0 -72 -32 -119 -124 -119c-90 0 -122 47 -122 119z" />
    <glyph glyph-name="Aogonek" unicode="&#x104;" horiz-adv-x="632" 
d="M364 648l238 -648c-10 0 -98 -56 -98 -121c0 -42 35 -48 75 -48h23v-50h-23c-83 0 -142 11 -142 98c0 65 69 106 100 121h-22l-64 178h-272l-63 -178h-86l238 648h96zM266 433l-65 -191h228l-65 191c-11 32 -44 124 -47 154h-2c-3 -30 -38 -122 -49 -154z" />
    <glyph glyph-name="Cacute" unicode="&#x106;" horiz-adv-x="566" 
d="M510 73l16 -62c-25 -5 -113 -21 -196 -21c-173 0 -270 74 -270 324v20c0 247 91 324 270 324c98 0 166 -23 194 -33l-19 -61c-33 11 -108 30 -171 30c-123 0 -188 -35 -188 -260v-20c0 -224 70 -260 188 -260c64 0 147 13 176 19zM254 723l97 135h100l-132 -135h-65z" />
    <glyph glyph-name="cacute" unicode="&#x107;" horiz-adv-x="468" 
d="M409 73l14 -56c-18 -7 -67 -27 -146 -27c-140 0 -221 55 -221 252c0 194 79 258 220 258c84 0 132 -23 151 -35l-15 -57c-26 11 -71 30 -132 30c-104 0 -140 -49 -140 -196c0 -146 44 -190 142 -190c60 0 111 16 127 21zM198 565l97 135h100l-132 -135h-65z" />
    <glyph glyph-name="Ccircumflex" unicode="&#x108;" horiz-adv-x="566" 
d="M510 73l16 -62c-25 -5 -113 -21 -196 -21c-173 0 -270 74 -270 324v20c0 247 91 324 270 324c98 0 166 -23 194 -33l-19 -61c-33 11 -108 30 -171 30c-123 0 -188 -35 -188 -260v-20c0 -224 70 -260 188 -260c64 0 147 13 176 19zM359 868l121 -145h-65l-82 84l-82 -84
h-65l121 145h52z" />
    <glyph glyph-name="ccircumflex" unicode="&#x109;" horiz-adv-x="468" 
d="M409 73l14 -56c-18 -7 -67 -27 -146 -27c-140 0 -221 55 -221 252c0 194 79 258 220 258c84 0 132 -23 151 -35l-15 -57c-26 11 -71 30 -132 30c-104 0 -140 -49 -140 -196c0 -146 44 -190 142 -190c60 0 111 16 127 21zM292 710l121 -145h-65l-82 84l-82 -84h-65
l121 145h52z" />
    <glyph glyph-name="Ccaron" unicode="&#x10c;" horiz-adv-x="566" 
d="M510 73l16 -62c-25 -5 -113 -21 -196 -21c-173 0 -270 74 -270 324v20c0 247 91 324 270 324c98 0 166 -23 194 -33l-19 -61c-33 11 -108 30 -171 30c-123 0 -188 -35 -188 -260v-20c0 -224 70 -260 188 -260c64 0 147 13 176 19zM302 717l-121 145h65l82 -84l82 84h65
l-121 -145h-52z" />
    <glyph glyph-name="ccaron" unicode="&#x10d;" horiz-adv-x="468" 
d="M409 73l14 -56c-18 -7 -67 -27 -146 -27c-140 0 -221 55 -221 252c0 194 79 258 220 258c84 0 132 -23 151 -35l-15 -57c-26 11 -71 30 -132 30c-104 0 -140 -49 -140 -196c0 -146 44 -190 142 -190c60 0 111 16 127 21zM242 559l-121 145h65l82 -84l82 84h65l-121 -145
h-52z" />
    <glyph glyph-name="Cdotaccent" unicode="&#x10a;" horiz-adv-x="566" 
d="M510 73l16 -62c-25 -5 -113 -21 -196 -21c-173 0 -270 74 -270 324v20c0 247 91 324 270 324c98 0 166 -23 194 -33l-19 -61c-33 11 -108 30 -171 30c-123 0 -188 -35 -188 -260v-20c0 -224 70 -260 188 -260c64 0 147 13 176 19zM273 783c0 37 16 51 44 51
c35 0 51 -14 51 -51c0 -33 -16 -48 -51 -48c-28 0 -44 13 -44 48z" />
    <glyph glyph-name="cdotaccent" unicode="&#x10b;" horiz-adv-x="468" 
d="M409 73l14 -56c-18 -7 -67 -27 -146 -27c-140 0 -221 55 -221 252c0 194 79 258 220 258c84 0 132 -23 151 -35l-15 -57c-26 11 -71 30 -132 30c-104 0 -140 -49 -140 -196c0 -146 44 -190 142 -190c60 0 111 16 127 21zM221 625c0 37 16 51 44 51c35 0 51 -14 51 -51
c0 -33 -16 -48 -51 -48c-28 0 -44 13 -44 48z" />
    <glyph glyph-name="Dcaron" unicode="&#x10e;" horiz-adv-x="628" 
d="M78 648h184c216 0 314 -57 314 -304v-29c0 -244 -102 -315 -318 -315h-180v648zM236 585h-78v-522h78c184 0 254 37 254 252v29c0 216 -70 241 -254 241zM248 717l-121 145h65l82 -84l82 84h65l-121 -145h-52z" />
    <glyph glyph-name="Dcroat" unicode="&#x110;" horiz-adv-x="628" 
d="M18 301v63h60v284h184c216 0 314 -57 314 -304v-29c0 -244 -102 -315 -318 -315h-180v301h-60zM236 585h-78v-221h110v-63h-110v-238h78c184 0 254 37 254 252v29c0 216 -70 241 -254 241z" />
    <glyph glyph-name="dcroat" unicode="&#x111;" horiz-adv-x="561" 
d="M318 560v60h83v80l80 -11v-69h62v-60h-62v-560h-61l-12 52c-28 -28 -82 -62 -162 -62c-135 0 -190 69 -190 244v20c0 167 97 246 229 246c44 0 83 -4 116 -15v75h-83zM401 113v312c-26 10 -68 13 -116 13c-85 0 -145 -62 -145 -184v-20c0 -141 36 -182 115 -182
c58 0 120 35 146 61z" />
    <glyph glyph-name="Ebreve" unicode="&#x114;" horiz-adv-x="499" 
d="M444 648v-64h-284v-220h264v-62h-264v-238h295v-64h-377v648h366zM146 837h57c0 -37 4 -72 65 -72c63 0 66 35 67 72h57c0 -72 -32 -119 -124 -119c-90 0 -122 47 -122 119z" />
    <glyph glyph-name="ebreve" unicode="&#x115;" horiz-adv-x="524" 
d="M432 74l16 -57c-9 -4 -78 -27 -169 -27c-185 0 -223 117 -223 251c0 175 52 259 226 259c159 0 195 -95 195 -212c0 -20 -1 -43 -3 -63h-334c3 -132 46 -173 139 -173c72 0 136 16 153 22zM141 287h257c-2 97 -21 151 -116 151c-94 0 -132 -28 -141 -151zM143 679h57
c0 -37 4 -72 65 -72c63 0 66 35 67 72h57c0 -72 -32 -119 -124 -119c-90 0 -122 47 -122 119z" />
    <glyph glyph-name="Ecaron" unicode="&#x11a;" horiz-adv-x="499" 
d="M444 648v-64h-284v-220h264v-62h-264v-238h295v-64h-377v648h366zM247 717l-121 145h65l82 -84l82 84h65l-121 -145h-52z" />
    <glyph glyph-name="ecaron" unicode="&#x11b;" horiz-adv-x="524" 
d="M432 74l16 -57c-9 -4 -78 -27 -169 -27c-185 0 -223 117 -223 251c0 175 52 259 226 259c159 0 195 -95 195 -212c0 -20 -1 -43 -3 -63h-334c3 -132 46 -173 139 -173c72 0 136 16 153 22zM141 287h257c-2 97 -21 151 -116 151c-94 0 -132 -28 -141 -151zM241 559
l-121 145h65l82 -84l82 84h65l-121 -145h-52z" />
    <glyph glyph-name="Eogonek" unicode="&#x118;" horiz-adv-x="499" 
d="M444 648v-64h-284v-220h264v-62h-264v-238h295v-64c-13 0 -98 -56 -98 -121c0 -42 35 -48 75 -48h23v-50h-23c-83 0 -142 11 -142 98c0 65 69 106 100 121h-312v648h366z" />
    <glyph glyph-name="eogonek" unicode="&#x119;" horiz-adv-x="524" 
d="M432 74l16 -57c-19 -21 -102 -79 -102 -138c0 -42 35 -48 75 -48h23v-50h-23c-83 0 -142 11 -142 98c0 62 64 103 97 120c-27 -5 -60 -9 -97 -9c-185 0 -223 117 -223 251c0 175 52 259 226 259c154 0 187 -90 187 -204c0 -20 -5 -59 -10 -71h-319
c3 -132 46 -173 139 -173c72 0 136 16 153 22zM141 287h251c0 96 -15 151 -110 151c-94 0 -132 -28 -141 -151z" />
    <glyph glyph-name="Edotaccent" unicode="&#x116;" horiz-adv-x="499" 
d="M444 648v-64h-284v-220h264v-62h-264v-238h295v-64h-377v648h366zM219 783c0 37 16 51 44 51c35 0 51 -14 51 -51c0 -33 -16 -48 -51 -48c-28 0 -44 13 -44 48z" />
    <glyph glyph-name="edotaccent" unicode="&#x117;" horiz-adv-x="524" 
d="M432 74l16 -57c-9 -4 -78 -27 -169 -27c-185 0 -223 117 -223 251c0 175 52 259 226 259c159 0 195 -95 195 -212c0 -20 -1 -43 -3 -63h-334c3 -132 46 -173 139 -173c72 0 136 16 153 22zM141 287h257c-2 97 -21 151 -116 151c-94 0 -132 -28 -141 -151zM224 625
c0 37 16 51 44 51c35 0 51 -14 51 -51c0 -33 -16 -48 -51 -48c-28 0 -44 13 -44 48z" />
    <glyph glyph-name="Emacron" unicode="&#x112;" horiz-adv-x="499" 
d="M444 648v-64h-284v-220h264v-62h-264v-238h295v-64h-377v648h366zM132 743v60h259v-60h-259z" />
    <glyph glyph-name="emacron" unicode="&#x113;" horiz-adv-x="524" 
d="M432 74l16 -57c-9 -4 -78 -27 -169 -27c-185 0 -223 117 -223 251c0 175 52 259 226 259c159 0 195 -95 195 -212c0 -20 -1 -43 -3 -63h-334c3 -132 46 -173 139 -173c72 0 136 16 153 22zM141 287h257c-2 97 -21 151 -116 151c-94 0 -132 -28 -141 -151zM142 585v60h259
v-60h-259z" />
    <glyph glyph-name="Gcircumflex" unicode="&#x11c;" horiz-adv-x="618" 
d="M351 300v62h190v-347c-21 -6 -112 -25 -212 -25c-167 0 -269 74 -269 324v20c0 250 101 324 269 324c110 0 194 -25 213 -34l-18 -61c-24 8 -101 31 -191 31c-120 0 -187 -44 -187 -260v-20c0 -221 70 -260 187 -260c45 0 115 8 128 11v235h-110zM355 868l121 -145h-65
l-82 84l-82 -84h-65l121 145h52z" />
    <glyph glyph-name="gcircumflex" unicode="&#x11d;" horiz-adv-x="561" 
d="M481 470v-526c0 -105 -71 -172 -205 -172h-133l10 60h110c83 0 138 26 138 110v48c0 21 1 42 3 62c-33 -30 -82 -62 -158 -62c-129 0 -190 61 -190 244v20c0 167 97 246 229 246c93 0 166 -17 196 -30zM401 113v311c-27 11 -68 14 -116 14c-85 0 -145 -62 -145 -184v-20
c0 -138 34 -182 115 -182c58 0 119 35 146 61zM316 710l121 -145h-65l-82 84l-82 -84h-65l121 145h52z" />
    <glyph glyph-name="Gbreve" unicode="&#x11e;" horiz-adv-x="618" 
d="M351 300v62h190v-347c-21 -6 -112 -25 -212 -25c-167 0 -269 74 -269 324v20c0 250 101 324 269 324c110 0 194 -25 213 -34l-18 -61c-24 8 -101 31 -191 31c-120 0 -187 -44 -187 -260v-20c0 -221 70 -260 187 -260c45 0 115 8 128 11v235h-110zM209 837h57
c0 -37 4 -72 65 -72c63 0 66 35 67 72h57c0 -72 -32 -119 -124 -119c-90 0 -122 47 -122 119z" />
    <glyph glyph-name="gbreve" unicode="&#x11f;" horiz-adv-x="561" 
d="M481 470v-526c0 -105 -71 -172 -205 -172h-133l10 60h110c83 0 138 26 138 110v48c0 21 1 42 3 62c-33 -30 -82 -62 -158 -62c-129 0 -190 61 -190 244v20c0 167 97 246 229 246c93 0 166 -17 196 -30zM401 113v311c-27 11 -68 14 -116 14c-85 0 -145 -62 -145 -184v-20
c0 -138 34 -182 115 -182c58 0 119 35 146 61zM162 679h57c0 -37 4 -72 65 -72c63 0 66 35 67 72h57c0 -72 -32 -119 -124 -119c-90 0 -122 47 -122 119z" />
    <glyph glyph-name="Gdotaccent" unicode="&#x120;" horiz-adv-x="618" 
d="M351 300v62h190v-347c-21 -6 -112 -25 -212 -25c-167 0 -269 74 -269 324v20c0 250 101 324 269 324c110 0 194 -25 213 -34l-18 -61c-24 8 -101 31 -191 31c-120 0 -187 -44 -187 -260v-20c0 -221 70 -260 187 -260c45 0 115 8 128 11v235h-110zM285 783
c0 37 16 51 44 51c35 0 51 -14 51 -51c0 -33 -16 -48 -51 -48c-28 0 -44 13 -44 48z" />
    <glyph glyph-name="gdotaccent" unicode="&#x121;" horiz-adv-x="561" 
d="M481 470v-526c0 -105 -71 -172 -205 -172h-133l10 60h110c83 0 138 26 138 110v48c0 21 1 42 3 62c-33 -30 -82 -62 -158 -62c-129 0 -190 61 -190 244v20c0 167 97 246 229 246c93 0 166 -17 196 -30zM401 113v311c-27 11 -68 14 -116 14c-85 0 -145 -62 -145 -184v-20
c0 -138 34 -182 115 -182c58 0 119 35 146 61zM235 625c0 37 16 51 44 51c35 0 51 -14 51 -51c0 -33 -16 -48 -51 -48c-28 0 -44 13 -44 48z" />
    <glyph glyph-name="Hcircumflex" unicode="&#x124;" horiz-adv-x="635" 
d="M475 648h82v-648h-82v301h-315v-301h-82v648h82v-282h315v282zM343 868l121 -145h-65l-82 84l-82 -84h-65l121 145h52z" />
    <glyph glyph-name="hcircumflex" unicode="&#x125;" 
d="M80 689l80 11v-248c31 19 89 48 163 48c95 0 150 -48 150 -161v-339h-80v333c0 72 -23 105 -83 105c-61 0 -121 -28 -150 -47v-391h-80v689zM152 868l121 -145h-65l-82 84l-82 -84h-65l121 145h52z" />
    <glyph glyph-name="hbar" unicode="&#x127;" 
d="M19 560v60h61v69l80 11v-80h93v-60h-93v-108c31 19 89 48 163 48c95 0 150 -48 150 -161v-339h-80v333c0 72 -23 105 -83 105c-61 0 -121 -28 -150 -47v-391h-80v560h-61z" />
    <glyph glyph-name="Ibreve" unicode="&#x12c;" horiz-adv-x="238" 
d="M78 649h82v-649h-82v649zM-4 837h57c0 -37 4 -72 65 -72c63 0 66 35 67 72h57c0 -72 -32 -119 -124 -119c-90 0 -122 47 -122 119z" />
    <glyph glyph-name="ibreve" unicode="&#x12d;" horiz-adv-x="239" 
d="M80 490h79v-490h-79v490zM-3 679h57c0 -37 4 -72 65 -72c63 0 66 35 67 72h57c0 -72 -32 -119 -124 -119c-90 0 -122 47 -122 119z" />
    <glyph glyph-name="Iogonek" unicode="&#x12e;" horiz-adv-x="238" 
d="M78 649h82v-649c-11 0 -98 -56 -98 -121c0 -42 35 -48 75 -48h23v-50h-23c-83 0 -142 11 -142 98c0 65 69 106 100 121h-17v649z" />
    <glyph glyph-name="Idotaccent" unicode="&#x130;" horiz-adv-x="238" 
d="M78 649h82v-649h-82v649zM72 783c0 37 16 51 44 51c35 0 51 -14 51 -51c0 -33 -16 -48 -51 -48c-28 0 -44 13 -44 48z" />
    <glyph glyph-name="imacron" unicode="&#x12b;" horiz-adv-x="239" 
d="M80 490h79v-490h-79v490zM-10 585v60h259v-60h-259z" />
    <glyph glyph-name="Itilde" unicode="&#x128;" horiz-adv-x="238" 
d="M78 649h82v-649h-82v649zM-28 733l-19 36c25 20 77 56 118 56c30 0 80 -41 101 -41c30 0 74 28 86 37l28 -36c-21 -19 -86 -62 -128 -62c-28 0 -74 41 -100 41c-28 0 -68 -21 -86 -31z" />
    <glyph glyph-name="itilde" unicode="&#x129;" horiz-adv-x="239" 
d="M80 490h79v-490h-79v490zM-28 575l-19 36c25 20 77 56 118 56c30 0 80 -41 101 -41c30 0 74 28 86 37l28 -36c-21 -19 -86 -62 -128 -62c-28 0 -74 41 -100 41c-28 0 -68 -21 -86 -31z" />
    <glyph glyph-name="Jcircumflex" unicode="&#x134;" horiz-adv-x="365" 
d="M287 648v-458c0 -141 -90 -191 -205 -191h-38l-14 62h42c76 0 133 32 133 118v469h82zM269 868l121 -145h-65l-82 84l-82 -84h-65l121 145h52z" />
    <glyph glyph-name="kgreenlandic" unicode="&#x138;" horiz-adv-x="489" 
d="M160 490v-197l212 197h92l-236 -228l251 -262h-100l-219 234v-234h-80v490h80z" />
    <glyph glyph-name="Lacute" unicode="&#x139;" horiz-adv-x="482" 
d="M456 0h-378v648h82v-584h296v-64zM85 723l97 135h100l-132 -135h-65z" />
    <glyph glyph-name="lacute" unicode="&#x13a;" horiz-adv-x="240" 
d="M80 689l80 11v-700h-80v689zM85 769l97 135h100l-132 -135h-65z" />
    <glyph glyph-name="Ldot" unicode="&#x13f;" horiz-adv-x="482" 
d="M456 0h-378v648h82v-584h296v-64zM288 337c0 37 16 51 44 51c35 0 51 -14 51 -51c0 -33 -16 -48 -51 -48c-28 0 -44 13 -44 48z" />
    <glyph glyph-name="ldot" unicode="&#x140;" horiz-adv-x="324" 
d="M80 689l80 11v-700h-80v689zM229 346c0 37 16 51 44 51c35 0 51 -14 51 -51c0 -33 -16 -48 -51 -48c-28 0 -44 13 -44 48z" />
    <glyph glyph-name="Nacute" unicode="&#x143;" horiz-adv-x="652" 
d="M443 0l-239 476c-20 39 -39 93 -48 126c2 -46 2 -93 2 -128v-474h-80v648h128l251 -492c14 -27 29 -66 38 -108c-1 40 -1 79 -1 108v492h80v-648h-131zM287 723l97 135h100l-132 -135h-65z" />
    <glyph glyph-name="nacute" unicode="&#x144;" 
d="M80 490h61l11 -41c30 19 93 51 171 51c95 0 150 -48 150 -161v-339h-80v333c0 72 -23 105 -83 105c-61 0 -121 -28 -150 -47v-391h-80v490zM198 565l97 135h100l-132 -135h-65z" />
    <glyph glyph-name="Ncaron" unicode="&#x147;" horiz-adv-x="652" 
d="M443 0l-239 476c-20 39 -39 93 -48 126c2 -46 2 -93 2 -128v-474h-80v648h128l251 -492c14 -27 29 -66 38 -108c-1 40 -1 79 -1 108v492h80v-648h-131zM300 717l-121 145h65l82 -84l82 84h65l-121 -145h-52z" />
    <glyph glyph-name="ncaron" unicode="&#x148;" 
d="M80 490h61l11 -41c30 19 93 51 171 51c95 0 150 -48 150 -161v-339h-80v333c0 72 -23 105 -83 105c-61 0 -121 -28 -150 -47v-391h-80v490zM250 559l-121 145h65l82 -84l82 84h65l-121 -145h-52z" />
    <glyph glyph-name="Eng" unicode="&#x14a;" horiz-adv-x="652" 
d="M443 0l-239 476c-20 39 -39 93 -48 126c2 -46 2 -93 2 -128v-474h-80v648h128l251 -492c13 -26 28 -63 37 -103v595h80l-1 -693c0 -129 -90 -181 -205 -181h-38l-14 62h42c76 0 136 32 136 118v46h-51z" />
    <glyph glyph-name="eng" unicode="&#x14b;" 
d="M393 333c0 72 -23 105 -83 105c-61 0 -121 -28 -150 -47v-391h-80v490h61l11 -41c30 19 93 51 171 51c95 0 150 -48 150 -161v-411c0 -90 -51 -156 -152 -156h-44l10 60h25c60 0 81 43 81 89v412z" />
    <glyph glyph-name="Omacron" unicode="&#x14c;" horiz-adv-x="662" 
d="M60 324c0 241 80 334 272 334c189 0 270 -90 270 -334c0 -240 -78 -334 -270 -334s-272 94 -272 334zM146 324c0 -204 46 -270 186 -270c139 0 184 66 184 270c0 202 -45 270 -184 270c-140 0 -186 -68 -186 -270zM201 743v60h259v-60h-259z" />
    <glyph glyph-name="omacron" unicode="&#x14d;" horiz-adv-x="558" 
d="M279 -10c-152 0 -223 72 -223 255c0 181 71 255 223 255c151 0 223 -74 223 -255c0 -183 -72 -255 -223 -255zM279 52c102 0 139 46 139 193c0 144 -37 193 -139 193s-139 -49 -139 -193c0 -147 37 -193 139 -193zM149 585v60h259v-60h-259z" />
    <glyph glyph-name="Obreve" unicode="&#x14e;" horiz-adv-x="662" 
d="M60 324c0 241 80 334 272 334c189 0 270 -90 270 -334c0 -240 -78 -334 -270 -334s-272 94 -272 334zM146 324c0 -204 46 -270 186 -270c139 0 184 66 184 270c0 202 -45 270 -184 270c-140 0 -186 -68 -186 -270zM208 837h57c0 -37 4 -72 65 -72c63 0 66 35 67 72h57
c0 -72 -32 -119 -124 -119c-90 0 -122 47 -122 119z" />
    <glyph glyph-name="obreve" unicode="&#x14f;" horiz-adv-x="558" 
d="M279 -10c-152 0 -223 72 -223 255c0 181 71 255 223 255c151 0 223 -74 223 -255c0 -183 -72 -255 -223 -255zM279 52c102 0 139 46 139 193c0 144 -37 193 -139 193s-139 -49 -139 -193c0 -147 37 -193 139 -193zM156 679h57c0 -37 4 -72 65 -72c63 0 66 35 67 72h57
c0 -72 -32 -119 -124 -119c-90 0 -122 47 -122 119z" />
    <glyph glyph-name="Ohungarumlaut" unicode="&#x150;" horiz-adv-x="662" 
d="M60 324c0 241 80 334 272 334c189 0 270 -90 270 -334c0 -240 -78 -334 -270 -334s-272 94 -272 334zM146 324c0 -204 46 -270 186 -270c139 0 184 66 184 270c0 202 -45 270 -184 270c-140 0 -186 -68 -186 -270zM200 723l97 135h100l-132 -135h-65zM357 723l97 135h100
l-132 -135h-65z" />
    <glyph glyph-name="Racute" unicode="&#x154;" horiz-adv-x="592" 
d="M78 648h214c169 0 219 -56 219 -188c0 -128 -72 -153 -140 -164c63 -9 104 -35 126 -117l51 -179h-85l-47 172c-17 66 -75 97 -157 97h-99v-269h-82v648zM292 585h-132v-252c29 1 84 1 111 1c119 0 154 34 154 126c0 88 -27 125 -133 125zM197 723l97 135h100l-132 -135
h-65z" />
    <glyph glyph-name="racute" unicode="&#x155;" horiz-adv-x="355" 
d="M330 500v-71h-12c-67 0 -123 -29 -158 -54v-375h-80v490h60l14 -57c33 29 108 67 176 67zM88 565l97 135h100l-132 -135h-65z" />
    <glyph glyph-name="Rcaron" unicode="&#x158;" horiz-adv-x="592" 
d="M78 648h214c169 0 219 -56 219 -188c0 -128 -72 -153 -140 -164c63 -9 104 -35 126 -117l51 -179h-85l-47 172c-17 66 -75 97 -157 97h-99v-269h-82v648zM292 585h-132v-252c29 1 84 1 111 1c119 0 154 34 154 126c0 88 -27 125 -133 125zM250 717l-121 145h65l82 -84
l82 84h65l-121 -145h-52z" />
    <glyph glyph-name="rcaron" unicode="&#x159;" horiz-adv-x="355" 
d="M330 500v-71h-12c-67 0 -123 -29 -158 -54v-375h-80v490h60l14 -57c33 29 108 67 176 67zM172 559l-121 145h65l82 -84l82 84h65l-121 -145h-52z" />
    <glyph glyph-name="Sacute" unicode="&#x15a;" horiz-adv-x="551" 
d="M407 155c0 84 -51 104 -140 136c-130 47 -205 78 -205 196c0 117 101 171 227 171c93 0 149 -11 177 -18l-16 -61c-33 7 -96 15 -160 15c-100 0 -144 -37 -144 -107c0 -69 55 -89 139 -121c104 -39 208 -79 208 -200c0 -110 -80 -176 -221 -176c-104 0 -189 22 -214 32
l18 61c34 -9 114 -28 187 -28c98 0 144 39 144 100zM207 723l97 135h100l-132 -135h-65z" />
    <glyph glyph-name="sacute" unicode="&#x15b;" horiz-adv-x="463" 
d="M217 217c-88 30 -148 64 -149 149c-1 76 58 134 179 134c69 0 128 -11 150 -18l-15 -54c-25 3 -78 10 -138 10c-53 0 -94 -20 -93 -65c1 -51 36 -67 114 -95c93 -33 147 -69 147 -150c0 -84 -54 -138 -177 -138c-69 0 -148 17 -171 24l16 56c23 -4 90 -18 149 -18
c61 0 102 23 101 72c-1 45 -23 62 -113 93zM147 565l97 135h100l-132 -135h-65z" />
    <glyph glyph-name="Scircumflex" unicode="&#x15c;" horiz-adv-x="551" 
d="M407 155c0 84 -51 104 -140 136c-130 47 -205 78 -205 196c0 117 101 171 227 171c93 0 149 -11 177 -18l-16 -61c-33 7 -96 15 -160 15c-100 0 -144 -37 -144 -107c0 -69 55 -89 139 -121c104 -39 208 -79 208 -200c0 -110 -80 -176 -221 -176c-104 0 -189 22 -214 32
l18 61c34 -9 114 -28 187 -28c98 0 144 39 144 100zM306 868l121 -145h-65l-82 84l-82 -84h-65l121 145h52z" />
    <glyph glyph-name="scircumflex" unicode="&#x15d;" horiz-adv-x="463" 
d="M217 217c-88 30 -148 64 -149 149c-1 76 58 134 179 134c69 0 128 -11 150 -18l-15 -54c-25 3 -78 10 -138 10c-53 0 -94 -20 -93 -65c1 -51 36 -67 114 -95c93 -33 147 -69 147 -150c0 -84 -54 -138 -177 -138c-69 0 -148 17 -171 24l16 56c23 -4 90 -18 149 -18
c61 0 102 23 101 72c-1 45 -23 62 -113 93zM264 710l121 -145h-65l-82 84l-82 -84h-65l121 145h52z" />
    <glyph glyph-name="Scedilla" unicode="&#x15e;" horiz-adv-x="551" 
d="M407 155c0 84 -51 104 -140 136c-130 47 -205 78 -205 196c0 117 101 171 227 171c93 0 149 -11 177 -18l-16 -61c-33 7 -96 15 -160 15c-100 0 -144 -37 -144 -107c0 -69 55 -89 139 -121c104 -39 208 -79 208 -200c0 -110 -80 -176 -221 -176c-104 0 -189 22 -214 32
l18 61c34 -9 114 -28 187 -28c98 0 144 39 144 100zM161 -221l79 150h90l-104 -150h-65z" />
    <glyph glyph-name="scedilla" unicode="&#x15f;" horiz-adv-x="463" 
d="M217 217c-88 30 -148 64 -149 149c-1 76 58 134 179 134c69 0 128 -11 150 -18l-15 -54c-25 3 -78 10 -138 10c-53 0 -94 -20 -93 -65c1 -51 36 -67 114 -95c93 -33 147 -69 147 -150c0 -84 -54 -138 -177 -138c-69 0 -148 17 -171 24l16 56c23 -4 90 -18 149 -18
c61 0 102 23 101 72c-1 45 -23 62 -113 93zM113 -221l79 150h90l-104 -150h-65z" />
    <glyph glyph-name="Tcaron" unicode="&#x164;" horiz-adv-x="548" 
d="M522 648v-63h-207v-585h-82v585h-207v63h496zM248 717l-121 145h65l82 -84l82 84h65l-121 -145h-52z" />
    <glyph glyph-name="Utilde" unicode="&#x168;" horiz-adv-x="638" 
d="M78 178v470h82v-462c0 -103 61 -132 158 -132s160 29 160 132v462h82v-470c0 -129 -88 -188 -242 -188s-240 59 -240 188zM171 733l-19 36c25 20 77 56 118 56c30 0 80 -41 101 -41c30 0 74 28 86 37l28 -36c-21 -19 -86 -62 -128 -62c-28 0 -74 41 -100 41
c-28 0 -68 -21 -86 -31z" />
    <glyph glyph-name="utilde" unicode="&#x169;" 
d="M473 0h-61l-12 52c-19 -15 -81 -62 -170 -62c-95 0 -150 48 -150 161v339h80v-333c0 -72 23 -105 83 -105c65 0 132 48 150 62v376h80v-490zM129 575l-19 36c25 20 77 56 118 56c30 0 80 -41 101 -41c30 0 74 28 86 37l28 -36c-21 -19 -86 -62 -128 -62
c-28 0 -74 41 -100 41c-28 0 -68 -21 -86 -31z" />
    <glyph glyph-name="Umacron" unicode="&#x16a;" horiz-adv-x="638" 
d="M78 178v470h82v-462c0 -103 61 -132 158 -132s160 29 160 132v462h82v-470c0 -129 -88 -188 -242 -188s-240 59 -240 188zM189 743v60h259v-60h-259z" />
    <glyph glyph-name="umacron" unicode="&#x16b;" 
d="M473 0h-61l-12 52c-19 -15 -81 -62 -170 -62c-95 0 -150 48 -150 161v339h80v-333c0 -72 23 -105 83 -105c65 0 132 48 150 62v376h80v-490zM147 585v60h259v-60h-259z" />
    <glyph glyph-name="Ubreve" unicode="&#x16c;" horiz-adv-x="638" 
d="M78 178v470h82v-462c0 -103 61 -132 158 -132s160 29 160 132v462h82v-470c0 -129 -88 -188 -242 -188s-240 59 -240 188zM196 837h57c0 -37 4 -72 65 -72c63 0 66 35 67 72h57c0 -72 -32 -119 -124 -119c-90 0 -122 47 -122 119z" />
    <glyph glyph-name="ubreve" unicode="&#x16d;" 
d="M473 0h-61l-12 52c-19 -15 -81 -62 -170 -62c-95 0 -150 48 -150 161v339h80v-333c0 -72 23 -105 83 -105c65 0 132 48 150 62v376h80v-490zM153 679h57c0 -37 4 -72 65 -72c63 0 66 35 67 72h57c0 -72 -32 -119 -124 -119c-90 0 -122 47 -122 119z" />
    <glyph glyph-name="Uring" unicode="&#x16e;" horiz-adv-x="638" 
d="M78 178v470h82v-462c0 -103 61 -132 158 -132s160 29 160 132v462h82v-470c0 -129 -88 -188 -242 -188s-240 59 -240 188zM227 802c0 66 33 91 91 91c60 0 93 -25 93 -91c0 -61 -33 -89 -93 -89c-58 0 -91 28 -91 89zM277 802c0 -33 15 -49 41 -49c27 0 43 16 43 49
c0 37 -16 53 -43 53c-26 0 -41 -16 -41 -53z" />
    <glyph glyph-name="uring" unicode="&#x16f;" 
d="M473 0h-61l-12 52c-19 -15 -81 -62 -170 -62c-95 0 -150 48 -150 161v339h80v-333c0 -72 23 -105 83 -105c65 0 132 48 150 62v376h80v-490zM184 644c0 66 33 91 91 91c60 0 93 -25 93 -91c0 -61 -33 -89 -93 -89c-58 0 -91 28 -91 89zM234 644c0 -33 15 -49 41 -49
c27 0 43 16 43 49c0 37 -16 53 -43 53c-26 0 -41 -16 -41 -53z" />
    <glyph glyph-name="Uhungarumlaut" unicode="&#x170;" horiz-adv-x="638" 
d="M78 178v470h82v-462c0 -103 61 -132 158 -132s160 29 160 132v462h82v-470c0 -129 -88 -188 -242 -188s-240 59 -240 188zM182 723l97 135h100l-132 -135h-65zM339 723l97 135h100l-132 -135h-65z" />
    <glyph glyph-name="uhungarumlaut" unicode="&#x171;" 
d="M473 0h-61l-12 52c-19 -15 -81 -62 -170 -62c-95 0 -150 48 -150 161v339h80v-333c0 -72 23 -105 83 -105c65 0 132 48 150 62v376h80v-490zM149 565l97 135h100l-132 -135h-65zM306 565l97 135h100l-132 -135h-65z" />
    <glyph glyph-name="Uogonek" unicode="&#x172;" horiz-adv-x="638" 
d="M78 178v470h82v-462c0 -103 61 -132 158 -132s160 29 160 132v462h82v-470c0 -109 -63 -169 -176 -184c-13 -7 -109 -60 -109 -130c0 -42 35 -48 75 -48h23v-50h-23c-83 0 -142 11 -142 98c0 73 85 117 107 126c-152 1 -237 60 -237 188z" />
    <glyph glyph-name="Wcircumflex" unicode="&#x174;" horiz-adv-x="856" 
d="M427 543c-2 -36 -9 -118 -17 -152l-88 -391h-120l-178 648h91l120 -458c8 -31 23 -96 26 -135h2c2 39 17 105 23 135l97 457h90l97 -457c6 -30 21 -96 23 -135h2c3 39 18 104 26 135l120 458h91l-178 -648h-120l-88 391c-8 34 -16 116 -17 152h-2zM454 868l121 -145h-65
l-82 84l-82 -84h-65l121 145h52z" />
    <glyph glyph-name="wcircumflex" unicode="&#x175;" horiz-adv-x="746" 
d="M374 400h-2c-2 -34 -17 -105 -25 -135l-74 -265h-99l-149 490h85l88 -330c11 -40 17 -90 21 -125h2c3 35 9 85 21 124l99 330h64l99 -330c12 -39 18 -90 21 -124h2c3 34 9 85 20 124l89 331h85l-149 -490h-99l-74 265c-8 30 -23 101 -25 135zM399 710l121 -145h-65
l-82 84l-82 -84h-65l121 145h52z" />
    <glyph glyph-name="Ycircumflex" unicode="&#x176;" horiz-adv-x="564" 
d="M242 0v234l-224 414h91l173 -338l173 338h91l-224 -414v-234h-80zM308 868l121 -145h-65l-82 84l-82 -84h-65l121 145h52z" />
    <glyph glyph-name="ycircumflex" unicode="&#x177;" horiz-adv-x="536" 
d="M510 490l-209 -537c-42 -109 -69 -180 -206 -180h-27v62h9c88 0 110 32 155 155l8 22l-34 18l-180 460h85l121 -308c6 -14 31 -96 35 -124h2c4 28 29 110 35 124l121 308h85zM294 710l121 -145h-65l-82 84l-82 -84h-65l121 145h52z" />
    <glyph glyph-name="Zacute" unicode="&#x179;" horiz-adv-x="500" 
d="M57 583v65h412v-54l-328 -529h331v-65h-437v58l331 525h-309zM191 723l97 135h100l-132 -135h-65z" />
    <glyph glyph-name="zacute" unicode="&#x17a;" horiz-adv-x="466" 
d="M63 490h355v-60l-273 -368h283v-62h-384v58l276 370h-257v62zM174 565l97 135h100l-132 -135h-65z" />
    <glyph glyph-name="Zdotaccent" unicode="&#x17b;" horiz-adv-x="500" 
d="M57 583v65h412v-54l-328 -529h331v-65h-437v58l331 525h-309zM202 783c0 37 16 51 44 51c35 0 51 -14 51 -51c0 -33 -16 -48 -51 -48c-28 0 -44 13 -44 48z" />
    <glyph glyph-name="zdotaccent" unicode="&#x17c;" horiz-adv-x="466" 
d="M63 490h355v-60l-273 -368h283v-62h-384v58l276 370h-257v62zM185 625c0 37 16 51 44 51c35 0 51 -14 51 -51c0 -33 -16 -48 -51 -48c-28 0 -44 13 -44 48z" />
    <glyph glyph-name="AEacute" unicode="&#x1fc;" horiz-adv-x="935" 
d="M881 648v-64h-284v-220h264v-62h-264v-238h295v-64h-377v178h-272l-127 -178h-97l462 648h400zM283 242h232v345h-2zM479 723l97 135h100l-132 -135h-65z" />
    <glyph glyph-name="aeacute" unicode="&#x1fd;" horiz-adv-x="827" 
d="M732 74l16 -57c-9 -4 -78 -27 -169 -27c-92 0 -147 29 -180 74c-37 -27 -112 -74 -188 -74c-101 0 -157 62 -157 157c0 102 98 145 246 145h59c1 5 1 30 1 44c0 81 -29 102 -89 102c-73 0 -136 -21 -162 -31l-15 57c18 8 82 36 191 36c54 0 110 -18 126 -63
c25 45 91 63 171 63c160 0 189 -95 189 -225c0 -20 -2 -36 -5 -48h-326c3 -134 46 -175 139 -175c72 0 136 16 153 22zM360 113v19c0 39 -3 89 -4 100h-40c-128 0 -178 -28 -178 -82c0 -45 16 -98 75 -98c61 0 129 48 147 61zM691 287c0 96 -14 151 -109 151
s-132 -27 -141 -151h250zM375 565l97 135h100l-132 -135h-65z" />
    <glyph glyph-name="Oslashacute" unicode="&#x1fe;" horiz-adv-x="662" 
d="M272 723l97 135h100l-132 -135h-65zM157 -107l37 121c-93 41 -134 138 -134 310c0 241 80 334 272 334c22 0 42 -2 61 -4l33 104h70l-38 -120c100 -38 144 -134 144 -314c0 -240 -78 -334 -270 -334c-27 0 -52 2 -74 6l-32 -103h-69zM516 324c0 138 -21 213 -79 247
l-160 -513c17 -3 35 -4 55 -4c139 0 184 66 184 270zM146 324c0 -132 19 -206 70 -242l158 509c-13 2 -27 3 -42 3c-140 0 -186 -68 -186 -270z" />
    <glyph glyph-name="oslashacute" unicode="&#x1ff;" horiz-adv-x="558" 
d="M210 565l97 135h100l-132 -135h-65zM138 -98l31 106c-77 31 -113 105 -113 237c0 181 71 255 223 255c12 0 24 -1 36 -2l27 92h72l-32 -106c81 -31 120 -106 120 -239c0 -183 -72 -255 -223 -255c-17 0 -33 1 -48 3l-27 -91h-66zM279 52c102 0 139 46 139 193
c0 95 -16 148 -56 174l-112 -366c9 -1 18 -1 29 -1zM140 245c0 -92 14 -144 49 -170l108 362c-6 1 -12 1 -18 1c-102 0 -139 -49 -139 -193z" />
    <glyph glyph-name="commaaccent" horiz-adv-x="230" 
d="M98 -71h79l-57 -155h-60z" />
    <glyph glyph-name="gcommaaccent" unicode="&#x123;" horiz-adv-x="561" 
d="M481 470v-526c0 -105 -71 -172 -205 -172h-133l10 60h110c83 0 138 26 138 110v48c0 21 1 42 3 62c-33 -30 -82 -62 -158 -62c-129 0 -190 61 -190 244v20c0 167 97 246 229 246c93 0 166 -17 196 -30zM401 113v311c-27 11 -68 14 -116 14c-85 0 -145 -62 -145 -184v-20
c0 -138 34 -182 115 -182c58 0 119 35 146 61zM294 720h79l-57 -155h-60z" />
    <glyph glyph-name="Gcommaaccent" unicode="&#x122;" horiz-adv-x="618" 
d="M351 300v62h190v-347c-21 -6 -112 -25 -212 -25c-167 0 -269 74 -269 324v20c0 250 101 324 269 324c110 0 194 -25 213 -34l-18 -61c-24 8 -101 31 -191 31c-120 0 -187 -44 -187 -260v-20c0 -221 70 -260 187 -260c45 0 115 8 128 11v235h-110zM307 -71h79l-57 -155
h-60z" />
    <glyph glyph-name="dotlessj" unicode="&#x237;" horiz-adv-x="250" 
d="M96 490h80v-562c0 -90 -51 -156 -152 -156h-44l10 60h25c60 0 81 43 81 89v569z" />
    <glyph glyph-name="jcircumflex" unicode="&#x135;" horiz-adv-x="250" 
d="M96 490h80v-562c0 -90 -51 -156 -152 -156h-44l10 60h25c60 0 81 43 81 89v569zM159 710l121 -145h-65l-82 84l-82 -84h-65l121 145h52z" />
    <glyph glyph-name="Kcommaaccent" unicode="&#x136;" horiz-adv-x="555" 
d="M160 648v-285l272 285h100l-296 -314l315 -334h-103l-288 303v-303h-82v648h82zM244 -71h79l-57 -155h-60z" />
    <glyph glyph-name="kcommaaccent" unicode="&#x137;" horiz-adv-x="489" 
d="M160 700v-405l207 195h92l-228 -219l243 -271h-100l-214 242v-242h-80v689zM221 -71h79l-57 -155h-60z" />
    <glyph glyph-name="Lcommaaccent" unicode="&#x13b;" horiz-adv-x="482" 
d="M456 0h-378v648h82v-584h296v-64zM217 -71h79l-57 -155h-60z" />
    <glyph glyph-name="lcommaaccent" unicode="&#x13c;" horiz-adv-x="240" 
d="M80 689l80 11v-700h-80v689zM82 -71h79l-57 -155h-60z" />
    <glyph glyph-name="Ncommaaccent" unicode="&#x145;" horiz-adv-x="652" 
d="M443 0l-239 476c-20 39 -39 93 -48 126c2 -46 2 -93 2 -128v-474h-80v648h128l251 -492c14 -27 29 -66 38 -108c-1 40 -1 79 -1 108v492h80v-648h-131zM298 -71h79l-57 -155h-60z" />
    <glyph glyph-name="ncommaaccent" unicode="&#x146;" 
d="M80 490h61l11 -41c30 19 93 51 171 51c95 0 150 -48 150 -161v-339h-80v333c0 72 -23 105 -83 105c-61 0 -121 -28 -150 -47v-391h-80v490zM256 -71h79l-57 -155h-60z" />
    <glyph glyph-name="Rcommaaccent" unicode="&#x156;" horiz-adv-x="592" 
d="M78 648h214c169 0 219 -56 219 -188c0 -128 -72 -153 -140 -164c63 -9 104 -35 126 -117l51 -179h-85l-47 172c-17 66 -75 97 -157 97h-99v-269h-82v648zM292 585h-132v-252c29 1 84 1 111 1c119 0 154 34 154 126c0 88 -27 125 -133 125zM275 -71h79l-57 -155h-60z" />
    <glyph glyph-name="rcommaaccent" unicode="&#x157;" horiz-adv-x="355" 
d="M330 500v-71h-12c-67 0 -123 -29 -158 -54v-375h-80v490h60l14 -57c33 29 108 67 176 67zM84 -71h79l-57 -155h-60z" />
    <glyph glyph-name="Tcommaaccent" unicode="&#x162;" horiz-adv-x="548" 
d="M522 648v-63h-207v-585h-82v585h-207v63h496zM234 -71h79l-57 -155h-60z" />
    <glyph glyph-name="tcommaaccent" unicode="&#x163;" horiz-adv-x="358" 
d="M188 634v-144h142l-11 -60h-131v-297c0 -55 12 -72 58 -72h72v-61h-78c-86 0 -132 43 -132 133v297h-70v60h69l10 138zM163 -71h79l-57 -155h-60z" />
    <glyph glyph-name="Scommaaccent" unicode="&#x218;" horiz-adv-x="551" 
d="M407 155c0 84 -51 104 -140 136c-130 47 -205 78 -205 196c0 117 101 171 227 171c93 0 149 -11 177 -18l-16 -61c-33 7 -96 15 -160 15c-100 0 -144 -37 -144 -107c0 -69 55 -89 139 -121c104 -39 208 -79 208 -200c0 -110 -80 -176 -221 -176c-104 0 -189 22 -214 32
l18 61c34 -9 114 -28 187 -28c98 0 144 39 144 100zM248 -71h79l-57 -155h-60z" />
    <glyph glyph-name="scommaaccent" unicode="&#x219;" horiz-adv-x="463" 
d="M217 217c-88 30 -148 64 -149 149c-1 76 58 134 179 134c69 0 128 -11 150 -18l-15 -54c-25 3 -78 10 -138 10c-53 0 -94 -20 -93 -65c1 -51 36 -67 114 -95c93 -33 147 -69 147 -150c0 -84 -54 -138 -177 -138c-69 0 -148 17 -171 24l16 56c23 -4 90 -18 149 -18
c61 0 102 23 101 72c-1 45 -23 62 -113 93zM205 -71h79l-57 -155h-60z" />
    <glyph glyph-name="uni012A" unicode="&#x12a;" horiz-adv-x="238" 
d="M78 649h82v-649h-82v649zM-10 743v60h259v-60h-259z" />
    <glyph glyph-name="I" unicode="I" horiz-adv-x="238" 
d="M78 649h82v-649h-82v649z" />
    <glyph glyph-name="H" unicode="H" horiz-adv-x="635" 
d="M475 648h82v-648h-82v301h-315v-301h-82v648h82v-282h315v282z" />
    <glyph glyph-name="ae" unicode="&#xe6;" horiz-adv-x="824" 
d="M732 74l16 -57c-9 -4 -78 -27 -169 -27c-92 0 -147 29 -180 74c-33 -25 -107 -74 -193 -74c-102 0 -151 65 -151 160c0 102 94 142 265 142h37l3 25v19c0 78 -29 102 -89 102c-72 0 -136 -21 -162 -31l-15 59c17 8 87 34 191 34c58 0 104 -19 125 -61c33 42 89 61 172 61
c154 0 187 -90 187 -204c0 -20 -5 -59 -10 -71h-319c3 -132 46 -173 139 -173c72 0 136 16 153 22zM360 114v38c0 19 -4 59 -4 80h-40c-128 0 -179 -29 -179 -83c0 -45 17 -97 76 -97c61 0 128 46 147 62zM441 287h251c0 96 -15 151 -110 151c-94 0 -132 -28 -141 -151z" />
    <glyph glyph-name="f_j" horiz-adv-x="609" 
d="M196 0h-80v430l-66 5v55h66v67c0 75 39 141 139 141h91l-15 -60h-76c-45 0 -59 -27 -59 -78v-70h339v-562c0 -90 -51 -156 -152 -156h-44l10 60h25c60 0 81 43 81 89v509h-259v-430zM447 632c0 36 17 50 45 50c33 0 50 -14 50 -50c0 -33 -17 -49 -50 -49
c-28 0 -45 13 -45 49z" />
    <glyph glyph-name="f_h" horiz-adv-x="912" 
d="M196 0h-80v430l-66 5v55h66v67c0 75 39 141 139 141h249l15 2v-248c31 19 89 48 163 48c95 0 150 -48 150 -161v-339h-80v333c0 72 -23 105 -83 105c-61 0 -121 -28 -150 -47v-391h-80v638h-184c-45 0 -59 -27 -59 -78v-70h141l-10 -60h-131v-430z" />
    <glyph glyph-name="f_k" horiz-adv-x="840" 
d="M519 700v-405l207 195h92l-228 -219l243 -271h-100l-214 242v-242h-80v638h-184c-45 0 -59 -27 -59 -78v-70h141l-10 -60h-131v-430h-80v430l-66 5v55h66v67c0 75 39 141 139 141h249z" />
    <glyph glyph-name="f_b" horiz-adv-x="920" 
d="M439 20v618h-184c-45 0 -59 -27 -59 -78v-70h141l-10 -60h-131v-430h-80v430l-66 5v55h66v67c0 75 39 141 139 141h249l15 2v-262c27 28 75 62 155 62c135 0 190 -69 190 -244v-20c0 -167 -97 -246 -229 -246c-93 0 -166 17 -196 30zM519 377v-312c26 -10 68 -13 116 -13
c85 0 145 62 145 184v20c0 141 -36 182 -115 182c-58 0 -120 -35 -146 -61z" />
    <glyph glyph-name="a.alt" horiz-adv-x="551" 
d="M471 470v-470h-80v52c-27 -28 -70 -62 -150 -62c-135 0 -185 69 -185 244v20c0 167 91 246 223 246c93 0 162 -17 192 -30zM391 113v312c-26 10 -64 13 -112 13c-85 0 -139 -62 -139 -184v-20c0 -141 31 -182 110 -182c58 0 115 35 141 61z" />
    <glyph glyph-name="dcaron" unicode="&#x10f;" horiz-adv-x="551" 
d="M481 689v-689h-61l-12 52c-28 -28 -82 -62 -162 -62c-135 0 -190 69 -190 244v20c0 167 97 246 229 246c44 0 83 -4 116 -15v215zM401 113v312c-26 10 -68 13 -116 13c-85 0 -145 -62 -145 -184v-20c0 -141 36 -182 115 -182c58 0 120 35 146 61zM569 700h79l-57 -155
h-60z" />
    <glyph glyph-name="tcaron" unicode="&#x165;" horiz-adv-x="354" 
d="M188 634v-144h142l-11 -60h-131v-297c0 -55 12 -72 58 -72h72v-61h-78c-86 0 -132 43 -132 133v297h-70v60h69l10 138zM273 700h79l-57 -155h-60z" />
    <glyph glyph-name="Lcaron" unicode="&#x13d;" horiz-adv-x="482" 
d="M456 0h-378v648h82v-584h296v-64zM283 700h79l-57 -155h-60z" />
    <glyph glyph-name="lcaron" unicode="&#x13e;" horiz-adv-x="240" 
d="M80 689l80 11v-700h-80v689zM245 700h79l-57 -155h-60z" />
    <glyph glyph-name="napostrophe" unicode="&#x149;" horiz-adv-x="590" 
d="M117 490h61l11 -41c30 19 93 51 171 51c95 0 150 -48 150 -161v-339h-80v333c0 72 -23 105 -83 105c-61 0 -121 -28 -150 -47v-391h-80v490zM38 700h79l-57 -155h-60z" />
    <glyph glyph-name="IJ" unicode="&#x132;" horiz-adv-x="603" 
d="M78 649h82v-649h-82v649zM525 648v-458c0 -141 -90 -191 -205 -191h-38l-14 62h42c76 0 133 32 133 118v469h82z" />
    <glyph glyph-name="ij" unicode="&#x133;" horiz-adv-x="479" 
d="M80 490h79v-490h-79v490zM72 632c0 36 17 50 45 50c33 0 50 -14 50 -50c0 -33 -17 -49 -50 -49c-28 0 -45 13 -45 49zM325 490h80v-562c0 -90 -51 -156 -152 -156h-44l10 60h25c60 0 81 43 81 89v569zM317 632c0 36 17 50 45 50c33 0 50 -14 50 -50
c0 -33 -17 -49 -50 -49c-28 0 -45 13 -45 49z" />
    <glyph glyph-name="uni021A" unicode="&#x21a;" horiz-adv-x="548" 
d="M522 648v-63h-207v-585h-82v585h-207v63h496zM234 -71h79l-57 -155h-60z" />
    <glyph glyph-name="uni021B" unicode="&#x21b;" horiz-adv-x="358" 
d="M188 634v-144h142l-11 -60h-131v-297c0 -55 12 -72 58 -72h72v-61h-78c-86 0 -132 43 -132 133v297h-70v60h69l10 138zM163 -71h79l-57 -155h-60z" />
    <glyph glyph-name="c_h" horiz-adv-x="1021" 
d="M426 465l-14 -57c-26 11 -71 30 -132 30c-104 0 -140 -49 -140 -196c0 -146 44 -190 142 -190c60 0 111 16 127 21l14 -56c-18 -7 -67 -27 -146 -27c-140 0 -221 55 -221 252c0 194 82 258 211 258c19 0 61 -8 77 -17c-35 28 -69 54 -69 111c0 64 107 126 200 126
c106 0 153 -44 153 -181v-87c31 19 89 48 163 48c95 0 150 -48 150 -161v-339h-80v333c0 72 -23 105 -83 105c-61 0 -121 -28 -150 -47v-391h-80v520c0 54 -1 141 -73 141c-56 0 -127 -32 -127 -75c0 -45 34 -86 73 -117z" />
    <glyph glyph-name="c_t" horiz-adv-x="822" 
d="M427 465l-15 -57c-26 11 -71 30 -132 30c-104 0 -140 -49 -140 -196c0 -146 44 -190 142 -190c60 0 111 16 127 21l14 -56c-18 -7 -67 -27 -146 -27c-140 0 -221 55 -221 252c0 194 79 258 220 258c27 0 65 -10 83 -17c-26 16 -56 59 -56 102c0 60 71 115 199 115
c97 0 154 -41 154 -145v-65h142l-11 -60h-131v-297c0 -55 12 -72 58 -72h72v-61h-78c-86 0 -132 43 -132 133v297h-70v60h69l5 65c2 47 -20 87 -80 87c-74 0 -125 -27 -125 -73c0 -40 34 -81 52 -104z" />
    <glyph glyph-name="s_p" horiz-adv-x="1024" 
d="M543 -227v695c0 93 -1 174 -73 174c-87 0 -129 -34 -129 -71c0 -32 40 -73 52 -85l4 -4l-15 -54c-25 3 -78 10 -138 10c-53 0 -94 -20 -93 -65c1 -51 36 -67 114 -95c93 -33 147 -69 147 -150c0 -84 -54 -138 -177 -138c-69 0 -148 17 -171 24l16 56
c23 -4 90 -18 149 -18c61 0 102 23 101 72c-1 45 -23 62 -113 93c-88 30 -148 64 -149 149c-1 76 58 134 179 134c25 0 58 -4 79 -10c-28 19 -56 47 -56 100c0 52 69 110 210 110c119 0 142 -82 142 -205v-55c29 28 76 60 156 60c135 0 190 -69 190 -244v-20
c0 -167 -97 -246 -229 -246c-44 0 -83 4 -116 15v-232h-80zM623 377v-312c26 -10 68 -13 116 -13c85 0 145 62 145 184v20c0 141 -36 182 -115 182c-58 0 -120 -35 -146 -61z" />
    <glyph glyph-name="f_f_i" unicode="&#xfb03;" horiz-adv-x="951" 
d="M550 0h-80v430h-274v-430h-80v430l-66 5v55h66v67c0 75 39 141 139 141h111l-15 -60h-96c-45 0 -59 -27 -59 -78v-70h274v67c0 75 39 141 139 141h91l-15 -60h-76c-45 0 -59 -27 -59 -78v-70h321v-490h-79v430h-242v-430zM784 632c0 36 17 50 45 50c33 0 50 -14 50 -50
c0 -33 -17 -49 -50 -49c-28 0 -45 13 -45 49z" />
    <glyph glyph-name="f_f_l" unicode="&#xfb04;" horiz-adv-x="952" 
d="M552 0h-80v430h-276v-430h-80v430l-66 5v55h66v67c0 75 39 141 139 141h111l-15 -60h-96c-45 0 -59 -27 -59 -78v-70h276v67c0 75 39 141 139 141h248l15 2v-700h-80v638h-183c-45 0 -59 -27 -59 -78v-70h141l-10 -60h-131v-430z" />
    <glyph glyph-name="c_l" horiz-adv-x="708" 
d="M426 465l-14 -57c-26 11 -71 30 -132 30c-104 0 -140 -49 -140 -196c0 -146 44 -190 142 -190c60 0 111 16 127 21l14 -56c-18 -7 -67 -27 -146 -27c-140 0 -221 55 -221 252c0 194 82 258 211 258c19 0 61 -8 77 -17c-35 28 -69 54 -69 111c0 64 107 126 200 126
c106 0 153 -44 153 -181v-539h-80v520c0 54 -1 141 -73 141c-56 0 -127 -32 -127 -75c0 -45 34 -86 73 -117z" />
    <glyph glyph-name="c_k" horiz-adv-x="949" 
d="M628 295l207 195h92l-228 -219l243 -271h-100l-214 242v-242h-80v520c0 54 -1 141 -73 141c-56 0 -127 -32 -127 -75c0 -45 34 -86 73 -117l5 -4l-14 -57c-26 11 -71 30 -132 30c-104 0 -140 -49 -140 -196c0 -146 44 -190 142 -190c60 0 111 16 127 21l14 -56
c-18 -7 -67 -27 -146 -27c-140 0 -221 55 -221 252c0 194 82 258 211 258c19 0 61 -8 77 -17c-35 28 -69 54 -69 111c0 64 107 126 200 126c106 0 153 -44 153 -181v-244z" />
    <glyph glyph-name="s_t" unicode="&#xfb06;" horiz-adv-x="817" 
d="M501 490h69l3 43c4 68 -17 109 -85 109c-87 0 -147 -31 -147 -68c0 -32 40 -76 52 -88l4 -4l-15 -54c-25 3 -78 10 -138 10c-53 0 -94 -20 -93 -65c1 -51 36 -67 114 -95c93 -33 147 -69 147 -150c0 -84 -54 -138 -177 -138c-69 0 -148 17 -171 24l16 56
c23 -4 90 -18 149 -18c61 0 102 23 101 72c-1 45 -23 62 -113 93c-88 30 -148 64 -149 149c-1 76 58 134 179 134c25 0 58 -4 79 -10c-28 19 -56 50 -56 103c0 52 87 107 228 107c128 0 152 -73 152 -205v-5h143l-11 -60h-131v-297c0 -55 12 -72 58 -72h72v-61h-78
c-86 0 -132 43 -132 133v297h-70v60z" />
    <glyph glyph-name="s_h" horiz-adv-x="1016" 
d="M543 476c0 89 -3 166 -73 166c-87 0 -129 -34 -129 -71c0 -32 40 -73 52 -85l4 -4l-15 -54c-25 3 -78 10 -138 10c-53 0 -94 -20 -93 -65c1 -51 36 -67 114 -95c93 -33 147 -69 147 -150c0 -84 -54 -138 -177 -138c-69 0 -148 17 -171 24l16 56c23 -4 90 -18 149 -18
c61 0 102 23 101 72c-1 45 -23 62 -113 93c-88 30 -148 64 -149 149c-1 76 58 134 179 134c25 0 58 -4 79 -10c-28 19 -56 47 -56 100c0 52 69 110 210 110c119 0 143 -82 143 -205v-43c31 19 89 48 163 48c95 0 150 -48 150 -161v-339h-80v333c0 72 -23 105 -83 105
c-61 0 -121 -28 -150 -47v-391h-80v476z" />
    <glyph glyph-name="s_l" horiz-adv-x="703" 
d="M623 0h-80v468c0 93 -1 174 -73 174c-87 0 -129 -34 -129 -71c0 -32 40 -73 52 -85l4 -4l-15 -54c-25 3 -78 10 -138 10c-53 0 -94 -20 -93 -65c1 -51 36 -67 114 -95c93 -33 147 -69 147 -150c0 -84 -54 -138 -177 -138c-69 0 -148 17 -171 24l16 56
c23 -4 90 -18 149 -18c61 0 102 23 101 72c-1 45 -23 62 -113 93c-88 30 -148 64 -149 149c-1 76 58 134 179 134c25 0 58 -4 79 -10c-28 19 -56 47 -56 100c0 52 69 110 210 110c119 0 143 -82 143 -205v-495z" />
    <glyph glyph-name="space" unicode=" " horiz-adv-x="260" 
 />
    <glyph glyph-name="a.alt_grave" horiz-adv-x="551" 
d="M471 470v-470h-80v52c-27 -28 -70 -62 -150 -62c-135 0 -185 69 -185 244v20c0 167 91 246 223 246c93 0 162 -17 192 -30zM391 113v312c-26 10 -64 13 -112 13c-85 0 -139 -62 -139 -184v-20c0 -141 31 -182 110 -182c58 0 115 35 141 61zM263 700l97 -135h-65l-132 135
h100z" />
    <glyph glyph-name="a.alt_acute" horiz-adv-x="551" 
d="M471 470v-470h-80v52c-27 -28 -70 -62 -150 -62c-135 0 -185 69 -185 244v20c0 167 91 246 223 246c93 0 162 -17 192 -30zM391 113v312c-26 10 -64 13 -112 13c-85 0 -139 -62 -139 -184v-20c0 -141 31 -182 110 -182c58 0 115 35 141 61zM227 565l97 135h100l-132 -135
h-65z" />
    <glyph glyph-name="a.alt_circumflex" horiz-adv-x="551" 
d="M471 470v-470h-80v52c-27 -28 -70 -62 -150 -62c-135 0 -185 69 -185 244v20c0 167 91 246 223 246c93 0 162 -17 192 -30zM391 113v312c-26 10 -64 13 -112 13c-85 0 -139 -62 -139 -184v-20c0 -141 31 -182 110 -182c58 0 115 35 141 61zM311 710l121 -145h-65l-82 84
l-82 -84h-65l121 145h52z" />
    <glyph glyph-name="a.alt_tilde" horiz-adv-x="551" 
d="M471 470v-470h-80v52c-27 -28 -70 -62 -150 -62c-135 0 -185 69 -185 244v20c0 167 91 246 223 246c93 0 162 -17 192 -30zM391 113v312c-26 10 -64 13 -112 13c-85 0 -139 -62 -139 -184v-20c0 -141 31 -182 110 -182c58 0 115 35 141 61zM141 575l-19 36
c25 20 77 56 118 56c30 0 80 -41 101 -41c30 0 74 28 86 37l28 -36c-21 -19 -86 -62 -128 -62c-28 0 -74 41 -100 41c-28 0 -68 -21 -86 -31z" />
    <glyph glyph-name="a.alt_dieresis" horiz-adv-x="551" 
d="M471 470v-470h-80v52c-27 -28 -70 -62 -150 -62c-135 0 -185 69 -185 244v20c0 167 91 246 223 246c93 0 162 -17 192 -30zM391 113v312c-26 10 -64 13 -112 13c-85 0 -139 -62 -139 -184v-20c0 -141 31 -182 110 -182c58 0 115 35 141 61zM132 625c0 37 16 51 44 51
c35 0 51 -14 51 -51c0 -33 -16 -48 -51 -48c-28 0 -44 13 -44 48zM329 625c0 37 16 51 45 51c35 0 50 -14 50 -51c0 -33 -15 -48 -50 -48c-29 0 -45 13 -45 48z" />
    <glyph glyph-name="a.alt_ring" horiz-adv-x="551" 
d="M471 470v-470h-80v52c-27 -28 -70 -62 -150 -62c-135 0 -185 69 -185 244v20c0 167 91 246 223 246c93 0 162 -17 192 -30zM391 113v312c-26 10 -64 13 -112 13c-85 0 -139 -62 -139 -184v-20c0 -141 31 -182 110 -182c58 0 115 35 141 61zM194 644c0 66 33 91 91 91
c60 0 93 -25 93 -91c0 -61 -33 -89 -93 -89c-58 0 -91 28 -91 89zM244 644c0 -33 15 -49 41 -49c27 0 43 16 43 49c0 37 -16 53 -43 53c-26 0 -41 -16 -41 -53z" />
    <glyph glyph-name="a.alt_macron" horiz-adv-x="551" 
d="M471 470v-470h-80v52c-27 -28 -70 -62 -150 -62c-135 0 -185 69 -185 244v20c0 167 91 246 223 246c93 0 162 -17 192 -30zM391 113v312c-26 10 -64 13 -112 13c-85 0 -139 -62 -139 -184v-20c0 -141 31 -182 110 -182c58 0 115 35 141 61zM161 585v60h259v-60h-259z" />
    <glyph glyph-name="a.alt_breve" horiz-adv-x="551" 
d="M471 470v-470h-80v52c-27 -28 -70 -62 -150 -62c-135 0 -185 69 -185 244v20c0 167 91 246 223 246c93 0 162 -17 192 -30zM391 113v312c-26 10 -64 13 -112 13c-85 0 -139 -62 -139 -184v-20c0 -141 31 -182 110 -182c58 0 115 35 141 61zM165 679h57
c0 -37 4 -72 65 -72c63 0 66 35 67 72h57c0 -72 -32 -119 -124 -119c-90 0 -122 47 -122 119z" />
    <glyph glyph-name="a.alt_ogonek" horiz-adv-x="551" 
d="M471 470v-470c-11 0 -95 -56 -95 -121c0 -42 35 -48 75 -48h23v-50h-23c-83 0 -142 11 -142 98c0 65 69 106 82 121v52c-27 -28 -70 -62 -150 -62c-135 0 -185 69 -185 244v20c0 167 91 246 223 246c93 0 162 -17 192 -30zM391 113v312c-26 10 -64 13 -112 13
c-85 0 -139 -62 -139 -184v-20c0 -141 31 -182 110 -182c58 0 115 35 141 61z" />
    <glyph glyph-name="f_f_j" horiz-adv-x="963" 
d="M550 0h-80v430h-274v-430h-80v430l-66 5v55h66v67c0 75 39 141 139 141h111l-15 -60h-96c-45 0 -59 -27 -59 -78v-70h274v67c0 75 39 141 139 141h91l-15 -60h-76c-45 0 -59 -27 -59 -78v-70h339v-562c0 -90 -54 -156 -155 -156h-41l10 60h25c60 0 81 43 81 89v509h-259
v-430zM801 632c0 36 17 50 45 50c33 0 50 -14 50 -50c0 -33 -17 -49 -50 -49c-28 0 -45 13 -45 49z" />
    </font>
</defs>
</svg>
